VotoSerifGX-CondensedBoldText.ufo
<glyph name="percent" format="2">
  <advance width="660"/>
  <unicode hex="0025"/>
  <outline>
    <contour>
      <point x="177" y="0" type="line"/>
      <point x="239" y="0" type="line"/>
      <point x="481" y="714" type="line"/>
      <point x="418" y="714" type="line"/>
    </contour>
    <contour>
      <point x="156" y="280" type="curve" smooth="yes"/>
      <point x="252" y="280"/>
      <point x="297" y="369"/>
      <point x="297" y="503" type="curve" smooth="yes"/>
      <point x="297" y="637"/>
      <point x="252" y="724"/>
      <point x="157" y="724" type="curve" smooth="yes"/>
      <point x="59" y="724"/>
      <point x="18" y="637"/>
      <point x="18" y="503" type="curve" smooth="yes"/>
      <point x="18" y="369"/>
      <point x="59" y="280"/>
    </contour>
    <contour>
      <point x="158" y="329" type="curve" smooth="yes"/>
      <point x="125" y="329"/>
      <point x="113" y="391"/>
      <point x="113" y="503" type="curve" smooth="yes"/>
      <point x="113" y="613"/>
      <point x="125" y="674"/>
      <point x="157" y="674" type="curve" smooth="yes"/>
      <point x="191" y="674"/>
      <point x="201" y="613"/>
      <point x="201" y="503" type="curve" smooth="yes"/>
      <point x="201" y="391"/>
      <point x="191" y="329"/>
    </contour>
    <contour>
      <point x="503" y="-10" type="curve" smooth="yes"/>
      <point x="597" y="-10"/>
      <point x="641" y="79"/>
      <point x="641" y="213" type="curve" smooth="yes"/>
      <point x="641" y="347"/>
      <point x="597" y="434"/>
      <point x="504" y="434" type="curve" smooth="yes"/>
      <point x="405" y="434"/>
      <point x="364" y="347"/>
      <point x="364" y="213" type="curve" smooth="yes"/>
      <point x="364" y="79"/>
      <point x="405" y="-10"/>
    </contour>
    <contour>
      <point x="503" y="39" type="curve" smooth="yes"/>
      <point x="471" y="39"/>
      <point x="459" y="101"/>
      <point x="459" y="213" type="curve" smooth="yes"/>
      <point x="459" y="323"/>
      <point x="471" y="384"/>
      <point x="504" y="384" type="curve" smooth="yes"/>
      <point x="535" y="384"/>
      <point x="547" y="323"/>
      <point x="547" y="213" type="curve" smooth="yes"/>
      <point x="547" y="101"/>
      <point x="535" y="39"/>
    </contour>
  </outline>
</glyph>
<glyph name="four" format="2">
  <advance width="397"/>
  <unicode hex="0034"/>
  <outline>
    <contour>
      <point x="107" y="0" type="line"/>
      <point x="389" y="0" type="line"/>
      <point x="389" y="53" type="line"/>
      <point x="379" y="53" type="line" smooth="yes"/>
      <point x="347" y="53"/>
      <point x="320" y="62"/>
      <point x="320" y="125" type="curve" smooth="yes"/>
      <point x="320" y="187" type="line"/>
      <point x="384" y="187" type="line"/>
      <point x="384" y="252" type="line"/>
      <point x="320" y="252" type="line"/>
      <point x="320" y="714" type="line"/>
      <point x="186" y="714" type="line"/>
      <point x="5" y="246" type="line"/>
      <point x="5" y="187" type="line"/>
      <point x="187" y="187" type="line"/>
      <point x="187" y="125" type="line" smooth="yes"/>
      <point x="187" y="62"/>
      <point x="160" y="53"/>
      <point x="129" y="53" type="curve" smooth="yes"/>
      <point x="107" y="53" type="line"/>
    </contour>
    <contour>
      <point x="65" y="252" type="line"/>
      <point x="138" y="443" type="line" smooth="yes"/>
      <point x="167" y="512"/>
      <point x="172" y="544"/>
      <point x="192" y="604" type="curve"/>
      <point x="187" y="542"/>
      <point x="187" y="503"/>
      <point x="187" y="445" type="curve" smooth="yes"/>
      <point x="187" y="252" type="line"/>
    </contour>
  </outline>
</glyph>
<glyph name="eight" format="2">
  <advance width="397"/>
  <unicode hex="0038"/>
  <outline>
    <contour>
      <point x="195" y="-10" type="curve" smooth="yes"/>
      <point x="318" y="-10"/>
      <point x="388" y="67"/>
      <point x="388" y="183" type="curve" smooth="yes"/>
      <point x="388" y="284"/>
      <point x="357" y="335"/>
      <point x="275" y="387" type="curve"/>
      <point x="334" y="423"/>
      <point x="369" y="471"/>
      <point x="369" y="559" type="curve" smooth="yes"/>
      <point x="369" y="652"/>
      <point x="315" y="724"/>
      <point x="204" y="724" type="curve" smooth="yes"/>
      <point x="75" y="724"/>
      <point x="26" y="643"/>
      <point x="26" y="543" type="curve" smooth="yes"/>
      <point x="26" y="453"/>
      <point x="62" y="404"/>
      <point x="119" y="362" type="curve"/>
      <point x="57" y="331"/>
      <point x="10" y="277"/>
      <point x="10" y="174" type="curve" smooth="yes"/>
      <point x="10" y="74"/>
      <point x="63" y="-10"/>
    </contour>
    <contour>
      <point x="198" y="49" type="curve" smooth="yes"/>
      <point x="160" y="49"/>
      <point x="128" y="93"/>
      <point x="128" y="182" type="curve" smooth="yes"/>
      <point x="128" y="249"/>
      <point x="143" y="296"/>
      <point x="167" y="328" type="curve"/>
      <point x="221" y="281"/>
      <point x="255" y="232"/>
      <point x="255" y="166" type="curve" smooth="yes"/>
      <point x="255" y="91"/>
      <point x="233" y="49"/>
    </contour>
    <contour>
      <point x="220" y="418" type="curve"/>
      <point x="181" y="450"/>
      <point x="154" y="488"/>
      <point x="154" y="560" type="curve" smooth="yes"/>
      <point x="154" y="625"/>
      <point x="171" y="665"/>
      <point x="201" y="665" type="curve" smooth="yes"/>
      <point x="234" y="665"/>
      <point x="254" y="617"/>
      <point x="254" y="556" type="curve" smooth="yes"/>
      <point x="254" y="486"/>
      <point x="238" y="445"/>
    </contour>
  </outline>
</glyph>
<glyph name="nine" format="2">
  <advance width="397"/>
  <unicode hex="0039"/>
  <outline>
    <contour>
      <point x="160" y="-11" type="curve"/>
      <point x="314" y="-11"/>
      <point x="377" y="164"/>
      <point x="377" y="392" type="curve"/>
      <point x="377" y="640"/>
      <point x="296" y="724"/>
      <point x="186" y="724" type="curve" smooth="yes"/>
      <point x="77" y="724"/>
      <point x="12" y="627"/>
      <point x="12" y="485" type="curve" smooth="yes"/>
      <point x="12" y="352"/>
      <point x="71" y="278"/>
      <point x="151" y="278" type="curve" smooth="yes"/>
      <point x="200" y="278"/>
      <point x="223" y="300"/>
      <point x="248" y="338" type="curve"/>
      <point x="243" y="161"/>
      <point x="213" y="53"/>
      <point x="165" y="53" type="curve" smooth="yes"/>
      <point x="114" y="53"/>
      <point x="96" y="109"/>
      <point x="83" y="163" type="curve"/>
      <point x="44" y="155"/>
      <point x="32" y="125"/>
      <point x="32" y="97" type="curve" smooth="yes"/>
      <point x="32" y="40"/>
      <point x="68" y="-11"/>
    </contour>
    <contour>
      <point x="190" y="345" type="curve"/>
      <point x="160" y="347"/>
      <point x="143" y="399"/>
      <point x="143" y="488" type="curve" smooth="yes"/>
      <point x="143" y="596"/>
      <point x="163" y="660"/>
      <point x="194" y="660" type="curve" smooth="yes"/>
      <point x="226" y="660"/>
      <point x="248" y="593"/>
      <point x="249" y="395" type="curve"/>
      <point x="233" y="369"/>
      <point x="213" y="347"/>
    </contour>
  </outline>
</glyph>
<glyph name="semicolon" format="2">
  <advance width="230"/>
  <unicode hex="003B"/>
  <outline>
    <contour>
      <point x="41" y="-154" type="line"/>
      <point x="143" y="-121"/>
      <point x="180" y="-46"/>
      <point x="180" y="35" type="curve" smooth="yes"/>
      <point x="180" y="104"/>
      <point x="158" y="147"/>
      <point x="109" y="147" type="curve" smooth="yes"/>
      <point x="77" y="147"/>
      <point x="50" y="123"/>
      <point x="50" y="81" type="curve" smooth="yes"/>
      <point x="50" y="4"/>
      <point x="103" y="11"/>
      <point x="103" y="-25" type="curve" smooth="yes"/>
      <point x="103" y="-63"/>
      <point x="81" y="-84"/>
      <point x="41" y="-103" type="curve"/>
    </contour>
    <contour>
      <point x="115" y="387" type="curve" smooth="yes"/>
      <point x="152" y="387"/>
      <point x="184" y="405"/>
      <point x="184" y="464" type="curve" smooth="yes"/>
      <point x="184" y="522"/>
      <point x="152" y="541"/>
      <point x="115" y="541" type="curve" smooth="yes"/>
      <point x="76" y="541"/>
      <point x="45" y="522"/>
      <point x="45" y="464" type="curve" smooth="yes"/>
      <point x="45" y="405"/>
      <point x="76" y="387"/>
    </contour>
  </outline>
</glyph>
<glyph name="A" format="2">
  <advance width="570"/>
  <unicode hex="0041"/>
  <anchor x="286" y="0" name="bottom"/>
  <anchor x="286" y="714" name="top"/>
  <anchor x="466" y="714" name="topright"/>
  <outline>
    <contour>
      <point x="5" y="0" type="line"/>
      <point x="201" y="0" type="line"/>
      <point x="201" y="53" type="line"/>
      <point x="167" y="53" type="line" smooth="yes"/>
      <point x="145" y="53"/>
      <point x="140" y="66"/>
      <point x="140" y="90" type="curve" smooth="yes"/>
      <point x="140" y="109"/>
      <point x="146" y="137"/>
      <point x="149" y="153" type="curve" smooth="yes"/>
      <point x="165" y="235" type="line"/>
      <point x="330" y="235" type="line"/>
      <point x="352" y="139" type="line" smooth="yes"/>
      <point x="355" y="126"/>
      <point x="360" y="103"/>
      <point x="360" y="87" type="curve" smooth="yes"/>
      <point x="360" y="62"/>
      <point x="346" y="53"/>
      <point x="331" y="53" type="curve" smooth="yes"/>
      <point x="301" y="53" type="line"/>
      <point x="301" y="0" type="line"/>
      <point x="570" y="0" type="line"/>
      <point x="570" y="53" type="line"/>
      <point x="562" y="53" type="line" smooth="yes"/>
      <point x="535" y="53"/>
      <point x="514" y="68"/>
      <point x="503" y="111" type="curve" smooth="yes"/>
      <point x="354" y="714" type="line"/>
      <point x="223" y="714" type="line"/>
      <point x="69" y="125" type="line" smooth="yes"/>
      <point x="54" y="65"/>
      <point x="35" y="53"/>
      <point x="9" y="53" type="curve" smooth="yes"/>
      <point x="5" y="53" type="line"/>
    </contour>
    <contour>
      <point x="182" y="296" type="line"/>
      <point x="227" y="491" type="line" smooth="yes"/>
      <point x="236" y="532"/>
      <point x="243" y="575"/>
      <point x="251" y="617" type="curve"/>
      <point x="257" y="574"/>
      <point x="266" y="532"/>
      <point x="276" y="487" type="curve" smooth="yes"/>
      <point x="314" y="296" type="line"/>
    </contour>
  </outline>
</glyph>
<glyph name="D" format="2">
  <advance width="576"/>
  <unicode hex="0044"/>
  <anchor x="288" y="0" name="bottom"/>
  <anchor x="288" y="357" name="center"/>
  <anchor x="288" y="714" name="top"/>
  <anchor x="556" y="714" name="topright"/>
  <outline>
    <contour>
      <point x="16" y="0" type="line"/>
      <point x="267" y="0" type="line" smooth="yes"/>
      <point x="445" y="0"/>
      <point x="538" y="150"/>
      <point x="538" y="369" type="curve" smooth="yes"/>
      <point x="538" y="596"/>
      <point x="434" y="714"/>
      <point x="267" y="714" type="curve" smooth="yes"/>
      <point x="16" y="714" type="line"/>
      <point x="16" y="661" type="line"/>
      <point x="48" y="661" type="line" smooth="yes"/>
      <point x="69" y="661"/>
      <point x="81" y="648"/>
      <point x="81" y="602" type="curve" smooth="yes"/>
      <point x="81" y="113" type="line" smooth="yes"/>
      <point x="81" y="72"/>
      <point x="71" y="53"/>
      <point x="54" y="53" type="curve" smooth="yes"/>
      <point x="16" y="53" type="line"/>
    </contour>
    <contour>
      <point x="227" y="62" type="line"/>
      <point x="227" y="653" type="line"/>
      <point x="249" y="653" type="line" smooth="yes"/>
      <point x="336" y="653"/>
      <point x="384" y="562"/>
      <point x="384" y="369" type="curve" smooth="yes"/>
      <point x="384" y="178"/>
      <point x="336" y="62"/>
      <point x="250" y="62" type="curve" smooth="yes"/>
    </contour>
  </outline>
</glyph>
<glyph name="E" format="2">
  <advance width="488"/>
  <unicode hex="0045"/>
  <anchor x="245" y="0" name="bottom"/>
  <anchor x="245" y="714" name="top"/>
  <anchor x="468" y="714" name="topright"/>
  <outline>
    <contour>
      <point x="16" y="0" type="line"/>
      <point x="467" y="0" type="line"/>
      <point x="471" y="184" type="line"/>
      <point x="411" y="184" type="line"/>
      <point x="406" y="138" type="line" smooth="yes"/>
      <point x="401" y="94"/>
      <point x="387" y="61"/>
      <point x="356" y="61" type="curve" smooth="yes"/>
      <point x="227" y="61" type="line"/>
      <point x="227" y="344" type="line"/>
      <point x="396" y="344" type="line"/>
      <point x="396" y="404" type="line"/>
      <point x="227" y="404" type="line"/>
      <point x="227" y="653" type="line"/>
      <point x="334" y="653" type="line" smooth="yes"/>
      <point x="367" y="653"/>
      <point x="381" y="626"/>
      <point x="382" y="576" type="curve" smooth="yes"/>
      <point x="386" y="530" type="line"/>
      <point x="447" y="530" type="line"/>
      <point x="446" y="714" type="line"/>
      <point x="16" y="714" type="line"/>
      <point x="16" y="661" type="line"/>
      <point x="50" y="661" type="line" smooth="yes"/>
      <point x="65" y="661"/>
      <point x="81" y="654"/>
      <point x="81" y="601" type="curve" smooth="yes"/>
      <point x="81" y="108" type="line" smooth="yes"/>
      <point x="81" y="69"/>
      <point x="72" y="53"/>
      <point x="52" y="53" type="curve" smooth="yes"/>
      <point x="16" y="53" type="line"/>
    </contour>
  </outline>
</glyph>
<glyph name="J" format="2">
  <advance width="312"/>
  <unicode hex="004A"/>
  <anchor x="113" y="-240" name="bottom"/>
  <anchor x="163" y="714" name="top"/>
  <anchor x="278" y="714" name="topright"/>
  <outline>
    <contour>
      <point x="-17" y="-240" type="line"/>
      <point x="20" y="-240" type="line" smooth="yes"/>
      <point x="124" y="-240"/>
      <point x="234" y="-183"/>
      <point x="234" y="-3" type="curve" smooth="yes"/>
      <point x="234" y="601" type="line" smooth="yes"/>
      <point x="234" y="648"/>
      <point x="249" y="661"/>
      <point x="262" y="661" type="curve" smooth="yes"/>
      <point x="300" y="661" type="line"/>
      <point x="300" y="714" type="line"/>
      <point x="22" y="714" type="line"/>
      <point x="22" y="661" type="line"/>
      <point x="61" y="661" type="line" smooth="yes"/>
      <point x="72" y="661"/>
      <point x="89" y="648"/>
      <point x="89" y="604" type="curve" smooth="yes"/>
      <point x="89" y="-4" type="line" smooth="yes"/>
      <point x="89" y="-137"/>
      <point x="35" y="-182"/>
      <point x="0" y="-182" type="curve" smooth="yes"/>
      <point x="-17" y="-182" type="line"/>
    </contour>
  </outline>
</glyph>
<glyph name="N" format="2">
  <advance width="583"/>
  <unicode hex="004E"/>
  <anchor x="291" y="0" name="bottom"/>
  <anchor x="291" y="714" name="top"/>
  <anchor x="563" y="714" name="topright"/>
  <outline>
    <contour>
      <point x="16" y="0" type="line"/>
      <point x="209" y="0" type="line"/>
      <point x="209" y="53" type="line"/>
      <point x="178" y="53" type="line" smooth="yes"/>
      <point x="153" y="53"/>
      <point x="143" y="60"/>
      <point x="143" y="118" type="curve" smooth="yes"/>
      <point x="143" y="560" type="line"/>
      <point x="382" y="0" type="line"/>
      <point x="511" y="0" type="line"/>
      <point x="511" y="596" type="line" smooth="yes"/>
      <point x="511" y="648"/>
      <point x="525" y="661"/>
      <point x="547" y="661" type="curve" smooth="yes"/>
      <point x="576" y="661" type="line"/>
      <point x="576" y="714" type="line"/>
      <point x="383" y="714" type="line"/>
      <point x="383" y="661" type="line"/>
      <point x="415" y="661" type="line" smooth="yes"/>
      <point x="433" y="661"/>
      <point x="449" y="649"/>
      <point x="449" y="600" type="curve" smooth="yes"/>
      <point x="449" y="210" type="line"/>
      <point x="244" y="714" type="line"/>
      <point x="16" y="714" type="line"/>
      <point x="16" y="661" type="line"/>
      <point x="46" y="661" type="line" smooth="yes"/>
      <point x="64" y="661"/>
      <point x="81" y="654"/>
      <point x="81" y="600" type="curve" smooth="yes"/>
      <point x="81" y="118" type="line" smooth="yes"/>
      <point x="81" y="60"/>
      <point x="65" y="53"/>
      <point x="39" y="53" type="curve" smooth="yes"/>
      <point x="16" y="53" type="line"/>
    </contour>
  </outline>
</glyph>
<glyph name="P" format="2">
  <advance width="480"/>
  <unicode hex="0050"/>
  <anchor x="155" y="0" name="bottom"/>
  <anchor x="240" y="714" name="top"/>
  <anchor x="516" y="714" name="topright"/>
  <outline>
    <contour>
      <point x="16" y="0" type="line"/>
      <point x="309" y="0" type="line"/>
      <point x="309" y="53" type="line"/>
      <point x="261" y="53" type="line" smooth="yes"/>
      <point x="242" y="53"/>
      <point x="228" y="59"/>
      <point x="228" y="113" type="curve" smooth="yes"/>
      <point x="228" y="272" type="line"/>
      <point x="243" y="272" type="line" smooth="yes"/>
      <point x="414" y="272"/>
      <point x="478" y="374"/>
      <point x="478" y="502" type="curve" smooth="yes"/>
      <point x="478" y="641"/>
      <point x="410" y="714"/>
      <point x="259" y="714" type="curve" smooth="yes"/>
      <point x="16" y="714" type="line"/>
      <point x="16" y="661" type="line"/>
      <point x="48" y="661" type="line" smooth="yes"/>
      <point x="65" y="661"/>
      <point x="81" y="654"/>
      <point x="81" y="600" type="curve" smooth="yes"/>
      <point x="81" y="118" type="line" smooth="yes"/>
      <point x="81" y="60"/>
      <point x="64" y="53"/>
      <point x="44" y="53" type="curve" smooth="yes"/>
      <point x="16" y="53" type="line"/>
    </contour>
    <contour>
      <point x="227" y="330" type="line"/>
      <point x="227" y="655" type="line"/>
      <point x="247" y="655" type="line" smooth="yes"/>
      <point x="301" y="655"/>
      <point x="327" y="606"/>
      <point x="327" y="498" type="curve" smooth="yes"/>
      <point x="327" y="378"/>
      <point x="300" y="330"/>
      <point x="236" y="330" type="curve" smooth="yes"/>
    </contour>
  </outline>
</glyph>
<glyph name="V" format="2">
  <advance width="517"/>
  <unicode hex="0056"/>
  <anchor x="258" y="0" name="bottom"/>
  <anchor x="258" y="714" name="top"/>
  <anchor x="497" y="714" name="topright"/>
  <outline>
    <contour>
      <point x="197" y="0" type="line"/>
      <point x="314" y="0" type="line"/>
      <point x="446" y="589" type="line" smooth="yes"/>
      <point x="460" y="650"/>
      <point x="470" y="661"/>
      <point x="492" y="661" type="curve" smooth="yes"/>
      <point x="517" y="661" type="line"/>
      <point x="517" y="714" type="line"/>
      <point x="330" y="714" type="line"/>
      <point x="330" y="661" type="line"/>
      <point x="372" y="661" type="line" smooth="yes"/>
      <point x="386" y="661"/>
      <point x="391" y="651"/>
      <point x="391" y="635" type="curve" smooth="yes"/>
      <point x="391" y="619"/>
      <point x="385" y="598"/>
      <point x="379" y="573" type="curve"/>
      <point x="319" y="273" type="line" smooth="yes"/>
      <point x="311" y="233"/>
      <point x="300" y="194"/>
      <point x="294" y="156" type="curve"/>
      <point x="289" y="193"/>
      <point x="277" y="241"/>
      <point x="270" y="276" type="curve" smooth="yes"/>
      <point x="216" y="581" type="line" smooth="yes"/>
      <point x="213" y="598"/>
      <point x="206" y="619"/>
      <point x="206" y="634" type="curve" smooth="yes"/>
      <point x="206" y="652"/>
      <point x="213" y="661"/>
      <point x="226" y="661" type="curve" smooth="yes"/>
      <point x="261" y="661" type="line"/>
      <point x="261" y="714" type="line"/>
      <point x="0" y="714" type="line"/>
      <point x="0" y="661" type="line"/>
      <point x="22" y="661" type="line" smooth="yes"/>
      <point x="37" y="661"/>
      <point x="54" y="652"/>
      <point x="63" y="614" type="curve" smooth="yes"/>
    </contour>
  </outline>
</glyph>
<glyph name="Y" format="2">
  <advance width="538"/>
  <unicode hex="0059"/>
  <anchor x="269" y="0" name="bottom"/>
  <anchor x="269" y="714" name="top"/>
  <anchor x="518" y="714" name="topright"/>
  <outline>
    <contour>
      <point x="121" y="0" type="line"/>
      <point x="420" y="0" type="line"/>
      <point x="420" y="53" type="line"/>
      <point x="385" y="53" type="line" smooth="yes"/>
      <point x="363" y="53"/>
      <point x="345" y="63"/>
      <point x="345" y="121" type="curve" smooth="yes"/>
      <point x="345" y="261" type="line"/>
      <point x="468" y="584" type="line" smooth="yes"/>
      <point x="492" y="646"/>
      <point x="501" y="661"/>
      <point x="529" y="661" type="curve" smooth="yes"/>
      <point x="538" y="661" type="line"/>
      <point x="538" y="714" type="line"/>
      <point x="338" y="714" type="line"/>
      <point x="338" y="661" type="line"/>
      <point x="352" y="661" type="line" smooth="yes"/>
      <point x="386" y="661"/>
      <point x="402" y="650"/>
      <point x="402" y="615" type="curve" smooth="yes"/>
      <point x="402" y="605"/>
      <point x="400" y="582"/>
      <point x="389" y="553" type="curve" smooth="yes"/>
      <point x="352" y="440" type="line" smooth="yes"/>
      <point x="338" y="397"/>
      <point x="324" y="358"/>
      <point x="315" y="327" type="curve"/>
      <point x="305" y="358"/>
      <point x="301" y="384"/>
      <point x="286" y="422" type="curve" smooth="yes"/>
      <point x="234" y="562" type="line" smooth="yes"/>
      <point x="227" y="580"/>
      <point x="223" y="601"/>
      <point x="223" y="616" type="curve" smooth="yes"/>
      <point x="223" y="645"/>
      <point x="244" y="661"/>
      <point x="276" y="661" type="curve" smooth="yes"/>
      <point x="278" y="661" type="line"/>
      <point x="278" y="714" type="line"/>
      <point x="2" y="714" type="line"/>
      <point x="2" y="661" type="line"/>
      <point x="12" y="661" type="line" smooth="yes"/>
      <point x="43" y="661"/>
      <point x="48" y="648"/>
      <point x="65" y="608" type="curve" smooth="yes"/>
      <point x="196" y="262" type="line"/>
      <point x="196" y="121" type="line" smooth="yes"/>
      <point x="196" y="64"/>
      <point x="178" y="53"/>
      <point x="148" y="53" type="curve" smooth="yes"/>
      <point x="121" y="53" type="line"/>
    </contour>
  </outline>
</glyph>
<glyph name="a" format="2">
  <advance width="454"/>
  <unicode hex="0061"/>
  <anchor x="228" y="0" name="bottom"/>
  <anchor x="228" y="536" name="top"/>
  <anchor x="434" y="536" name="topright"/>
  <outline>
    <contour>
      <point x="144" y="-10" type="curve" smooth="yes"/>
      <point x="195" y="-10"/>
      <point x="215" y="16"/>
      <point x="248" y="69" type="curve"/>
      <point x="256" y="69" type="line"/>
      <point x="273" y="0" type="line"/>
      <point x="436" y="0" type="line"/>
      <point x="436" y="53" type="line"/>
      <point x="434" y="53" type="line" smooth="yes"/>
      <point x="400" y="53"/>
      <point x="390" y="69"/>
      <point x="390" y="123" type="curve" smooth="yes"/>
      <point x="390" y="378" type="line" smooth="yes"/>
      <point x="390" y="504"/>
      <point x="334" y="549"/>
      <point x="223" y="549" type="curve" smooth="yes"/>
      <point x="135" y="549"/>
      <point x="60" y="516"/>
      <point x="60" y="447" type="curve" smooth="yes"/>
      <point x="60" y="401"/>
      <point x="96" y="380"/>
      <point x="174" y="380" type="curve"/>
      <point x="174" y="449"/>
      <point x="189" y="489"/>
      <point x="211" y="489" type="curve" smooth="yes"/>
      <point x="236" y="489"/>
      <point x="248" y="449"/>
      <point x="248" y="373" type="curve" smooth="yes"/>
      <point x="248" y="318" type="line"/>
      <point x="189" y="315" type="line" smooth="yes"/>
      <point x="82" y="310"/>
      <point x="29" y="262"/>
      <point x="29" y="153" type="curve" smooth="yes"/>
      <point x="29" y="41"/>
      <point x="82" y="-10"/>
    </contour>
    <contour>
      <point x="201" y="59" type="curve" smooth="yes"/>
      <point x="183" y="59"/>
      <point x="174" y="92"/>
      <point x="174" y="149" type="curve" smooth="yes"/>
      <point x="174" y="222"/>
      <point x="187" y="257"/>
      <point x="228" y="264" type="curve" smooth="yes"/>
      <point x="249" y="267" type="line"/>
      <point x="249" y="191" type="line" smooth="yes"/>
      <point x="249" y="113"/>
      <point x="230" y="59"/>
    </contour>
  </outline>
</glyph>
<glyph name="c" format="2">
  <advance width="400"/>
  <unicode hex="0063"/>
  <anchor x="220" y="0" name="bottom"/>
  <anchor x="220" y="536" name="top"/>
  <anchor x="380" y="536" name="topright"/>
  <outline>
    <contour>
      <point x="221" y="-10" type="curve" smooth="yes"/>
      <point x="357" y="-10"/>
      <point x="375" y="50"/>
      <point x="375" y="98" type="curve" smooth="yes"/>
      <point x="375" y="121"/>
      <point x="359" y="132"/>
      <point x="344" y="139" type="curve"/>
      <point x="328" y="92"/>
      <point x="300" y="60"/>
      <point x="260" y="60" type="curve" smooth="yes"/>
      <point x="195" y="60"/>
      <point x="172" y="131"/>
      <point x="172" y="266" type="curve" smooth="yes"/>
      <point x="172" y="438"/>
      <point x="192" y="489"/>
      <point x="222" y="489" type="curve" smooth="yes"/>
      <point x="250" y="489"/>
      <point x="259" y="429"/>
      <point x="259" y="360" type="curve"/>
      <point x="360" y="360"/>
      <point x="375" y="401"/>
      <point x="375" y="444" type="curve" smooth="yes"/>
      <point x="375" y="501"/>
      <point x="337" y="549"/>
      <point x="219" y="549" type="curve" smooth="yes"/>
      <point x="113" y="549"/>
      <point x="29" y="482"/>
      <point x="29" y="265" type="curve" smooth="yes"/>
      <point x="29" y="62"/>
      <point x="104" y="-10"/>
    </contour>
  </outline>
</glyph>
<glyph name="g" format="2">
  <advance width="416"/>
  <unicode hex="0067"/>
  <anchor x="208" y="-235" name="bottom"/>
  <anchor x="198" y="536" name="top"/>
  <anchor x="426" y="536" name="topright"/>
  <outline>
    <contour>
      <point x="172" y="-235" type="curve" smooth="yes"/>
      <point x="325" y="-235"/>
      <point x="396" y="-162"/>
      <point x="396" y="-44" type="curve" smooth="yes"/>
      <point x="396" y="48"/>
      <point x="346" y="106"/>
      <point x="243" y="106" type="curve" smooth="yes"/>
      <point x="156" y="106" type="line" smooth="yes"/>
      <point x="140" y="106"/>
      <point x="125" y="116"/>
      <point x="125" y="141" type="curve" smooth="yes"/>
      <point x="125" y="164"/>
      <point x="138" y="185"/>
      <point x="147" y="194" type="curve"/>
      <point x="157" y="191"/>
      <point x="178" y="189"/>
      <point x="189" y="189" type="curve" smooth="yes"/>
      <point x="305" y="189"/>
      <point x="356" y="263"/>
      <point x="356" y="369" type="curve" smooth="yes"/>
      <point x="356" y="428"/>
      <point x="336" y="467"/>
      <point x="312" y="494" type="curve"/>
      <point x="318" y="498"/>
      <point x="325" y="505"/>
      <point x="337" y="505" type="curve" smooth="yes"/>
      <point x="346" y="505"/>
      <point x="363" y="491"/>
      <point x="363" y="460" type="curve"/>
      <point x="405" y="460"/>
      <point x="419" y="489"/>
      <point x="419" y="521" type="curve" smooth="yes"/>
      <point x="419" y="551"/>
      <point x="400" y="579"/>
      <point x="367" y="579" type="curve" smooth="yes"/>
      <point x="328" y="579"/>
      <point x="306" y="548"/>
      <point x="282" y="520" type="curve"/>
      <point x="254" y="539"/>
      <point x="228" y="549"/>
      <point x="189" y="549" type="curve" smooth="yes"/>
      <point x="72" y="549"/>
      <point x="20" y="482"/>
      <point x="20" y="364" type="curve" smooth="yes"/>
      <point x="20" y="283"/>
      <point x="59" y="230"/>
      <point x="107" y="210" type="curve"/>
      <point x="62" y="181"/>
      <point x="29" y="150"/>
      <point x="29" y="106" type="curve" smooth="yes"/>
      <point x="29" y="60"/>
      <point x="63" y="37"/>
      <point x="93" y="23" type="curve"/>
      <point x="29" y="15"/>
      <point x="-11" y="-28"/>
      <point x="-11" y="-98" type="curve" smooth="yes"/>
      <point x="-11" y="-187"/>
      <point x="51" y="-235"/>
    </contour>
    <contour>
      <point x="175" y="-177" type="curve" smooth="yes"/>
      <point x="133" y="-177"/>
      <point x="95" y="-147"/>
      <point x="95" y="-96" type="curve" smooth="yes"/>
      <point x="95" y="-34"/>
      <point x="129" y="-14"/>
      <point x="149" y="-14" type="curve" smooth="yes"/>
      <point x="242" y="-14" type="line" smooth="yes"/>
      <point x="275" y="-14"/>
      <point x="288" y="-37"/>
      <point x="288" y="-77" type="curve" smooth="yes"/>
      <point x="288" y="-137"/>
      <point x="245" y="-177"/>
    </contour>
    <contour>
      <point x="187" y="247" type="curve" smooth="yes"/>
      <point x="149" y="247"/>
      <point x="142" y="293"/>
      <point x="142" y="364" type="curve" smooth="yes"/>
      <point x="142" y="438"/>
      <point x="149" y="490"/>
      <point x="188" y="490" type="curve" smooth="yes"/>
      <point x="228" y="490"/>
      <point x="234" y="440"/>
      <point x="234" y="365" type="curve" smooth="yes"/>
      <point x="234" y="292"/>
      <point x="228" y="247"/>
    </contour>
  </outline>
</glyph>
<glyph name="j" format="2">
  <advance width="275"/>
  <unicode hex="006A"/>
  <anchor x="102" y="-240" name="bottom"/>
  <anchor x="136" y="767" name="top"/>
  <anchor x="255" y="767" name="topright"/>
  <outline>
    <contour>
      <point x="-19" y="-240" type="line"/>
      <point x="-3" y="-240" type="line" smooth="yes"/>
      <point x="122" y="-240"/>
      <point x="211" y="-187"/>
      <point x="211" y="-8" type="curve" smooth="yes"/>
      <point x="211" y="536" type="line"/>
      <point x="10" y="536" type="line"/>
      <point x="10" y="483" type="line"/>
      <point x="12" y="483" type="line" smooth="yes"/>
      <point x="42" y="483"/>
      <point x="67" y="474"/>
      <point x="67" y="417" type="curve" smooth="yes"/>
      <point x="67" y="0" type="line" smooth="yes"/>
      <point x="67" y="-138"/>
      <point x="40" y="-179"/>
      <point x="-14" y="-179" type="curve" smooth="yes"/>
      <point x="-19" y="-179" type="line"/>
    </contour>
    <contour>
      <point x="136" y="629" type="curve" smooth="yes"/>
      <point x="177" y="629"/>
      <point x="215" y="650"/>
      <point x="215" y="698" type="curve" smooth="yes"/>
      <point x="215" y="747"/>
      <point x="177" y="767"/>
      <point x="136" y="767" type="curve" smooth="yes"/>
      <point x="93" y="767"/>
      <point x="59" y="747"/>
      <point x="59" y="698" type="curve" smooth="yes"/>
      <point x="59" y="650"/>
      <point x="93" y="629"/>
    </contour>
  </outline>
</glyph>
<glyph name="q" format="2">
  <advance width="486"/>
  <unicode hex="0071"/>
  <anchor x="244" y="-228" name="bottom"/>
  <anchor x="244" y="536" name="top"/>
  <anchor x="486" y="536" name="topright"/>
  <outline>
    <contour>
      <point x="200" y="-228" type="line"/>
      <point x="480" y="-228" type="line"/>
      <point x="480" y="-175" type="line"/>
      <point x="477" y="-175" type="line" smooth="yes"/>
      <point x="445" y="-175"/>
      <point x="419" y="-167"/>
      <point x="419" y="-112" type="curve" smooth="yes"/>
      <point x="419" y="413" type="line" smooth="yes"/>
      <point x="419" y="474"/>
      <point x="446" y="483"/>
      <point x="476" y="483" type="curve" smooth="yes"/>
      <point x="480" y="483" type="line"/>
      <point x="480" y="536" type="line"/>
      <point x="310" y="536" type="line"/>
      <point x="296" y="458" type="line"/>
      <point x="291" y="458" type="line"/>
      <point x="269" y="511"/>
      <point x="232" y="546"/>
      <point x="183" y="546" type="curve" smooth="yes"/>
      <point x="81" y="546"/>
      <point x="27" y="460"/>
      <point x="27" y="268" type="curve" smooth="yes"/>
      <point x="27" y="75"/>
      <point x="81" y="-10"/>
      <point x="173" y="-10" type="curve" smooth="yes"/>
      <point x="225" y="-10"/>
      <point x="256" y="23"/>
      <point x="276" y="70" type="curve"/>
      <point x="282" y="70" type="line"/>
      <point x="280" y="41"/>
      <point x="277" y="-8"/>
      <point x="277" y="-48" type="curve" smooth="yes"/>
      <point x="277" y="-112" type="line" smooth="yes"/>
      <point x="277" y="-167"/>
      <point x="250" y="-175"/>
      <point x="221" y="-175" type="curve" smooth="yes"/>
      <point x="200" y="-175" type="line"/>
    </contour>
    <contour>
      <point x="220" y="59" type="curve" smooth="yes"/>
      <point x="184" y="59"/>
      <point x="170" y="131"/>
      <point x="170" y="267" type="curve" smooth="yes"/>
      <point x="170" y="410"/>
      <point x="184" y="475"/>
      <point x="221" y="475" type="curve" smooth="yes"/>
      <point x="264" y="475"/>
      <point x="277" y="407"/>
      <point x="277" y="267" type="curve" smooth="yes"/>
      <point x="277" y="132"/>
      <point x="264" y="59"/>
    </contour>
  </outline>
</glyph>
<glyph name="s" format="2">
  <advance width="364"/>
  <unicode hex="0073"/>
  <anchor x="183" y="0" name="bottom"/>
  <anchor x="183" y="536" name="top"/>
  <anchor x="344" y="536" name="topright"/>
  <outline>
    <contour>
      <point x="176" y="-10" type="curve" smooth="yes"/>
      <point x="289" y="-10"/>
      <point x="346" y="57"/>
      <point x="346" y="161" type="curve" smooth="yes"/>
      <point x="346" y="257"/>
      <point x="293" y="296"/>
      <point x="215" y="333" type="curve" smooth="yes"/>
      <point x="147" y="365"/>
      <point x="130" y="383"/>
      <point x="130" y="429" type="curve" smooth="yes"/>
      <point x="130" y="467"/>
      <point x="151" y="489"/>
      <point x="181" y="489" type="curve" smooth="yes"/>
      <point x="220" y="489"/>
      <point x="251" y="454"/>
      <point x="251" y="388" type="curve"/>
      <point x="305" y="388"/>
      <point x="330" y="410"/>
      <point x="330" y="453" type="curve" smooth="yes"/>
      <point x="330" y="502"/>
      <point x="291" y="548"/>
      <point x="193" y="548" type="curve" smooth="yes"/>
      <point x="90" y="548"/>
      <point x="23" y="495"/>
      <point x="23" y="390" type="curve" smooth="yes"/>
      <point x="23" y="294"/>
      <point x="66" y="255"/>
      <point x="155" y="214" type="curve" smooth="yes"/>
      <point x="213" y="184"/>
      <point x="241" y="163"/>
      <point x="241" y="120" type="curve" smooth="yes"/>
      <point x="241" y="80"/>
      <point x="225" y="49"/>
      <point x="178" y="49" type="curve" smooth="yes"/>
      <point x="130" y="49"/>
      <point x="93" y="91"/>
      <point x="93" y="175" type="curve"/>
      <point x="52" y="175"/>
      <point x="18" y="155"/>
      <point x="18" y="102" type="curve" smooth="yes"/>
      <point x="18" y="36"/>
      <point x="53" y="-10"/>
    </contour>
  </outline>
</glyph>
<glyph name="braceright" format="2">
  <advance width="325"/>
  <unicode hex="007D"/>
  <outline>
    <contour>
      <point x="10" y="-125" type="line"/>
      <point x="94" y="-125" type="line"/>
      <point x="187" y="-125"/>
      <point x="232" y="-68"/>
      <point x="232" y="23" type="curve" smooth="yes"/>
      <point x="232" y="194" type="line" smooth="yes"/>
      <point x="232" y="271"/>
      <point x="270" y="286"/>
      <point x="315" y="289" type="curve"/>
      <point x="315" y="349" type="line"/>
      <point x="270" y="351"/>
      <point x="232" y="368"/>
      <point x="232" y="443" type="curve" smooth="yes"/>
      <point x="232" y="614" type="line" smooth="yes"/>
      <point x="232" y="708"/>
      <point x="187" y="760"/>
      <point x="94" y="760" type="curve" smooth="yes"/>
      <point x="10" y="760" type="line"/>
      <point x="10" y="708" type="line"/>
      <point x="44" y="708" type="line" smooth="yes"/>
      <point x="83" y="708"/>
      <point x="89" y="674"/>
      <point x="89" y="611" type="curve" smooth="yes"/>
      <point x="89" y="441" type="line" smooth="yes"/>
      <point x="89" y="380"/>
      <point x="111" y="341"/>
      <point x="168" y="324" type="curve"/>
      <point x="168" y="316" type="line"/>
      <point x="112" y="297"/>
      <point x="89" y="258"/>
      <point x="89" y="197" type="curve" smooth="yes"/>
      <point x="89" y="25" type="line" smooth="yes"/>
      <point x="89" y="-37"/>
      <point x="83" y="-72"/>
      <point x="44" y="-72" type="curve" smooth="yes"/>
      <point x="10" y="-72" type="line"/>
    </contour>
  </outline>
</glyph>
<glyph name="section" format="2">
  <advance width="394"/>
  <unicode hex="00A7"/>
  <outline>
    <contour>
      <point x="201" y="-114" type="curve" smooth="yes"/>
      <point x="297" y="-114"/>
      <point x="351" y="-36"/>
      <point x="351" y="65" type="curve" smooth="yes"/>
      <point x="351" y="108"/>
      <point x="342" y="145"/>
      <point x="323" y="173" type="curve"/>
      <point x="351" y="195"/>
      <point x="373" y="242"/>
      <point x="373" y="291" type="curve" smooth="yes"/>
      <point x="373" y="377"/>
      <point x="323" y="417"/>
      <point x="210" y="493" type="curve" smooth="yes"/>
      <point x="165" y="520"/>
      <point x="142" y="548"/>
      <point x="142" y="612" type="curve" smooth="yes"/>
      <point x="142" y="670"/>
      <point x="168" y="706"/>
      <point x="202" y="706" type="curve" smooth="yes"/>
      <point x="252" y="706"/>
      <point x="262" y="638"/>
      <point x="262" y="581" type="curve"/>
      <point x="314" y="581"/>
      <point x="342" y="615"/>
      <point x="342" y="653" type="curve" smooth="yes"/>
      <point x="342" y="712"/>
      <point x="295" y="760"/>
      <point x="206" y="760" type="curve" smooth="yes"/>
      <point x="117" y="760"/>
      <point x="55" y="702"/>
      <point x="55" y="600" type="curve" smooth="yes"/>
      <point x="55" y="546"/>
      <point x="74" y="507"/>
      <point x="89" y="483" type="curve"/>
      <point x="60" y="463"/>
      <point x="40" y="425"/>
      <point x="40" y="380" type="curve" smooth="yes"/>
      <point x="40" y="302"/>
      <point x="71" y="253"/>
      <point x="154" y="195" type="curve" smooth="yes"/>
      <point x="256" y="122"/>
      <point x="276" y="92"/>
      <point x="276" y="40" type="curve" smooth="yes"/>
      <point x="276" y="-19"/>
      <point x="252" y="-62"/>
      <point x="214" y="-62" type="curve" smooth="yes"/>
      <point x="158" y="-62"/>
      <point x="128" y="6"/>
      <point x="128" y="93" type="curve"/>
      <point x="73" y="93"/>
      <point x="50" y="67"/>
      <point x="50" y="15" type="curve" smooth="yes"/>
      <point x="50" y="-44"/>
      <point x="67" y="-114"/>
    </contour>
    <contour>
      <point x="283" y="210" type="curve"/>
      <point x="267" y="223"/>
      <point x="251" y="242"/>
      <point x="217" y="266" type="curve" smooth="yes"/>
      <point x="145" y="322"/>
      <point x="118" y="348"/>
      <point x="118" y="402" type="curve" smooth="yes"/>
      <point x="118" y="422"/>
      <point x="120" y="441"/>
      <point x="124" y="451" type="curve"/>
      <point x="146" y="430"/>
      <point x="174" y="412"/>
      <point x="204" y="390" type="curve" smooth="yes"/>
      <point x="270" y="343"/>
      <point x="289" y="306"/>
      <point x="289" y="260" type="curve" smooth="yes"/>
      <point x="289" y="240"/>
      <point x="285" y="219"/>
    </contour>
  </outline>
</glyph>
<glyph name="registered" format="2">
  <advance width="612"/>
  <unicode hex="00AE"/>
  <outline>
    <contour>
      <point x="307" y="-10" type="curve" smooth="yes"/>
      <point x="478" y="-10"/>
      <point x="558" y="162"/>
      <point x="558" y="359" type="curve" smooth="yes"/>
      <point x="558" y="551"/>
      <point x="481" y="725"/>
      <point x="309" y="725" type="curve" smooth="yes"/>
      <point x="136" y="725"/>
      <point x="52" y="552"/>
      <point x="52" y="358" type="curve" smooth="yes"/>
      <point x="52" y="171"/>
      <point x="131" y="-10"/>
    </contour>
    <contour>
      <point x="311" y="33" type="curve" smooth="yes"/>
      <point x="170" y="33"/>
      <point x="95" y="182"/>
      <point x="95" y="360" type="curve" smooth="yes"/>
      <point x="95" y="534"/>
      <point x="167" y="682"/>
      <point x="308" y="682" type="curve" smooth="yes"/>
      <point x="448" y="682"/>
      <point x="515" y="539"/>
      <point x="515" y="358" type="curve" smooth="yes"/>
      <point x="515" y="178"/>
      <point x="447" y="33"/>
    </contour>
    <contour>
      <point x="160" y="141" type="line"/>
      <point x="303" y="141" type="line"/>
      <point x="303" y="170" type="line"/>
      <point x="293" y="170" type="line" smooth="yes"/>
      <point x="273" y="170"/>
      <point x="257" y="174"/>
      <point x="257" y="205" type="curve" smooth="yes"/>
      <point x="257" y="331" type="line"/>
      <point x="301" y="331" type="line"/>
      <point x="378" y="141" type="line"/>
      <point x="454" y="141" type="line"/>
      <point x="454" y="170" type="line"/>
      <point x="429" y="170"/>
      <point x="419" y="173"/>
      <point x="410" y="195" type="curve" smooth="yes"/>
      <point x="346" y="347" type="line"/>
      <point x="379" y="361"/>
      <point x="409" y="391"/>
      <point x="409" y="454" type="curve" smooth="yes"/>
      <point x="409" y="530"/>
      <point x="368" y="569"/>
      <point x="288" y="569" type="curve" smooth="yes"/>
      <point x="160" y="569" type="line"/>
      <point x="160" y="543" type="line"/>
      <point x="168" y="543" type="line" smooth="yes"/>
      <point x="190" y="543"/>
      <point x="207" y="539"/>
      <point x="207" y="508" type="curve" smooth="yes"/>
      <point x="207" y="205" type="line" smooth="yes"/>
      <point x="207" y="174"/>
      <point x="190" y="170"/>
      <point x="168" y="170" type="curve" smooth="yes"/>
      <point x="160" y="170" type="line"/>
    </contour>
    <contour>
      <point x="257" y="368" type="line"/>
      <point x="257" y="540" type="line"/>
      <point x="284" y="540" type="line" smooth="yes"/>
      <point x="339" y="540"/>
      <point x="358" y="518"/>
      <point x="358" y="453" type="curve" smooth="yes"/>
      <point x="358" y="395"/>
      <point x="342" y="368"/>
      <point x="287" y="368" type="curve" smooth="yes"/>
    </contour>
  </outline>
</glyph>
<glyph name="degree" format="2">
  <advance width="290"/>
  <unicode hex="00B0"/>
  <outline>
    <contour>
      <point x="144" y="440" type="curve" smooth="yes"/>
      <point x="210" y="440"/>
      <point x="244" y="502"/>
      <point x="244" y="591" type="curve" smooth="yes"/>
      <point x="244" y="679"/>
      <point x="210" y="743"/>
      <point x="144" y="743" type="curve" smooth="yes"/>
      <point x="76" y="743"/>
      <point x="45" y="679"/>
      <point x="45" y="591" type="curve" smooth="yes"/>
      <point x="45" y="502"/>
      <point x="76" y="440"/>
    </contour>
    <contour>
      <point x="147" y="472" type="curve" smooth="yes"/>
      <point x="98" y="472"/>
      <point x="75" y="525"/>
      <point x="75" y="593" type="curve" smooth="yes"/>
      <point x="75" y="663"/>
      <point x="99" y="711"/>
      <point x="147" y="711" type="curve" smooth="yes"/>
      <point x="191" y="711"/>
      <point x="213" y="663"/>
      <point x="213" y="593" type="curve" smooth="yes"/>
      <point x="213" y="525"/>
      <point x="192" y="472"/>
    </contour>
  </outline>
</glyph>
<glyph name="ordmasculine" format="2">
  <advance width="336"/>
  <unicode hex="00BA"/>
  <outline>
    <contour>
      <point x="168" y="380" type="curve" smooth="yes"/>
      <point x="262" y="380"/>
      <point x="311" y="436"/>
      <point x="311" y="550" type="curve"/>
      <point x="311" y="664"/>
      <point x="258" y="719"/>
      <point x="170" y="719" type="curve" smooth="yes"/>
      <point x="75" y="719"/>
      <point x="25" y="664"/>
      <point x="25" y="550" type="curve" smooth="yes"/>
      <point x="25" y="436"/>
      <point x="77" y="380"/>
    </contour>
    <contour>
      <point x="169" y="427" type="curve" smooth="yes"/>
      <point x="137" y="427"/>
      <point x="126" y="469"/>
      <point x="126" y="550" type="curve"/>
      <point x="126" y="630"/>
      <point x="137" y="670"/>
      <point x="168" y="670" type="curve" smooth="yes"/>
      <point x="199" y="670"/>
      <point x="211" y="630"/>
      <point x="211" y="550" type="curve" smooth="yes"/>
      <point x="211" y="469"/>
      <point x="200" y="427"/>
    </contour>
  </outline>
</glyph>
<glyph name="Aring" format="2">
  <advance width="570"/>
  <unicode hex="00C5"/>
  <anchor x="286" y="0" name="bottom"/>
  <anchor x="286" y="878" name="top"/>
  <outline>
    <contour>
      <point x="5" y="0" type="line"/>
      <point x="201" y="0" type="line"/>
      <point x="201" y="53" type="line"/>
      <point x="160" y="53" type="line" smooth="yes"/>
      <point x="157" y="53"/>
      <point x="140" y="66"/>
      <point x="140" y="90" type="curve" smooth="yes"/>
      <point x="140" y="109"/>
      <point x="146" y="137"/>
      <point x="149" y="153" type="curve" smooth="yes"/>
      <point x="165" y="235" type="line"/>
      <point x="331" y="235" type="line"/>
      <point x="352" y="139" type="line" smooth="yes"/>
      <point x="356" y="126"/>
      <point x="361" y="105"/>
      <point x="361" y="88" type="curve" smooth="yes"/>
      <point x="361" y="64"/>
      <point x="341" y="53"/>
      <point x="339" y="53" type="curve" smooth="yes"/>
      <point x="301" y="53" type="line"/>
      <point x="301" y="0" type="line"/>
      <point x="570" y="0" type="line"/>
      <point x="570" y="53" type="line"/>
      <point x="554" y="53" type="line" smooth="yes"/>
      <point x="535" y="53"/>
      <point x="513" y="68"/>
      <point x="499" y="124" type="curve" smooth="yes"/>
      <point x="361" y="684" type="line"/>
      <point x="370" y="702"/>
      <point x="376" y="729"/>
      <point x="376" y="769" type="curve" smooth="yes"/>
      <point x="376" y="840"/>
      <point x="338" y="878"/>
      <point x="289" y="878" type="curve" smooth="yes"/>
      <point x="240" y="878"/>
      <point x="202" y="840"/>
      <point x="202" y="769" type="curve" smooth="yes"/>
      <point x="202" y="729"/>
      <point x="207" y="701"/>
      <point x="217" y="684" type="curve"/>
      <point x="69" y="125" type="line" smooth="yes"/>
      <point x="54" y="65"/>
      <point x="35" y="53"/>
      <point x="9" y="53" type="curve" smooth="yes"/>
      <point x="5" y="53" type="line"/>
    </contour>
    <contour>
      <point x="182" y="296" type="line"/>
      <point x="219" y="469" type="line" smooth="yes"/>
      <point x="228" y="510"/>
      <point x="245" y="577"/>
      <point x="254" y="613" type="curve"/>
      <point x="261" y="572"/>
      <point x="273" y="509"/>
      <point x="283" y="464" type="curve" smooth="yes"/>
      <point x="314" y="296" type="line"/>
    </contour>
    <contour>
      <point x="289" y="714" type="curve" smooth="yes"/>
      <point x="263" y="713"/>
      <point x="250" y="729"/>
      <point x="250" y="769" type="curve" smooth="yes"/>
      <point x="250" y="810"/>
      <point x="267" y="825"/>
      <point x="289" y="825" type="curve" smooth="yes"/>
      <point x="308" y="825"/>
      <point x="326" y="810"/>
      <point x="326" y="769" type="curve" smooth="yes"/>
      <point x="326" y="728"/>
      <point x="310" y="714"/>
    </contour>
  </outline>
</glyph>
<glyph name="oslash" format="2">
  <advance width="462"/>
  <unicode hex="00F8"/>
  <anchor x="232" y="0" name="bottom"/>
  <anchor x="232" y="536" name="top"/>
  <outline>
    <contour>
      <point x="68" y="-40" type="line"/>
      <point x="125" y="-40" type="line"/>
      <point x="145" y="13" type="line"/>
      <point x="171" y="-2"/>
      <point x="197" y="-10"/>
      <point x="230" y="-10" type="curve" smooth="yes"/>
      <point x="364" y="-10"/>
      <point x="433" y="81"/>
      <point x="433" y="269" type="curve" smooth="yes"/>
      <point x="433" y="372"/>
      <point x="407" y="446"/>
      <point x="366" y="491" type="curve"/>
      <point x="399" y="576" type="line"/>
      <point x="341" y="576" type="line"/>
      <point x="322" y="524" type="line"/>
      <point x="296" y="540"/>
      <point x="265" y="549"/>
      <point x="233" y="549" type="curve" smooth="yes"/>
      <point x="99" y="549"/>
      <point x="29" y="457"/>
      <point x="29" y="269" type="curve" smooth="yes"/>
      <point x="29" y="164"/>
      <point x="54" y="89"/>
      <point x="102" y="43" type="curve"/>
    </contour>
    <contour>
      <point x="232" y="53" type="curve" smooth="yes"/>
      <point x="209" y="53"/>
      <point x="197" y="64"/>
      <point x="186" y="90" type="curve"/>
      <point x="288" y="365" type="line"/>
      <point x="290" y="337"/>
      <point x="290" y="305"/>
      <point x="290" y="268" type="curve" smooth="yes"/>
      <point x="290" y="126"/>
      <point x="273" y="53"/>
    </contour>
    <contour>
      <point x="173" y="162" type="line"/>
      <point x="171" y="191"/>
      <point x="171" y="227"/>
      <point x="171" y="269" type="curve" smooth="yes"/>
      <point x="171" y="412"/>
      <point x="187" y="486"/>
      <point x="231" y="486" type="curve" smooth="yes"/>
      <point x="254" y="486"/>
      <point x="268" y="472"/>
      <point x="277" y="443" type="curve"/>
    </contour>
  </outline>
</glyph>
<glyph name="thorn" format="2">
  <advance width="483"/>
  <unicode hex="00FE"/>
  <anchor x="242" y="-240" name="bottom"/>
  <anchor x="242" y="760" name="top"/>
  <outline>
    <contour>
      <point x="6" y="-240" type="line"/>
      <point x="268" y="-240" type="line"/>
      <point x="268" y="-187" type="line"/>
      <point x="249" y="-187" type="line" smooth="yes"/>
      <point x="222" y="-187"/>
      <point x="205" y="-177"/>
      <point x="205" y="-119" type="curve" smooth="yes"/>
      <point x="205" y="-53" type="line" smooth="yes"/>
      <point x="205" y="-4"/>
      <point x="203" y="45"/>
      <point x="200" y="69" type="curve"/>
      <point x="205" y="69" type="line"/>
      <point x="226" y="17"/>
      <point x="255" y="-11"/>
      <point x="310" y="-11" type="curve" smooth="yes"/>
      <point x="403" y="-11"/>
      <point x="453" y="73"/>
      <point x="453" y="266" type="curve" smooth="yes"/>
      <point x="453" y="461"/>
      <point x="401" y="546"/>
      <point x="304" y="546" type="curve" smooth="yes"/>
      <point x="249" y="546"/>
      <point x="223" y="512"/>
      <point x="201" y="459" type="curve"/>
      <point x="199" y="459" type="line"/>
      <point x="202" y="478"/>
      <point x="205" y="536"/>
      <point x="205" y="573" type="curve" smooth="yes"/>
      <point x="205" y="760" type="line"/>
      <point x="18" y="760" type="line"/>
      <point x="18" y="707" type="line"/>
      <point x="23" y="707" type="line" smooth="yes"/>
      <point x="48" y="707"/>
      <point x="62" y="698"/>
      <point x="62" y="637" type="curve" smooth="yes"/>
      <point x="62" y="-120" type="line" smooth="yes"/>
      <point x="62" y="-176"/>
      <point x="44" y="-187"/>
      <point x="17" y="-187" type="curve" smooth="yes"/>
      <point x="6" y="-187" type="line"/>
    </contour>
    <contour>
      <point x="258" y="58" type="curve" smooth="yes"/>
      <point x="216" y="58"/>
      <point x="205" y="127"/>
      <point x="205" y="267" type="curve" smooth="yes"/>
      <point x="205" y="397"/>
      <point x="216" y="475"/>
      <point x="261" y="475" type="curve" smooth="yes"/>
      <point x="297" y="475"/>
      <point x="311" y="400"/>
      <point x="311" y="266" type="curve" smooth="yes"/>
      <point x="311" y="128"/>
      <point x="297" y="58"/>
    </contour>
  </outline>
</glyph>
<glyph name="idotless" format="2">
  <advance width="271"/>
  <unicode hex="0131"/>
  <anchor x="136" y="0" name="bottom"/>
  <anchor x="136" y="536" name="top"/>
  <outline>
    <contour>
      <point x="9" y="0" type="line"/>
      <point x="257" y="0" type="line"/>
      <point x="257" y="53" type="line"/>
      <point x="249" y="53" type="line" smooth="yes"/>
      <point x="222" y="53"/>
      <point x="203" y="66"/>
      <point x="203" y="124" type="curve" smooth="yes"/>
      <point x="203" y="536" type="line"/>
      <point x="3" y="536" type="line"/>
      <point x="3" y="483" type="line"/>
      <point x="16" y="483" type="line" smooth="yes"/>
      <point x="42" y="483"/>
      <point x="62" y="470"/>
      <point x="62" y="416" type="curve" smooth="yes"/>
      <point x="62" y="125" type="line" smooth="yes"/>
      <point x="62" y="67"/>
      <point x="44" y="53"/>
      <point x="16" y="53" type="curve" smooth="yes"/>
      <point x="9" y="53" type="line"/>
    </contour>
  </outline>
</glyph>
<glyph name="lslash" format="2">
  <advance width="270"/>
  <unicode hex="0142"/>
  <anchor x="135" y="0" name="bottom"/>
  <anchor x="135" y="760" name="top"/>
  <outline>
    <contour>
      <point x="15" y="0" type="line"/>
      <point x="261" y="0" type="line"/>
      <point x="261" y="53" type="line"/>
      <point x="254" y="53" type="line" smooth="yes"/>
      <point x="228" y="53"/>
      <point x="209" y="66"/>
      <point x="209" y="124" type="curve" smooth="yes"/>
      <point x="209" y="378" type="line"/>
      <point x="269" y="432" type="line"/>
      <point x="269" y="499" type="line"/>
      <point x="209" y="444" type="line"/>
      <point x="209" y="760" type="line"/>
      <point x="15" y="760" type="line"/>
      <point x="15" y="707" type="line"/>
      <point x="21" y="707" type="line" smooth="yes"/>
      <point x="32" y="707"/>
      <point x="67" y="700"/>
      <point x="67" y="646" type="curve" smooth="yes"/>
      <point x="67" y="350" type="line"/>
      <point x="10" y="299" type="line"/>
      <point x="10" y="234" type="line"/>
      <point x="67" y="286" type="line"/>
      <point x="67" y="124" type="line" smooth="yes"/>
      <point x="67" y="66"/>
      <point x="48" y="53"/>
      <point x="21" y="53" type="curve" smooth="yes"/>
      <point x="15" y="53" type="line"/>
    </contour>
  </outline>
</glyph>
<glyph name="uni0180" format="2">
  <advance width="488"/>
  <unicode hex="0180"/>
  <anchor x="245" y="0" name="bottom"/>
  <anchor x="245" y="760" name="top"/>
  <outline>
    <contour>
      <point x="310" y="-10" type="curve" smooth="yes"/>
      <point x="406" y="-10"/>
      <point x="458" y="76"/>
      <point x="458" y="259" type="curve" smooth="yes"/>
      <point x="458" y="437"/>
      <point x="408" y="522"/>
      <point x="315" y="522" type="curve" smooth="yes"/>
      <point x="262" y="522"/>
      <point x="227" y="488"/>
      <point x="207" y="446" type="curve"/>
      <point x="208" y="446" type="line" smooth="yes"/>
      <point x="205" y="424"/>
      <point x="211" y="520"/>
      <point x="211" y="560" type="curve" smooth="yes"/>
      <point x="211" y="584" type="line"/>
      <point x="314" y="584" type="line"/>
      <point x="314" y="632" type="line"/>
      <point x="211" y="632" type="line"/>
      <point x="211" y="760" type="line"/>
      <point x="11" y="760" type="line"/>
      <point x="11" y="707" type="line"/>
      <point x="13" y="707" type="line" smooth="yes"/>
      <point x="44" y="707"/>
      <point x="67" y="699"/>
      <point x="67" y="644" type="curve" smooth="yes"/>
      <point x="67" y="632" type="line"/>
      <point x="12" y="632" type="line"/>
      <point x="12" y="584" type="line"/>
      <point x="67" y="584" type="line"/>
      <point x="67" y="123" type="line" smooth="yes"/>
      <point x="67" y="62"/>
      <point x="40" y="53"/>
      <point x="15" y="53" type="curve" smooth="yes"/>
      <point x="11" y="53" type="line"/>
      <point x="11" y="0" type="line"/>
      <point x="165" y="0" type="line"/>
      <point x="192" y="78" type="line"/>
      <point x="198" y="78" type="line"/>
      <point x="219" y="26"/>
      <point x="254" y="-10"/>
    </contour>
    <contour>
      <point x="265" y="61" type="curve" smooth="yes"/>
      <point x="222" y="61"/>
      <point x="209" y="136"/>
      <point x="209" y="261" type="curve" smooth="yes"/>
      <point x="209" y="384"/>
      <point x="220" y="453"/>
      <point x="264" y="453" type="curve" smooth="yes"/>
      <point x="300" y="453"/>
      <point x="316" y="386"/>
      <point x="316" y="262" type="curve" smooth="yes"/>
      <point x="316" y="142"/>
      <point x="300" y="61"/>
    </contour>
  </outline>
</glyph>
<glyph name="uni0187" format="2">
  <advance width="513"/>
  <unicode hex="0187"/>
  <anchor x="257" y="0" name="bottom"/>
  <anchor x="257" y="714" name="top"/>
  <outline>
    <contour>
      <point x="313" y="-10" type="curve" smooth="yes"/>
      <point x="449" y="-10"/>
      <point x="482" y="68"/>
      <point x="482" y="122" type="curve" smooth="yes"/>
      <point x="482" y="137"/>
      <point x="477" y="156"/>
      <point x="470" y="165" type="curve"/>
      <point x="446" y="118"/>
      <point x="406" y="65"/>
      <point x="335" y="65" type="curve" smooth="yes"/>
      <point x="226" y="65"/>
      <point x="192" y="158"/>
      <point x="192" y="358" type="curve" smooth="yes"/>
      <point x="192" y="549"/>
      <point x="215" y="660"/>
      <point x="294" y="660" type="curve" smooth="yes"/>
      <point x="353" y="660"/>
      <point x="369" y="589"/>
      <point x="369" y="523" type="curve"/>
      <point x="445" y="523"/>
      <point x="481" y="549"/>
      <point x="481" y="623" type="curve" smooth="yes"/>
      <point x="481" y="680" type="line" smooth="yes"/>
      <point x="481" y="760"/>
      <point x="501" y="779"/>
      <point x="529" y="779" type="curve" smooth="yes"/>
      <point x="545" y="779"/>
      <point x="561" y="772"/>
      <point x="576" y="761" type="curve"/>
      <point x="582" y="770"/>
      <point x="587" y="789"/>
      <point x="587" y="808" type="curve" smooth="yes"/>
      <point x="587" y="848"/>
      <point x="560" y="875"/>
      <point x="518" y="875" type="curve" smooth="yes"/>
      <point x="452" y="875"/>
      <point x="420" y="807"/>
      <point x="420" y="735" type="curve" smooth="yes"/>
      <point x="420" y="693" type="line"/>
      <point x="391" y="712"/>
      <point x="361" y="724"/>
      <point x="302" y="724" type="curve" smooth="yes"/>
      <point x="130" y="724"/>
      <point x="39" y="576"/>
      <point x="39" y="358" type="curve" smooth="yes"/>
      <point x="39" y="137"/>
      <point x="127" y="-10"/>
    </contour>
  </outline>
</glyph>
<glyph name="uni0193" format="2">
  <advance width="585"/>
  <unicode hex="0193"/>
  <anchor x="293" y="0" name="bottom"/>
  <anchor x="293" y="714" name="top"/>
  <outline>
    <contour>
      <point x="318" y="-10" type="curve" smooth="yes"/>
      <point x="386" y="-10"/>
      <point x="448" y="8"/>
      <point x="509" y="43" type="curve"/>
      <point x="509" y="209" type="line" smooth="yes"/>
      <point x="509" y="267"/>
      <point x="515" y="282"/>
      <point x="546" y="282" type="curve" smooth="yes"/>
      <point x="553" y="282" type="line"/>
      <point x="553" y="335" type="line"/>
      <point x="305" y="335" type="line"/>
      <point x="305" y="282" type="line"/>
      <point x="318" y="282" type="line" smooth="yes"/>
      <point x="353" y="282"/>
      <point x="364" y="267"/>
      <point x="364" y="213" type="curve" smooth="yes"/>
      <point x="364" y="64" type="line"/>
      <point x="350" y="59"/>
      <point x="337" y="56"/>
      <point x="329" y="56" type="curve" smooth="yes"/>
      <point x="228" y="56"/>
      <point x="191" y="163"/>
      <point x="191" y="358" type="curve" smooth="yes"/>
      <point x="191" y="556"/>
      <point x="226" y="660"/>
      <point x="319" y="660" type="curve" smooth="yes"/>
      <point x="374" y="660"/>
      <point x="405" y="604"/>
      <point x="405" y="524" type="curve"/>
      <point x="503" y="524"/>
      <point x="517" y="572"/>
      <point x="517" y="632" type="curve" smooth="yes"/>
      <point x="517" y="682" type="line" smooth="yes"/>
      <point x="517" y="755"/>
      <point x="536" y="779"/>
      <point x="566" y="779" type="curve" smooth="yes"/>
      <point x="582" y="779"/>
      <point x="597" y="772"/>
      <point x="611" y="761" type="curve"/>
      <point x="618" y="770"/>
      <point x="624" y="789"/>
      <point x="624" y="808" type="curve" smooth="yes"/>
      <point x="624" y="848"/>
      <point x="596" y="875"/>
      <point x="555" y="875" type="curve" smooth="yes"/>
      <point x="489" y="875"/>
      <point x="457" y="812"/>
      <point x="457" y="729" type="curve" smooth="yes"/>
      <point x="457" y="692" type="line"/>
      <point x="425" y="711"/>
      <point x="383" y="724"/>
      <point x="321" y="724" type="curve" smooth="yes"/>
      <point x="135" y="724"/>
      <point x="39" y="574"/>
      <point x="39" y="358" type="curve" smooth="yes"/>
      <point x="39" y="137"/>
      <point x="130" y="-10"/>
    </contour>
  </outline>
</glyph>
<glyph name="uni0199" format="2">
  <advance width="487"/>
  <unicode hex="0199"/>
  <anchor x="244" y="0" name="bottom"/>
  <anchor x="244" y="766" name="top"/>
  <outline>
    <contour>
      <point x="11" y="0" type="line"/>
      <point x="268" y="0" type="line"/>
      <point x="268" y="53" type="line"/>
      <point x="254" y="53" type="line"/>
      <point x="242" y="53"/>
      <point x="211" y="61"/>
      <point x="211" y="118" type="curve" smooth="yes"/>
      <point x="211" y="196" type="line"/>
      <point x="229" y="242" type="line"/>
      <point x="283" y="107" type="line" smooth="yes"/>
      <point x="317" y="17"/>
      <point x="355" y="0"/>
      <point x="477" y="0" type="curve" smooth="yes"/>
      <point x="486" y="0" type="line"/>
      <point x="486" y="53" type="line"/>
      <point x="484" y="53" type="line" smooth="yes"/>
      <point x="466" y="53"/>
      <point x="447" y="82"/>
      <point x="420" y="138" type="curve" smooth="yes"/>
      <point x="324" y="337" type="line"/>
      <point x="361" y="399" type="line" smooth="yes"/>
      <point x="395" y="460"/>
      <point x="428" y="487"/>
      <point x="460" y="487" type="curve"/>
      <point x="460" y="536" type="line"/>
      <point x="262" y="536" type="line"/>
      <point x="262" y="487" type="line"/>
      <point x="285" y="487"/>
      <point x="301" y="475"/>
      <point x="301" y="458" type="curve" smooth="yes"/>
      <point x="301" y="450"/>
      <point x="306" y="435"/>
      <point x="288" y="415" type="curve" smooth="yes"/>
      <point x="206" y="269" type="line"/>
      <point x="208" y="281"/>
      <point x="211" y="343"/>
      <point x="211" y="377" type="curve" smooth="yes"/>
      <point x="211" y="588" type="line" smooth="yes"/>
      <point x="211" y="679"/>
      <point x="221" y="708"/>
      <point x="238" y="708" type="curve" smooth="yes"/>
      <point x="259" y="708"/>
      <point x="263" y="669"/>
      <point x="263" y="618" type="curve"/>
      <point x="340" y="618"/>
      <point x="356" y="647"/>
      <point x="356" y="683" type="curve" smooth="yes"/>
      <point x="356" y="722"/>
      <point x="337" y="766"/>
      <point x="229" y="766" type="curve" smooth="yes"/>
      <point x="110" y="766"/>
      <point x="67" y="699"/>
      <point x="67" y="570" type="curve" smooth="yes"/>
      <point x="67" y="118" type="line" smooth="yes"/>
      <point x="67" y="60"/>
      <point x="35" y="53"/>
      <point x="23" y="53" type="curve" smooth="yes"/>
      <point x="11" y="53" type="line"/>
    </contour>
  </outline>
</glyph>
<glyph name="uni01A4" format="2">
  <advance width="606"/>
  <unicode hex="01A4"/>
  <anchor x="304" y="0" name="bottom"/>
  <anchor x="304" y="714" name="top"/>
  <outline>
    <contour>
      <point x="143" y="0" type="line"/>
      <point x="436" y="0" type="line"/>
      <point x="436" y="53" type="line"/>
      <point x="387" y="53" type="line" smooth="yes"/>
      <point x="369" y="53"/>
      <point x="355" y="59"/>
      <point x="355" y="113" type="curve" smooth="yes"/>
      <point x="355" y="272" type="line"/>
      <point x="370" y="272" type="line" smooth="yes"/>
      <point x="542" y="272"/>
      <point x="605" y="374"/>
      <point x="605" y="502" type="curve" smooth="yes"/>
      <point x="605" y="638"/>
      <point x="539" y="716"/>
      <point x="394" y="714" type="curve" smooth="yes"/>
      <point x="170" y="714" type="line" smooth="yes"/>
      <point x="53" y="714"/>
      <point x="6" y="653"/>
      <point x="6" y="573" type="curve" smooth="yes"/>
      <point x="6" y="520"/>
      <point x="29" y="484"/>
      <point x="70" y="484" type="curve" smooth="yes"/>
      <point x="91" y="484"/>
      <point x="103" y="492"/>
      <point x="118" y="505" type="curve"/>
      <point x="103" y="525"/>
      <point x="93" y="544"/>
      <point x="93" y="575" type="curve" smooth="yes"/>
      <point x="93" y="640"/>
      <point x="123" y="661"/>
      <point x="158" y="661" type="curve" smooth="yes"/>
      <point x="201" y="661"/>
      <point x="210" y="635"/>
      <point x="210" y="570" type="curve" smooth="yes"/>
      <point x="210" y="118" type="line" smooth="yes"/>
      <point x="210" y="60"/>
      <point x="192" y="53"/>
      <point x="171" y="53" type="curve" smooth="yes"/>
      <point x="143" y="53" type="line"/>
    </contour>
    <contour>
      <point x="354" y="330" type="line"/>
      <point x="354" y="655" type="line"/>
      <point x="373" y="655" type="line" smooth="yes"/>
      <point x="428" y="655"/>
      <point x="454" y="606"/>
      <point x="454" y="498" type="curve" smooth="yes"/>
      <point x="454" y="378"/>
      <point x="425" y="330"/>
      <point x="363" y="330" type="curve" smooth="yes"/>
    </contour>
  </outline>
</glyph>
<glyph name="uni01A5" format="2">
  <advance width="483"/>
  <unicode hex="01A5"/>
  <anchor x="242" y="-240" name="bottom"/>
  <anchor x="242" y="766" name="top"/>
  <outline>
    <contour>
      <point x="7" y="-240" type="line"/>
      <point x="268" y="-240" type="line"/>
      <point x="268" y="-187" type="line"/>
      <point x="251" y="-187" type="line" smooth="yes"/>
      <point x="224" y="-187"/>
      <point x="205" y="-177"/>
      <point x="205" y="-119" type="curve" smooth="yes"/>
      <point x="205" y="-53" type="line" smooth="yes"/>
      <point x="205" y="-6"/>
      <point x="204" y="45"/>
      <point x="200" y="69" type="curve"/>
      <point x="205" y="69" type="line"/>
      <point x="226" y="17"/>
      <point x="255" y="-11"/>
      <point x="310" y="-11" type="curve" smooth="yes"/>
      <point x="403" y="-11"/>
      <point x="454" y="74"/>
      <point x="454" y="267" type="curve" smooth="yes"/>
      <point x="454" y="461"/>
      <point x="401" y="546"/>
      <point x="306" y="546" type="curve" smooth="yes"/>
      <point x="249" y="546"/>
      <point x="223" y="510"/>
      <point x="201" y="460" type="curve"/>
      <point x="199" y="460" type="line"/>
      <point x="202" y="488"/>
      <point x="205" y="529"/>
      <point x="205" y="564" type="curve"/>
      <point x="205" y="588" type="line" smooth="yes"/>
      <point x="205" y="679"/>
      <point x="215" y="708"/>
      <point x="235" y="708" type="curve" smooth="yes"/>
      <point x="253" y="708"/>
      <point x="258" y="669"/>
      <point x="258" y="618" type="curve"/>
      <point x="335" y="618"/>
      <point x="353" y="647"/>
      <point x="353" y="683" type="curve" smooth="yes"/>
      <point x="353" y="722"/>
      <point x="331" y="766"/>
      <point x="225" y="766" type="curve" smooth="yes"/>
      <point x="106" y="766"/>
      <point x="62" y="699"/>
      <point x="62" y="570" type="curve" smooth="yes"/>
      <point x="64" y="-120" type="line" smooth="yes"/>
      <point x="64" y="-176"/>
      <point x="44" y="-187"/>
      <point x="17" y="-187" type="curve" smooth="yes"/>
      <point x="7" y="-187" type="line"/>
    </contour>
    <contour>
      <point x="260" y="58" type="curve" smooth="yes"/>
      <point x="216" y="58"/>
      <point x="205" y="127"/>
      <point x="205" y="267" type="curve" smooth="yes"/>
      <point x="205" y="395"/>
      <point x="216" y="475"/>
      <point x="261" y="475" type="curve" smooth="yes"/>
      <point x="297" y="475"/>
      <point x="311" y="401"/>
      <point x="311" y="266" type="curve" smooth="yes"/>
      <point x="311" y="126"/>
      <point x="297" y="58"/>
    </contour>
  </outline>
</glyph>
<glyph name="uni01AC" format="2">
  <advance width="496"/>
  <unicode hex="01AC"/>
  <anchor x="248" y="0" name="bottom"/>
  <anchor x="248" y="714" name="top"/>
  <outline>
    <contour>
      <point x="109" y="0" type="line"/>
      <point x="391" y="0" type="line"/>
      <point x="391" y="53" type="line"/>
      <point x="369" y="53" type="line" smooth="yes"/>
      <point x="342" y="53"/>
      <point x="324" y="60"/>
      <point x="324" y="118" type="curve" smooth="yes"/>
      <point x="324" y="653" type="line"/>
      <point x="373" y="653" type="line" smooth="yes"/>
      <point x="417" y="653"/>
      <point x="428" y="626"/>
      <point x="433" y="582" type="curve" smooth="yes"/>
      <point x="438" y="521" type="line"/>
      <point x="496" y="521" type="line"/>
      <point x="491" y="714" type="line"/>
      <point x="170" y="714" type="line" smooth="yes"/>
      <point x="53" y="714"/>
      <point x="6" y="650"/>
      <point x="6" y="566" type="curve" smooth="yes"/>
      <point x="6" y="515"/>
      <point x="29" y="477"/>
      <point x="70" y="477" type="curve" smooth="yes"/>
      <point x="91" y="477"/>
      <point x="103" y="486"/>
      <point x="118" y="498" type="curve"/>
      <point x="103" y="518"/>
      <point x="93" y="538"/>
      <point x="93" y="568" type="curve" smooth="yes"/>
      <point x="93" y="636"/>
      <point x="127" y="653"/>
      <point x="162" y="653" type="curve" smooth="yes"/>
      <point x="177" y="653" type="line"/>
      <point x="177" y="118" type="line" smooth="yes"/>
      <point x="177" y="61"/>
      <point x="159" y="53"/>
      <point x="133" y="53" type="curve" smooth="yes"/>
      <point x="109" y="53" type="line"/>
    </contour>
  </outline>
</glyph>
<glyph name="uni01B6" format="2">
  <advance width="390"/>
  <unicode hex="01B6"/>
  <anchor x="196" y="0" name="bottom"/>
  <anchor x="196" y="536" name="top"/>
  <outline>
    <contour>
      <point x="0" y="0" type="line"/>
      <point x="379" y="0" type="line"/>
      <point x="384" y="180" type="line"/>
      <point x="333" y="180" type="line"/>
      <point x="328" y="146" type="line" smooth="yes"/>
      <point x="318" y="82"/>
      <point x="303" y="63"/>
      <point x="260" y="63" type="curve" smooth="yes"/>
      <point x="157" y="63" type="line"/>
      <point x="243" y="245" type="line"/>
      <point x="359" y="245" type="line"/>
      <point x="359" y="303" type="line"/>
      <point x="277" y="303" type="line"/>
      <point x="373" y="494" type="line"/>
      <point x="373" y="536" type="line"/>
      <point x="35" y="536" type="line"/>
      <point x="25" y="376" type="line"/>
      <point x="78" y="376" type="line"/>
      <point x="85" y="403" type="line" smooth="yes"/>
      <point x="97" y="458"/>
      <point x="110" y="473"/>
      <point x="142" y="473" type="curve" smooth="yes"/>
      <point x="216" y="473" type="line"/>
      <point x="137" y="303" type="line"/>
      <point x="36" y="303" type="line"/>
      <point x="36" y="245" type="line"/>
      <point x="103" y="245" type="line"/>
      <point x="0" y="40" type="line"/>
    </contour>
  </outline>
</glyph>
<glyph name="uni01B8" format="2">
  <advance width="454"/>
  <unicode hex="01B8"/>
  <anchor x="227" y="0" name="bottom"/>
  <anchor x="227" y="714" name="top"/>
  <outline>
    <contour>
      <point x="231" y="-11" type="curve" smooth="yes"/>
      <point x="388" y="-11"/>
      <point x="435" y="69"/>
      <point x="435" y="132" type="curve" smooth="yes"/>
      <point x="435" y="189"/>
      <point x="393" y="206"/>
      <point x="341" y="208" type="curve"/>
      <point x="341" y="132"/>
      <point x="317" y="52"/>
      <point x="241" y="52" type="curve" smooth="yes"/>
      <point x="180" y="52"/>
      <point x="148" y="94"/>
      <point x="148" y="203" type="curve" smooth="yes"/>
      <point x="148" y="301"/>
      <point x="184" y="348"/>
      <point x="248" y="348" type="curve" smooth="yes"/>
      <point x="285" y="348" type="line"/>
      <point x="285" y="398" type="line"/>
      <point x="146" y="612" type="line"/>
      <point x="276" y="612" type="line" smooth="yes"/>
      <point x="321" y="612"/>
      <point x="334" y="595"/>
      <point x="337" y="542" type="curve" smooth="yes"/>
      <point x="339" y="509" type="line"/>
      <point x="398" y="509" type="line"/>
      <point x="391" y="714" type="line"/>
      <point x="48" y="714" type="line"/>
      <point x="48" y="642" type="line"/>
      <point x="201" y="409" type="line"/>
      <point x="88" y="408"/>
      <point x="13" y="334"/>
      <point x="13" y="199" type="curve" smooth="yes"/>
      <point x="13" y="57"/>
      <point x="93" y="-11"/>
    </contour>
  </outline>
</glyph>
<glyph name="uni01BB" format="2">
  <advance width="405"/>
  <unicode hex="01BB"/>
  <anchor x="203" y="0" name="bottom"/>
  <anchor x="203" y="760" name="top"/>
  <outline>
    <contour>
      <point x="19" y="0" type="line"/>
      <point x="381" y="0" type="line"/>
      <point x="385" y="209" type="line"/>
      <point x="331" y="209" type="line"/>
      <point x="325" y="179" type="line" smooth="yes"/>
      <point x="314" y="134"/>
      <point x="283" y="109"/>
      <point x="265" y="109" type="curve" smooth="yes"/>
      <point x="111" y="109" type="line"/>
      <point x="151" y="187" type="line" smooth="yes"/>
      <point x="125" y="235"/>
      <point x="231" y="289"/>
      <point x="263" y="327" type="curve"/>
      <point x="380" y="327" type="line"/>
      <point x="380" y="385" type="line"/>
      <point x="311" y="385" type="line"/>
      <point x="358" y="453"/>
      <point x="376" y="503"/>
      <point x="376" y="574" type="curve" smooth="yes"/>
      <point x="376" y="691"/>
      <point x="317" y="760"/>
      <point x="195" y="760" type="curve" smooth="yes"/>
      <point x="64" y="760"/>
      <point x="19" y="695"/>
      <point x="19" y="619" type="curve" smooth="yes"/>
      <point x="19" y="550"/>
      <point x="71" y="532"/>
      <point x="128" y="532" type="curve"/>
      <point x="128" y="647"/>
      <point x="147" y="699"/>
      <point x="183" y="699" type="curve" smooth="yes"/>
      <point x="211" y="699"/>
      <point x="231" y="666"/>
      <point x="231" y="571" type="curve" smooth="yes"/>
      <point x="231" y="495"/>
      <point x="219" y="447"/>
      <point x="191" y="385" type="curve"/>
      <point x="37" y="385" type="line"/>
      <point x="37" y="327" type="line"/>
      <point x="153" y="327" type="line"/>
      <point x="141" y="306"/>
      <point x="129" y="282"/>
      <point x="114" y="255" type="curve" smooth="yes"/>
      <point x="19" y="95" type="line"/>
    </contour>
  </outline>
</glyph>
<glyph name="uni01BD" format="2">
  <advance width="382"/>
  <unicode hex="01BD"/>
  <anchor x="191" y="0" name="bottom"/>
  <anchor x="191" y="536" name="top"/>
  <outline>
    <contour>
      <point x="166" y="-10" type="curve" smooth="yes"/>
      <point x="299" y="-10"/>
      <point x="352" y="59"/>
      <point x="352" y="177" type="curve" smooth="yes"/>
      <point x="352" y="291"/>
      <point x="291" y="329"/>
      <point x="217" y="329" type="curve" smooth="yes"/>
      <point x="201" y="329" type="line"/>
      <point x="201" y="483" type="line"/>
      <point x="244" y="483" type="line" smooth="yes"/>
      <point x="277" y="483"/>
      <point x="283" y="459"/>
      <point x="290" y="418" type="curve" smooth="yes"/>
      <point x="295" y="390" type="line"/>
      <point x="337" y="390" type="line"/>
      <point x="336" y="536" type="line"/>
      <point x="24" y="536" type="line"/>
      <point x="24" y="482" type="line"/>
      <point x="55" y="482"/>
      <point x="59" y="466"/>
      <point x="59" y="418" type="curve" smooth="yes"/>
      <point x="59" y="277" type="line"/>
      <point x="127" y="277" type="line" smooth="yes"/>
      <point x="171" y="277"/>
      <point x="212" y="260"/>
      <point x="212" y="167" type="curve" smooth="yes"/>
      <point x="212" y="88"/>
      <point x="193" y="50"/>
      <point x="147" y="50" type="curve" smooth="yes"/>
      <point x="95" y="50"/>
      <point x="87" y="101"/>
      <point x="87" y="171" type="curve"/>
      <point x="45" y="170"/>
      <point x="22" y="149"/>
      <point x="22" y="105" type="curve" smooth="yes"/>
      <point x="22" y="39"/>
      <point x="68" y="-10"/>
    </contour>
  </outline>
</glyph>
<glyph name="uni01BF" format="2">
  <advance width="483"/>
  <unicode hex="01BF"/>
  <anchor x="242" y="-240" name="bottom"/>
  <anchor x="242" y="536" name="top"/>
  <outline>
    <contour>
      <point x="6" y="-240" type="line"/>
      <point x="270" y="-240" type="line"/>
      <point x="270" y="-187" type="line"/>
      <point x="250" y="-187" type="line" smooth="yes"/>
      <point x="221" y="-187"/>
      <point x="205" y="-174"/>
      <point x="205" y="-118" type="curve"/>
      <point x="205" y="-10" type="line"/>
      <point x="296" y="14"/>
      <point x="456" y="125"/>
      <point x="456" y="337" type="curve" smooth="yes"/>
      <point x="456" y="460"/>
      <point x="410" y="546"/>
      <point x="314" y="546" type="curve" smooth="yes"/>
      <point x="248" y="546"/>
      <point x="210" y="505"/>
      <point x="195" y="460" type="curve"/>
      <point x="191" y="460" type="line"/>
      <point x="173" y="536" type="line"/>
      <point x="21" y="536" type="line"/>
      <point x="21" y="483" type="line"/>
      <point x="23" y="483" type="line" smooth="yes"/>
      <point x="46" y="483"/>
      <point x="62" y="474"/>
      <point x="62" y="413" type="curve"/>
      <point x="62" y="-119" type="line" smooth="yes"/>
      <point x="62" y="-173"/>
      <point x="44" y="-187"/>
      <point x="17" y="-187" type="curve" smooth="yes"/>
      <point x="6" y="-187" type="line"/>
    </contour>
    <contour>
      <point x="205" y="51" type="curve"/>
      <point x="205" y="292" type="line" smooth="yes"/>
      <point x="205" y="412"/>
      <point x="218" y="473"/>
      <point x="263" y="473" type="curve" smooth="yes"/>
      <point x="296" y="473"/>
      <point x="312" y="417"/>
      <point x="312" y="336" type="curve" smooth="yes"/>
      <point x="312" y="164"/>
      <point x="277" y="81"/>
    </contour>
  </outline>
</glyph>
<glyph name="eturned" format="2">
  <advance width="433"/>
  <unicode hex="01DD"/>
  <anchor x="217" y="0" name="bottom"/>
  <anchor x="217" y="536" name="top"/>
  <outline>
    <contour>
      <point x="209" y="-10" type="curve" smooth="yes"/>
      <point x="332" y="-10"/>
      <point x="403" y="85"/>
      <point x="403" y="273" type="curve" smooth="yes"/>
      <point x="403" y="448"/>
      <point x="338" y="549"/>
      <point x="200" y="549" type="curve" smooth="yes"/>
      <point x="94" y="549"/>
      <point x="47" y="501"/>
      <point x="47" y="441" type="curve" smooth="yes"/>
      <point x="47" y="420"/>
      <point x="53" y="405"/>
      <point x="71" y="393" type="curve"/>
      <point x="87" y="442"/>
      <point x="121" y="477"/>
      <point x="172" y="477" type="curve" smooth="yes"/>
      <point x="224" y="477"/>
      <point x="258" y="415"/>
      <point x="260" y="280" type="curve"/>
      <point x="26" y="280" type="line"/>
      <point x="26" y="232" type="line" smooth="yes"/>
      <point x="26" y="73"/>
      <point x="95" y="-10"/>
    </contour>
    <contour>
      <point x="206" y="53" type="curve" smooth="yes"/>
      <point x="177" y="53"/>
      <point x="165" y="115"/>
      <point x="165" y="219" type="curve"/>
      <point x="258" y="219" type="line"/>
      <point x="258" y="111"/>
      <point x="235" y="53"/>
    </contour>
  </outline>
</glyph>
<glyph name="uni0234" format="2">
  <advance width="330"/>
  <unicode hex="0234"/>
  <anchor x="166" y="0" name="bottom"/>
  <anchor x="166" y="760" name="top"/>
  <outline>
    <contour>
      <point x="78" y="-38" type="line"/>
      <point x="80" y="-6"/>
      <point x="88" y="38"/>
      <point x="104" y="70" type="curve"/>
      <point x="125" y="20"/>
      <point x="158" y="-11"/>
      <point x="213" y="-11" type="curve" smooth="yes"/>
      <point x="304" y="-11"/>
      <point x="330" y="51"/>
      <point x="330" y="116" type="curve" smooth="yes"/>
      <point x="330" y="192"/>
      <point x="291" y="232"/>
      <point x="235" y="232" type="curve" smooth="yes"/>
      <point x="226" y="232"/>
      <point x="214" y="228"/>
      <point x="209" y="227" type="curve"/>
      <point x="209" y="760" type="line"/>
      <point x="11" y="760" type="line"/>
      <point x="11" y="707" type="line"/>
      <point x="23" y="707" type="line" smooth="yes"/>
      <point x="34" y="707"/>
      <point x="67" y="700"/>
      <point x="67" y="646" type="curve" smooth="yes"/>
      <point x="67" y="237" type="line"/>
      <point x="67" y="199"/>
      <point x="70" y="166"/>
      <point x="74" y="139" type="curve"/>
      <point x="44" y="88"/>
      <point x="29" y="39"/>
      <point x="24" y="-24" type="curve"/>
    </contour>
    <contour>
      <point x="243" y="61" type="curve" smooth="yes"/>
      <point x="221" y="61"/>
      <point x="209" y="84"/>
      <point x="209" y="166" type="curve"/>
      <point x="213" y="169"/>
      <point x="221" y="171"/>
      <point x="229" y="171" type="curve" smooth="yes"/>
      <point x="251" y="171"/>
      <point x="272" y="150"/>
      <point x="272" y="115" type="curve" smooth="yes"/>
      <point x="272" y="81"/>
      <point x="259" y="61"/>
    </contour>
  </outline>
</glyph>
<glyph name="uni0236" format="2">
  <advance width="321"/>
  <unicode hex="0236"/>
  <anchor x="160" y="0" name="bottom"/>
  <anchor x="160" y="659" name="top"/>
  <outline>
    <contour>
      <point x="80" y="-38" type="line"/>
      <point x="82" y="-6"/>
      <point x="92" y="38"/>
      <point x="106" y="70" type="curve"/>
      <point x="127" y="20"/>
      <point x="162" y="-11"/>
      <point x="215" y="-11" type="curve" smooth="yes"/>
      <point x="304" y="-11"/>
      <point x="332" y="51"/>
      <point x="332" y="116" type="curve" smooth="yes"/>
      <point x="332" y="192"/>
      <point x="291" y="232"/>
      <point x="237" y="232" type="curve" smooth="yes"/>
      <point x="226" y="232"/>
      <point x="216" y="228"/>
      <point x="213" y="227" type="curve"/>
      <point x="213" y="473" type="line"/>
      <point x="302" y="473" type="line"/>
      <point x="302" y="536" type="line"/>
      <point x="213" y="536" type="line"/>
      <point x="213" y="659" type="line"/>
      <point x="131" y="659" type="line"/>
      <point x="117" y="578"/>
      <point x="77" y="526"/>
      <point x="17" y="521" type="curve"/>
      <point x="17" y="473" type="line"/>
      <point x="69" y="473" type="line"/>
      <point x="69" y="237" type="line"/>
      <point x="69" y="199"/>
      <point x="71" y="168"/>
      <point x="76" y="139" type="curve"/>
      <point x="46" y="88"/>
      <point x="31" y="35"/>
      <point x="26" y="-27" type="curve"/>
    </contour>
    <contour>
      <point x="245" y="61" type="curve" smooth="yes"/>
      <point x="223" y="61"/>
      <point x="213" y="84"/>
      <point x="213" y="166" type="curve"/>
      <point x="215" y="169"/>
      <point x="225" y="171"/>
      <point x="232" y="171" type="curve" smooth="yes"/>
      <point x="253" y="171"/>
      <point x="274" y="150"/>
      <point x="274" y="115" type="curve" smooth="yes"/>
      <point x="274" y="81"/>
      <point x="263" y="61"/>
    </contour>
  </outline>
</glyph>
<glyph name="uni0243" format="2">
  <advance width="520"/>
  <unicode hex="0243"/>
  <anchor x="260" y="0" name="bottom"/>
  <anchor x="260" y="714" name="top"/>
  <anchor x="500" y="714" name="topright"/>
  <outline>
    <contour>
      <point x="19" y="172" type="line"/>
      <point x="309" y="172" type="line"/>
      <point x="309" y="234" type="line"/>
      <point x="19" y="234" type="line"/>
    </contour>
    <component base="B"/>
  </outline>
</glyph>
<glyph name="uni0246" format="2">
  <advance width="488"/>
  <unicode hex="0246"/>
  <anchor x="245" y="0" name="bottom"/>
  <anchor x="245" y="714" name="top"/>
  <anchor x="468" y="714" name="topright"/>
  <outline>
    <contour>
      <point x="140" y="-83" type="line"/>
      <point x="202" y="-83" type="line"/>
      <point x="403" y="760" type="line"/>
      <point x="345" y="760" type="line"/>
    </contour>
    <component base="E"/>
  </outline>
</glyph>
<glyph name="uni0247" format="2">
  <advance width="433"/>
  <unicode hex="0247"/>
  <anchor x="217" y="-133" name="bottom"/>
  <anchor x="217" y="714" name="top"/>
  <anchor x="413" y="536" name="topright"/>
  <outline>
    <contour>
      <point x="95" y="-133" type="line"/>
      <point x="158" y="-133" type="line"/>
      <point x="330" y="714" type="line"/>
      <point x="271" y="714" type="line"/>
    </contour>
    <component base="e"/>
  </outline>
</glyph>
<glyph name="uni0251" format="2">
  <advance width="487"/>
  <unicode hex="0251"/>
  <anchor x="243" y="0" name="bottom"/>
  <anchor x="243" y="536" name="top"/>
  <outline>
    <contour>
      <point x="173" y="-10" type="curve" smooth="yes"/>
      <point x="230" y="-10"/>
      <point x="266" y="23"/>
      <point x="288" y="81" type="curve"/>
      <point x="291" y="81" type="line"/>
      <point x="308" y="20"/>
      <point x="336" y="-10"/>
      <point x="396" y="-10" type="curve" smooth="yes"/>
      <point x="441" y="-10"/>
      <point x="463" y="-3"/>
      <point x="478" y="2" type="curve"/>
      <point x="478" y="60" type="line"/>
      <point x="472" y="56"/>
      <point x="464" y="55"/>
      <point x="456" y="55" type="curve" smooth="yes"/>
      <point x="430" y="55"/>
      <point x="419" y="81"/>
      <point x="419" y="138" type="curve" smooth="yes"/>
      <point x="419" y="536" type="line"/>
      <point x="309" y="536" type="line"/>
      <point x="283" y="474" type="line"/>
      <point x="278" y="474" type="line"/>
      <point x="258" y="519"/>
      <point x="229" y="547"/>
      <point x="172" y="547" type="curve" smooth="yes"/>
      <point x="84" y="547"/>
      <point x="27" y="461"/>
      <point x="27" y="271" type="curve" smooth="yes"/>
      <point x="27" y="75"/>
      <point x="81" y="-10"/>
    </contour>
    <contour>
      <point x="220" y="61" type="curve" smooth="yes"/>
      <point x="184" y="61"/>
      <point x="170" y="128"/>
      <point x="170" y="267" type="curve" smooth="yes"/>
      <point x="170" y="407"/>
      <point x="184" y="478"/>
      <point x="221" y="478" type="curve" smooth="yes"/>
      <point x="264" y="478"/>
      <point x="277" y="402"/>
      <point x="277" y="268" type="curve" smooth="yes"/>
      <point x="277" y="127"/>
      <point x="264" y="61"/>
    </contour>
  </outline>
</glyph>
<glyph name="uni0255" format="2">
  <advance width="386"/>
  <unicode hex="0255"/>
  <anchor x="194" y="0" name="bottom"/>
  <anchor x="194" y="536" name="top"/>
  <outline>
    <contour>
      <point x="98" y="-42" type="line"/>
      <point x="104" y="-23"/>
      <point x="114" y="2"/>
      <point x="124" y="18" type="curve"/>
      <point x="141" y="3"/>
      <point x="180" y="-10"/>
      <point x="224" y="-10" type="curve" smooth="yes"/>
      <point x="337" y="-10"/>
      <point x="382" y="54"/>
      <point x="382" y="143" type="curve" smooth="yes"/>
      <point x="382" y="217"/>
      <point x="345" y="257"/>
      <point x="279" y="257" type="curve" smooth="yes"/>
      <point x="222" y="257"/>
      <point x="190" y="220"/>
      <point x="172" y="181" type="curve"/>
      <point x="172" y="208"/>
      <point x="171" y="231"/>
      <point x="171" y="266" type="curve" smooth="yes"/>
      <point x="171" y="438"/>
      <point x="192" y="489"/>
      <point x="222" y="489" type="curve" smooth="yes"/>
      <point x="250" y="489"/>
      <point x="259" y="429"/>
      <point x="259" y="360" type="curve"/>
      <point x="360" y="360"/>
      <point x="375" y="401"/>
      <point x="375" y="444" type="curve" smooth="yes"/>
      <point x="375" y="501"/>
      <point x="337" y="549"/>
      <point x="219" y="549" type="curve" smooth="yes"/>
      <point x="113" y="549"/>
      <point x="29" y="482"/>
      <point x="29" y="265" type="curve" smooth="yes"/>
      <point x="29" y="162"/>
      <point x="51" y="100"/>
      <point x="71" y="63" type="curve"/>
      <point x="59" y="41"/>
      <point x="44" y="11"/>
      <point x="37" y="-14" type="curve"/>
    </contour>
    <contour>
      <point x="254" y="62" type="curve" smooth="yes"/>
      <point x="216" y="62"/>
      <point x="197" y="78"/>
      <point x="185" y="109" type="curve"/>
      <point x="200" y="153"/>
      <point x="235" y="193"/>
      <point x="273" y="193" type="curve" smooth="yes"/>
      <point x="307" y="193"/>
      <point x="321" y="169"/>
      <point x="321" y="134" type="curve" smooth="yes"/>
      <point x="321" y="92"/>
      <point x="297" y="62"/>
    </contour>
  </outline>
</glyph>
<glyph name="eopenreversedhook" format="2">
  <advance width="610"/>
  <unicode hex="025D"/>
  <anchor x="262" y="0" name="bottom"/>
  <anchor x="262" y="536" name="top"/>
  <outline>
    <contour>
      <point x="541" y="204" type="curve" smooth="yes"/>
      <point x="586" y="204"/>
      <point x="616" y="239"/>
      <point x="616" y="288" type="curve" smooth="yes"/>
      <point x="616" y="316"/>
      <point x="604" y="336"/>
      <point x="590" y="345" type="curve"/>
      <point x="587" y="324"/>
      <point x="575" y="304"/>
      <point x="549" y="305" type="curve" smooth="yes"/>
      <point x="514" y="307"/>
      <point x="504" y="330"/>
      <point x="490" y="381" type="curve" smooth="yes"/>
      <point x="462" y="477" type="line"/>
      <point x="360" y="442" type="line"/>
      <point x="374" y="381" type="line"/>
      <point x="412" y="395" type="line"/>
      <point x="433" y="333" type="line" smooth="yes"/>
      <point x="461" y="256"/>
      <point x="476" y="204"/>
    </contour>
    <component base="afii10073"/>
  </outline>
</glyph>
<glyph name="uni025E" format="2">
  <advance width="457"/>
  <unicode hex="025E"/>
  <anchor x="228" y="0" name="bottom"/>
  <anchor x="228" y="536" name="top"/>
  <outline>
    <contour>
      <point x="233" y="-10" type="curve" smooth="yes"/>
      <point x="356" y="-10"/>
      <point x="429" y="60"/>
      <point x="429" y="159" type="curve" smooth="yes"/>
      <point x="429" y="241"/>
      <point x="382" y="274"/>
      <point x="319" y="284" type="curve"/>
      <point x="319" y="289" type="line"/>
      <point x="382" y="304"/>
      <point x="421" y="340"/>
      <point x="421" y="409" type="curve" smooth="yes"/>
      <point x="421" y="507"/>
      <point x="339" y="549"/>
      <point x="247" y="549" type="curve" smooth="yes"/>
      <point x="98" y="549"/>
      <point x="29" y="456"/>
      <point x="29" y="269" type="curve" smooth="yes"/>
      <point x="29" y="86"/>
      <point x="101" y="-10"/>
    </contour>
    <contour>
      <point x="237" y="50" type="curve" smooth="yes"/>
      <point x="198" y="50"/>
      <point x="174" y="105"/>
      <point x="174" y="269" type="curve" smooth="yes"/>
      <point x="174" y="413"/>
      <point x="192" y="490"/>
      <point x="237" y="490" type="curve" smooth="yes"/>
      <point x="269" y="490"/>
      <point x="280" y="451"/>
      <point x="280" y="405" type="curve" smooth="yes"/>
      <point x="280" y="350"/>
      <point x="266" y="315"/>
      <point x="227" y="315" type="curve" smooth="yes"/>
      <point x="217" y="315" type="line"/>
      <point x="217" y="252" type="line"/>
      <point x="230" y="252" type="line" smooth="yes"/>
      <point x="270" y="252"/>
      <point x="286" y="220"/>
      <point x="286" y="151" type="curve" smooth="yes"/>
      <point x="286" y="89"/>
      <point x="269" y="50"/>
    </contour>
  </outline>
</glyph>
<glyph name="uni0262" format="2">
  <advance width="481"/>
  <unicode hex="0262"/>
  <anchor x="241" y="0" name="bottom"/>
  <anchor x="241" y="536" name="top"/>
  <outline>
    <contour>
      <point x="252" y="-9" type="curve" smooth="yes"/>
      <point x="314" y="-9"/>
      <point x="381" y="6"/>
      <point x="434" y="39" type="curve"/>
      <point x="434" y="159" type="line" smooth="yes"/>
      <point x="434" y="204"/>
      <point x="438" y="222"/>
      <point x="462" y="222" type="curve" smooth="yes"/>
      <point x="470" y="222" type="line"/>
      <point x="470" y="275" type="line"/>
      <point x="255" y="275" type="line"/>
      <point x="255" y="221" type="line"/>
      <point x="265" y="221" type="line" smooth="yes"/>
      <point x="293" y="221"/>
      <point x="300" y="203"/>
      <point x="300" y="161" type="curve" smooth="yes"/>
      <point x="300" y="65" type="line"/>
      <point x="291" y="58"/>
      <point x="274" y="56"/>
      <point x="263" y="56" type="curve" smooth="yes"/>
      <point x="199" y="56"/>
      <point x="172" y="130"/>
      <point x="172" y="273" type="curve" smooth="yes"/>
      <point x="172" y="409"/>
      <point x="196" y="487"/>
      <point x="264" y="487" type="curve" smooth="yes"/>
      <point x="301" y="487"/>
      <point x="326" y="448"/>
      <point x="330" y="378" type="curve"/>
      <point x="400" y="378"/>
      <point x="434" y="399"/>
      <point x="434" y="439" type="curve" smooth="yes"/>
      <point x="434" y="504"/>
      <point x="380" y="548"/>
      <point x="267" y="548" type="curve" smooth="yes"/>
      <point x="109" y="548"/>
      <point x="30" y="439"/>
      <point x="30" y="273" type="curve" smooth="yes"/>
      <point x="30" y="90"/>
      <point x="98" y="-9"/>
    </contour>
  </outline>
</glyph>
<glyph name="uni026E" format="2">
  <advance width="558"/>
  <unicode hex="026E"/>
  <anchor x="279" y="-240" name="bottom"/>
  <anchor x="279" y="760" name="top"/>
  <outline>
    <contour>
      <point x="314" y="-240" type="curve" smooth="yes"/>
      <point x="421" y="-240"/>
      <point x="528" y="-176"/>
      <point x="528" y="-2" type="curve" smooth="yes"/>
      <point x="528" y="150"/>
      <point x="454" y="211"/>
      <point x="357" y="219" type="curve"/>
      <point x="515" y="462" type="line"/>
      <point x="515" y="536" type="line"/>
      <point x="209" y="536" type="line"/>
      <point x="209" y="760" type="line"/>
      <point x="13" y="760" type="line"/>
      <point x="13" y="707" type="line"/>
      <point x="23" y="707" type="line" smooth="yes"/>
      <point x="34" y="707"/>
      <point x="67" y="700"/>
      <point x="67" y="646" type="curve" smooth="yes"/>
      <point x="67" y="124" type="line" smooth="yes"/>
      <point x="67" y="66"/>
      <point x="48" y="53"/>
      <point x="23" y="53" type="curve" smooth="yes"/>
      <point x="13" y="53" type="line"/>
      <point x="13" y="0" type="line"/>
      <point x="261" y="0" type="line"/>
      <point x="261" y="53" type="line"/>
      <point x="255" y="53" type="line" smooth="yes"/>
      <point x="228" y="53"/>
      <point x="209" y="66"/>
      <point x="209" y="124" type="curve" smooth="yes"/>
      <point x="209" y="434" type="line"/>
      <point x="417" y="434" type="line"/>
      <point x="263" y="199" type="line"/>
      <point x="263" y="158" type="line"/>
      <point x="289" y="158" type="line" smooth="yes"/>
      <point x="349" y="158"/>
      <point x="387" y="106"/>
      <point x="387" y="-7" type="curve" smooth="yes"/>
      <point x="387" y="-139"/>
      <point x="357" y="-183"/>
      <point x="312" y="-183" type="curve" smooth="yes"/>
      <point x="249" y="-183"/>
      <point x="233" y="-115"/>
      <point x="233" y="-45" type="curve"/>
      <point x="171" y="-45"/>
      <point x="147" y="-72"/>
      <point x="147" y="-117" type="curve" smooth="yes"/>
      <point x="147" y="-170"/>
      <point x="183" y="-240"/>
    </contour>
  </outline>
</glyph>
<glyph name="uni0280" format="2">
  <advance width="494"/>
  <unicode hex="0280"/>
  <anchor x="248" y="0" name="bottom"/>
  <anchor x="248" y="536" name="top"/>
  <outline>
    <contour>
      <point x="12" y="0" type="line"/>
      <point x="238" y="0" type="line"/>
      <point x="238" y="48" type="line"/>
      <point x="223" y="48" type="line" smooth="yes"/>
      <point x="208" y="48"/>
      <point x="199" y="59"/>
      <point x="199" y="102" type="curve" smooth="yes"/>
      <point x="199" y="226" type="line"/>
      <point x="223" y="226" type="line"/>
      <point x="286" y="78" type="line" smooth="yes"/>
      <point x="313" y="12"/>
      <point x="354" y="0"/>
      <point x="430" y="0" type="curve" smooth="yes"/>
      <point x="471" y="0" type="line"/>
      <point x="471" y="48" type="line"/>
      <point x="465" y="48" type="line" smooth="yes"/>
      <point x="448" y="48"/>
      <point x="434" y="66"/>
      <point x="412" y="110" type="curve" smooth="yes"/>
      <point x="342" y="249" type="line"/>
      <point x="386" y="264"/>
      <point x="426" y="306"/>
      <point x="426" y="394" type="curve" smooth="yes"/>
      <point x="426" y="478"/>
      <point x="381" y="536"/>
      <point x="243" y="536" type="curve" smooth="yes"/>
      <point x="12" y="536" type="line"/>
      <point x="12" y="488" type="line"/>
      <point x="34" y="488" type="line" smooth="yes"/>
      <point x="55" y="488"/>
      <point x="66" y="475"/>
      <point x="66" y="432" type="curve" smooth="yes"/>
      <point x="66" y="102" type="line" smooth="yes"/>
      <point x="66" y="59"/>
      <point x="55" y="48"/>
      <point x="34" y="48" type="curve" smooth="yes"/>
      <point x="12" y="48" type="line"/>
    </contour>
    <contour>
      <point x="199" y="279" type="line"/>
      <point x="199" y="484" type="line"/>
      <point x="225" y="484" type="line" smooth="yes"/>
      <point x="260" y="484"/>
      <point x="283" y="450"/>
      <point x="283" y="385" type="curve" smooth="yes"/>
      <point x="283" y="320"/>
      <point x="266" y="279"/>
      <point x="228" y="279" type="curve" smooth="yes"/>
    </contour>
  </outline>
</glyph>
<glyph name="uni0284" format="2">
  <advance width="390"/>
  <unicode hex="0284"/>
  <anchor x="196" y="-240" name="bottom"/>
  <anchor x="196" y="764" name="top"/>
  <outline>
    <contour>
      <point x="7" y="-240" type="line"/>
      <point x="36" y="-240" type="line" smooth="yes"/>
      <point x="149" y="-240"/>
      <point x="250" y="-184"/>
      <point x="250" y="-5" type="curve" smooth="yes"/>
      <point x="250" y="212" type="line"/>
      <point x="339" y="212" type="line"/>
      <point x="339" y="269" type="line"/>
      <point x="250" y="269" type="line"/>
      <point x="250" y="584" type="line" smooth="yes"/>
      <point x="250" y="665"/>
      <point x="266" y="697"/>
      <point x="293" y="697" type="curve" smooth="yes"/>
      <point x="328" y="697"/>
      <point x="337" y="660"/>
      <point x="337" y="588" type="curve"/>
      <point x="403" y="588"/>
      <point x="449" y="609"/>
      <point x="449" y="654" type="curve" smooth="yes"/>
      <point x="449" y="708"/>
      <point x="413" y="764"/>
      <point x="300" y="764" type="curve" smooth="yes"/>
      <point x="175" y="764"/>
      <point x="108" y="706"/>
      <point x="108" y="542" type="curve" smooth="yes"/>
      <point x="108" y="269" type="line"/>
      <point x="26" y="269" type="line"/>
      <point x="26" y="212" type="line"/>
      <point x="108" y="212" type="line"/>
      <point x="108" y="0" type="line" smooth="yes"/>
      <point x="108" y="-138"/>
      <point x="91" y="-179"/>
      <point x="25" y="-179" type="curve" smooth="yes"/>
      <point x="7" y="-179" type="line"/>
    </contour>
  </outline>
</glyph>
<glyph name="uni029F" format="2">
  <advance width="393"/>
  <unicode hex="029F"/>
  <anchor x="196" y="0" name="bottom"/>
  <anchor x="196" y="536" name="top"/>
  <outline>
    <contour>
      <point x="10" y="0" type="line"/>
      <point x="379" y="0" type="line"/>
      <point x="387" y="205" type="line"/>
      <point x="342" y="205" type="line"/>
      <point x="331" y="151" type="line" smooth="yes"/>
      <point x="318" y="73"/>
      <point x="294" y="57"/>
      <point x="236" y="57" type="curve" smooth="yes"/>
      <point x="204" y="57" type="line"/>
      <point x="204" y="411" type="line" smooth="yes"/>
      <point x="204" y="469"/>
      <point x="222" y="483"/>
      <point x="249" y="483" type="curve" smooth="yes"/>
      <point x="266" y="483" type="line"/>
      <point x="266" y="536" type="line"/>
      <point x="6" y="536" type="line"/>
      <point x="6" y="483" type="line"/>
      <point x="13" y="483" type="line" smooth="yes"/>
      <point x="41" y="483"/>
      <point x="62" y="469"/>
      <point x="62" y="411" type="curve" smooth="yes"/>
      <point x="62" y="126" type="line" smooth="yes"/>
      <point x="62" y="68"/>
      <point x="45" y="53"/>
      <point x="17" y="53" type="curve" smooth="yes"/>
      <point x="10" y="53" type="line"/>
    </contour>
  </outline>
</glyph>
<glyph name="uni02A2" format="2">
  <advance width="416"/>
  <unicode hex="02A2"/>
  <anchor x="209" y="0" name="bottom"/>
  <anchor x="209" y="766" name="top"/>
  <outline>
    <contour>
      <point x="85" y="0" type="line"/>
      <point x="363" y="0" type="line"/>
      <point x="363" y="61" type="line"/>
      <point x="352" y="61" type="line" smooth="yes"/>
      <point x="325" y="61"/>
      <point x="312" y="78"/>
      <point x="312" y="131" type="curve" smooth="yes"/>
      <point x="312" y="166" type="line"/>
      <point x="376" y="166" type="line"/>
      <point x="376" y="226" type="line"/>
      <point x="312" y="226" type="line"/>
      <point x="312" y="370" type="line"/>
      <point x="243" y="422"/>
      <point x="176" y="488"/>
      <point x="176" y="604" type="curve" smooth="yes"/>
      <point x="176" y="661"/>
      <point x="195" y="699"/>
      <point x="214" y="699" type="curve" smooth="yes"/>
      <point x="242" y="699"/>
      <point x="265" y="655"/>
      <point x="265" y="530" type="curve"/>
      <point x="359" y="530"/>
      <point x="404" y="559"/>
      <point x="404" y="623" type="curve" smooth="yes"/>
      <point x="404" y="704"/>
      <point x="326" y="766"/>
      <point x="208" y="766" type="curve" smooth="yes"/>
      <point x="102" y="766"/>
      <point x="15" y="693"/>
      <point x="15" y="556" type="curve" smooth="yes"/>
      <point x="15" y="419"/>
      <point x="87" y="351"/>
      <point x="134" y="314" type="curve"/>
      <point x="134" y="226" type="line"/>
      <point x="69" y="226" type="line"/>
      <point x="69" y="166" type="line"/>
      <point x="134" y="166" type="line"/>
      <point x="134" y="131" type="line" smooth="yes"/>
      <point x="134" y="78"/>
      <point x="132" y="61"/>
      <point x="96" y="61" type="curve" smooth="yes"/>
      <point x="85" y="61" type="line"/>
    </contour>
  </outline>
</glyph>
<glyph name="uni02A4" format="2">
  <advance width="751"/>
  <unicode hex="02A4"/>
  <anchor x="376" y="-240" name="bottom"/>
  <anchor x="376" y="760" name="top"/>
  <outline>
    <contour>
      <point x="514" y="-240" type="curve" smooth="yes"/>
      <point x="621" y="-240"/>
      <point x="728" y="-176"/>
      <point x="728" y="-2" type="curve" smooth="yes"/>
      <point x="728" y="150"/>
      <point x="654" y="211"/>
      <point x="557" y="219" type="curve"/>
      <point x="715" y="462" type="line"/>
      <point x="715" y="536" type="line"/>
      <point x="419" y="536" type="line"/>
      <point x="419" y="760" type="line"/>
      <point x="213" y="760" type="line"/>
      <point x="213" y="707" type="line"/>
      <point x="221" y="707" type="line" smooth="yes"/>
      <point x="251" y="707"/>
      <point x="277" y="700"/>
      <point x="277" y="644" type="curve" smooth="yes"/>
      <point x="277" y="583" type="line" smooth="yes"/>
      <point x="277" y="547"/>
      <point x="281" y="452"/>
      <point x="276" y="472" type="curve" smooth="yes"/>
      <point x="276" y="472" type="line"/>
      <point x="255" y="515"/>
      <point x="226" y="547"/>
      <point x="173" y="547" type="curve" smooth="yes"/>
      <point x="81" y="547"/>
      <point x="27" y="460"/>
      <point x="27" y="267" type="curve" smooth="yes"/>
      <point x="27" y="75"/>
      <point x="81" y="-10"/>
      <point x="176" y="-10" type="curve" smooth="yes"/>
      <point x="231" y="-10"/>
      <point x="266" y="23"/>
      <point x="288" y="79" type="curve"/>
      <point x="292" y="79" type="line"/>
      <point x="317" y="0" type="line"/>
      <point x="477" y="0" type="line"/>
      <point x="477" y="53" type="line"/>
      <point x="471" y="53" type="line" smooth="yes"/>
      <point x="435" y="53"/>
      <point x="419" y="68"/>
      <point x="419" y="130" type="curve" smooth="yes"/>
      <point x="419" y="434" type="line"/>
      <point x="617" y="434" type="line"/>
      <point x="462" y="199" type="line"/>
      <point x="462" y="158" type="line"/>
      <point x="489" y="158" type="line" smooth="yes"/>
      <point x="549" y="158"/>
      <point x="585" y="106"/>
      <point x="585" y="-7" type="curve" smooth="yes"/>
      <point x="585" y="-139"/>
      <point x="556" y="-183"/>
      <point x="510" y="-183" type="curve" smooth="yes"/>
      <point x="449" y="-183"/>
      <point x="431" y="-115"/>
      <point x="431" y="-45" type="curve"/>
      <point x="369" y="-45"/>
      <point x="346" y="-72"/>
      <point x="346" y="-117" type="curve" smooth="yes"/>
      <point x="346" y="-170"/>
      <point x="383" y="-240"/>
    </contour>
    <contour>
      <point x="220" y="61" type="curve" smooth="yes"/>
      <point x="184" y="61"/>
      <point x="170" y="130"/>
      <point x="170" y="267" type="curve" smooth="yes"/>
      <point x="170" y="404"/>
      <point x="184" y="478"/>
      <point x="221" y="478" type="curve" smooth="yes"/>
      <point x="264" y="478"/>
      <point x="277" y="404"/>
      <point x="277" y="268" type="curve" smooth="yes"/>
      <point x="277" y="135"/>
      <point x="264" y="61"/>
    </contour>
  </outline>
</glyph>
<glyph name="dzligcurl" format="2">
  <advance width="829"/>
  <unicode hex="02A5"/>
  <anchor x="414" y="0" name="bottom"/>
  <anchor x="414" y="760" name="top"/>
  <outline>
    <contour>
      <point x="660" y="-90" type="line"/>
      <point x="664" y="-56"/>
      <point x="670" y="-28"/>
      <point x="678" y="0" type="curve"/>
      <point x="714" y="0" type="line" smooth="yes"/>
      <point x="794" y="0"/>
      <point x="824" y="48"/>
      <point x="824" y="115" type="curve" smooth="yes"/>
      <point x="824" y="172"/>
      <point x="792" y="214"/>
      <point x="745" y="214" type="curve" smooth="yes"/>
      <point x="691" y="214"/>
      <point x="654" y="168"/>
      <point x="626" y="63" type="curve"/>
      <point x="571" y="63" type="line"/>
      <point x="788" y="494" type="line"/>
      <point x="788" y="536" type="line"/>
      <point x="419" y="536" type="line"/>
      <point x="419" y="760" type="line"/>
      <point x="213" y="760" type="line"/>
      <point x="213" y="707" type="line"/>
      <point x="221" y="707" type="line" smooth="yes"/>
      <point x="251" y="707"/>
      <point x="277" y="700"/>
      <point x="277" y="644" type="curve" smooth="yes"/>
      <point x="277" y="583" type="line" smooth="yes"/>
      <point x="277" y="544"/>
      <point x="277" y="502"/>
      <point x="278" y="472" type="curve"/>
      <point x="274" y="472" type="line"/>
      <point x="255" y="515"/>
      <point x="226" y="547"/>
      <point x="173" y="547" type="curve" smooth="yes"/>
      <point x="81" y="547"/>
      <point x="27" y="460"/>
      <point x="27" y="267" type="curve" smooth="yes"/>
      <point x="27" y="75"/>
      <point x="81" y="-10"/>
      <point x="176" y="-10" type="curve" smooth="yes"/>
      <point x="231" y="-10"/>
      <point x="266" y="23"/>
      <point x="288" y="79" type="curve"/>
      <point x="292" y="79" type="line"/>
      <point x="317" y="0" type="line"/>
      <point x="608" y="0" type="line"/>
      <point x="602" y="-24"/>
      <point x="597" y="-55"/>
      <point x="593" y="-78" type="curve"/>
    </contour>
    <contour>
      <point x="220" y="61" type="curve" smooth="yes"/>
      <point x="184" y="61"/>
      <point x="170" y="130"/>
      <point x="170" y="267" type="curve" smooth="yes"/>
      <point x="170" y="404"/>
      <point x="184" y="478"/>
      <point x="221" y="478" type="curve" smooth="yes"/>
      <point x="264" y="478"/>
      <point x="277" y="404"/>
      <point x="277" y="268" type="curve" smooth="yes"/>
      <point x="277" y="135"/>
      <point x="264" y="61"/>
    </contour>
    <contour>
      <point x="695" y="61" type="line"/>
      <point x="705" y="117"/>
      <point x="720" y="151"/>
      <point x="743" y="151" type="curve" smooth="yes"/>
      <point x="755" y="151"/>
      <point x="764" y="134"/>
      <point x="764" y="114" type="curve" smooth="yes"/>
      <point x="764" y="84"/>
      <point x="753" y="61"/>
      <point x="710" y="61" type="curve" smooth="yes"/>
    </contour>
    <contour>
      <point x="419" y="55" type="line"/>
      <point x="419" y="473" type="line"/>
      <point x="629" y="473" type="line"/>
    </contour>
  </outline>
</glyph>
<glyph name="uni02A7" format="2">
  <advance width="593"/>
  <unicode hex="02A7"/>
  <anchor x="297" y="-235" name="bottom"/>
  <anchor x="297" y="764" name="top"/>
  <outline>
    <contour>
      <point x="269" y="-235" type="curve" smooth="yes"/>
      <point x="392" y="-235"/>
      <point x="459" y="-177"/>
      <point x="459" y="-13" type="curve" smooth="yes"/>
      <point x="459" y="584" type="line" smooth="yes"/>
      <point x="459" y="665"/>
      <point x="475" y="697"/>
      <point x="502" y="697" type="curve" smooth="yes"/>
      <point x="536" y="697"/>
      <point x="545" y="660"/>
      <point x="545" y="588" type="curve"/>
      <point x="610" y="588"/>
      <point x="656" y="609"/>
      <point x="656" y="654" type="curve" smooth="yes"/>
      <point x="656" y="708"/>
      <point x="622" y="764"/>
      <point x="508" y="764" type="curve" smooth="yes"/>
      <point x="386" y="764"/>
      <point x="317" y="703"/>
      <point x="317" y="559" type="curve" smooth="yes"/>
      <point x="317" y="536" type="line"/>
      <point x="213" y="536" type="line"/>
      <point x="213" y="659" type="line"/>
      <point x="131" y="659" type="line"/>
      <point x="124" y="613"/>
      <point x="111" y="584"/>
      <point x="98" y="565" type="curve" smooth="yes"/>
      <point x="84" y="544"/>
      <point x="57" y="522"/>
      <point x="17" y="521" type="curve"/>
      <point x="17" y="473" type="line"/>
      <point x="69" y="473" type="line"/>
      <point x="69" y="148" type="line" smooth="yes"/>
      <point x="69" y="30"/>
      <point x="118" y="-10"/>
      <point x="202" y="-10" type="curve" smooth="yes"/>
      <point x="249" y="-10"/>
      <point x="288" y="-1"/>
      <point x="317" y="8" type="curve"/>
      <point x="317" y="-55" type="line" smooth="yes"/>
      <point x="317" y="-136"/>
      <point x="301" y="-167"/>
      <point x="274" y="-167" type="curve" smooth="yes"/>
      <point x="241" y="-167"/>
      <point x="230" y="-131"/>
      <point x="230" y="-60" type="curve"/>
      <point x="164" y="-60"/>
      <point x="120" y="-80"/>
      <point x="120" y="-126" type="curve" smooth="yes"/>
      <point x="120" y="-179"/>
      <point x="154" y="-235"/>
    </contour>
    <contour>
      <point x="265" y="72" type="curve" smooth="yes"/>
      <point x="220" y="72"/>
      <point x="213" y="98"/>
      <point x="213" y="158" type="curve" smooth="yes"/>
      <point x="213" y="473" type="line"/>
      <point x="317" y="473" type="line"/>
      <point x="317" y="78" type="line"/>
      <point x="301" y="74"/>
      <point x="282" y="72"/>
    </contour>
  </outline>
</glyph>
<glyph name="uni02AA" format="2">
  <advance width="644"/>
  <unicode hex="02AA"/>
  <anchor x="322" y="0" name="bottom"/>
  <anchor x="322" y="760" name="top"/>
  <outline>
    <contour>
      <point x="444" y="-10" type="curve" smooth="yes"/>
      <point x="556" y="-10"/>
      <point x="614" y="57"/>
      <point x="614" y="165" type="curve" smooth="yes"/>
      <point x="614" y="247"/>
      <point x="558" y="296"/>
      <point x="502" y="322" type="curve" smooth="yes"/>
      <point x="414" y="364"/>
      <point x="395" y="386"/>
      <point x="395" y="431" type="curve" smooth="yes"/>
      <point x="395" y="473"/>
      <point x="430" y="493"/>
      <point x="446" y="493" type="curve" smooth="yes"/>
      <point x="488" y="493"/>
      <point x="520" y="454"/>
      <point x="520" y="388" type="curve"/>
      <point x="573" y="388"/>
      <point x="596" y="410"/>
      <point x="596" y="454" type="curve" smooth="yes"/>
      <point x="596" y="502"/>
      <point x="559" y="548"/>
      <point x="460" y="548" type="curve" smooth="yes"/>
      <point x="357" y="548"/>
      <point x="288" y="495"/>
      <point x="288" y="390" type="curve" smooth="yes"/>
      <point x="288" y="301"/>
      <point x="337" y="256"/>
      <point x="419" y="217" type="curve" smooth="yes"/>
      <point x="484" y="184"/>
      <point x="509" y="158"/>
      <point x="509" y="115" type="curve" smooth="yes"/>
      <point x="509" y="76"/>
      <point x="491" y="47"/>
      <point x="445" y="47" type="curve" smooth="yes"/>
      <point x="394" y="47"/>
      <point x="359" y="91"/>
      <point x="359" y="175" type="curve"/>
      <point x="316" y="175"/>
      <point x="284" y="155"/>
      <point x="284" y="102" type="curve" smooth="yes"/>
      <point x="284" y="84"/>
      <point x="287" y="68"/>
      <point x="293" y="53" type="curve"/>
      <point x="255" y="53" type="line" smooth="yes"/>
      <point x="228" y="53"/>
      <point x="209" y="66"/>
      <point x="209" y="124" type="curve" smooth="yes"/>
      <point x="209" y="760" type="line"/>
      <point x="13" y="760" type="line"/>
      <point x="13" y="707" type="line"/>
      <point x="23" y="707" type="line" smooth="yes"/>
      <point x="34" y="707"/>
      <point x="67" y="700"/>
      <point x="67" y="646" type="curve" smooth="yes"/>
      <point x="67" y="124" type="line" smooth="yes"/>
      <point x="67" y="66"/>
      <point x="48" y="53"/>
      <point x="23" y="53" type="curve" smooth="yes"/>
      <point x="13" y="53" type="line"/>
      <point x="13" y="0" type="line"/>
      <point x="365" y="0" type="line"/>
      <point x="386" y="-6"/>
      <point x="411" y="-10"/>
    </contour>
  </outline>
</glyph>
<glyph name="uni02AC" format="2">
  <advance width="447"/>
  <unicode hex="02AC"/>
  <anchor x="223" y="0" name="bottom"/>
  <anchor x="245" y="711" name="top"/>
  <outline>
    <contour>
      <point x="90" y="384" type="line"/>
      <point x="170" y="384" type="line"/>
      <point x="223" y="592" type="line"/>
      <point x="226" y="592" type="line"/>
      <point x="229" y="573"/>
      <point x="232" y="554"/>
      <point x="236" y="531" type="curve" smooth="yes"/>
      <point x="271" y="384" type="line"/>
      <point x="341" y="384" type="line"/>
      <point x="407" y="627" type="line" smooth="yes"/>
      <point x="415" y="659"/>
      <point x="423" y="673"/>
      <point x="437" y="673" type="curve" smooth="yes"/>
      <point x="444" y="673" type="line"/>
      <point x="444" y="711" type="line"/>
      <point x="332" y="711" type="line"/>
      <point x="332" y="673" type="line"/>
      <point x="338" y="673" type="line" smooth="yes"/>
      <point x="355" y="673"/>
      <point x="363" y="665"/>
      <point x="363" y="649" type="curve" smooth="yes"/>
      <point x="363" y="637"/>
      <point x="361" y="622"/>
      <point x="358" y="612" type="curve" smooth="yes"/>
      <point x="342" y="542" type="line" smooth="yes"/>
      <point x="338" y="514"/>
      <point x="333" y="494"/>
      <point x="329" y="474" type="curve"/>
      <point x="326" y="474" type="line"/>
      <point x="324" y="498"/>
      <point x="321" y="520"/>
      <point x="314" y="549" type="curve" smooth="yes"/>
      <point x="275" y="707" type="line"/>
      <point x="222" y="707" type="line"/>
      <point x="175" y="542" type="line" smooth="yes"/>
      <point x="167" y="518"/>
      <point x="164" y="499"/>
      <point x="160" y="478" type="curve"/>
      <point x="159" y="478" type="line"/>
      <point x="156" y="501"/>
      <point x="154" y="520"/>
      <point x="146" y="549" type="curve" smooth="yes"/>
      <point x="130" y="617" type="line" smooth="yes"/>
      <point x="129" y="629"/>
      <point x="125" y="643"/>
      <point x="125" y="653" type="curve" smooth="yes"/>
      <point x="125" y="663"/>
      <point x="132" y="673"/>
      <point x="148" y="673" type="curve" smooth="yes"/>
      <point x="157" y="673" type="line"/>
      <point x="157" y="711" type="line"/>
      <point x="-5" y="711" type="line"/>
      <point x="-5" y="673" type="line"/>
      <point x="13" y="673"/>
      <point x="26" y="664"/>
      <point x="30" y="645" type="curve" smooth="yes"/>
    </contour>
    <contour>
      <point x="90" y="0" type="line"/>
      <point x="170" y="0" type="line"/>
      <point x="223" y="207" type="line"/>
      <point x="226" y="207" type="line"/>
      <point x="229" y="189"/>
      <point x="232" y="169"/>
      <point x="236" y="146" type="curve" smooth="yes"/>
      <point x="271" y="0" type="line"/>
      <point x="341" y="0" type="line"/>
      <point x="407" y="243" type="line" smooth="yes"/>
      <point x="415" y="274"/>
      <point x="423" y="288"/>
      <point x="437" y="288" type="curve" smooth="yes"/>
      <point x="444" y="288" type="line"/>
      <point x="444" y="327" type="line"/>
      <point x="332" y="327" type="line"/>
      <point x="332" y="288" type="line"/>
      <point x="338" y="288" type="line" smooth="yes"/>
      <point x="355" y="288"/>
      <point x="363" y="281"/>
      <point x="363" y="265" type="curve" smooth="yes"/>
      <point x="363" y="252"/>
      <point x="361" y="238"/>
      <point x="358" y="227" type="curve" smooth="yes"/>
      <point x="342" y="157" type="line" smooth="yes"/>
      <point x="338" y="130"/>
      <point x="333" y="109"/>
      <point x="329" y="89" type="curve"/>
      <point x="326" y="89" type="line"/>
      <point x="324" y="113"/>
      <point x="321" y="136"/>
      <point x="314" y="165" type="curve" smooth="yes"/>
      <point x="275" y="322" type="line"/>
      <point x="222" y="322" type="line"/>
      <point x="175" y="157" type="line" smooth="yes"/>
      <point x="167" y="134"/>
      <point x="164" y="115"/>
      <point x="160" y="94" type="curve"/>
      <point x="159" y="94" type="line"/>
      <point x="156" y="116"/>
      <point x="154" y="136"/>
      <point x="146" y="165" type="curve" smooth="yes"/>
      <point x="130" y="233" type="line" smooth="yes"/>
      <point x="129" y="245"/>
      <point x="125" y="258"/>
      <point x="125" y="269" type="curve" smooth="yes"/>
      <point x="125" y="279"/>
      <point x="132" y="288"/>
      <point x="148" y="288" type="curve" smooth="yes"/>
      <point x="157" y="288" type="line"/>
      <point x="157" y="327" type="line"/>
      <point x="-5" y="327" type="line"/>
      <point x="-5" y="288" type="line"/>
      <point x="13" y="288"/>
      <point x="26" y="280"/>
      <point x="30" y="261" type="curve" smooth="yes"/>
    </contour>
  </outline>
</glyph>
<glyph name="uni02B9" format="2">
  <advance width="185"/>
  <unicode hex="02B9"/>
  <outline>
    <contour>
      <point x="26" y="446" type="curve"/>
      <point x="93" y="446" type="line"/>
      <point x="114" y="519"/>
      <point x="148" y="631"/>
      <point x="158" y="703" type="curve"/>
      <point x="152" y="714" type="line"/>
      <point x="47" y="714" type="line"/>
      <point x="44" y="644"/>
      <point x="36" y="526"/>
    </contour>
  </outline>
</glyph>
<glyph name="uni02BF" format="2">
  <advance width="153"/>
  <unicode hex="02BF"/>
  <outline>
    <contour>
      <point x="123" y="574" type="curve"/>
      <point x="123" y="633" type="line"/>
      <point x="103" y="633"/>
      <point x="84" y="649"/>
      <point x="84" y="688" type="curve" smooth="yes"/>
      <point x="84" y="728"/>
      <point x="103" y="743"/>
      <point x="123" y="743" type="curve"/>
      <point x="123" y="803" type="line"/>
      <point x="70" y="803"/>
      <point x="30" y="764"/>
      <point x="30" y="688" type="curve" smooth="yes"/>
      <point x="30" y="613"/>
      <point x="70" y="574"/>
    </contour>
  </outline>
</glyph>
<glyph name="uni02C4" format="2">
  <advance width="197"/>
  <unicode hex="02C4"/>
  <outline>
    <contour>
      <point x="3" y="571" type="line"/>
      <point x="49" y="571" type="line"/>
      <point x="65" y="600"/>
      <point x="87" y="640"/>
      <point x="98" y="676" type="curve"/>
      <point x="109" y="640"/>
      <point x="130" y="599"/>
      <point x="146" y="571" type="curve"/>
      <point x="194" y="571" type="line"/>
      <point x="194" y="581" type="line"/>
      <point x="164" y="636"/>
      <point x="137" y="701"/>
      <point x="115" y="783" type="curve"/>
      <point x="81" y="783" type="line"/>
      <point x="60" y="711"/>
      <point x="34" y="641"/>
      <point x="3" y="581" type="curve"/>
    </contour>
  </outline>
</glyph>
<glyph name="caron" format="2">
  <advance width="369"/>
  <unicode hex="02C7"/>
  <outline>
    <contour>
      <point x="125" y="606" type="curve"/>
      <point x="244" y="606" type="line"/>
      <point x="260" y="651"/>
      <point x="306" y="715"/>
      <point x="329" y="753" type="curve"/>
      <point x="329" y="766" type="line"/>
      <point x="263" y="766" type="line"/>
      <point x="247" y="740"/>
      <point x="206" y="700"/>
      <point x="184" y="670" type="curve"/>
      <point x="162" y="700"/>
      <point x="122" y="740"/>
      <point x="106" y="766" type="curve"/>
      <point x="40" y="766" type="line"/>
      <point x="40" y="753" type="line"/>
      <point x="63" y="715"/>
      <point x="109" y="651"/>
    </contour>
  </outline>
</glyph>
<glyph name="macron" format="2">
  <advance width="290"/>
  <unicode hex="02C9"/>
  <outline>
    <contour>
      <point x="40" y="607" type="line"/>
      <point x="250" y="607" type="line"/>
      <point x="250" y="684" type="line"/>
      <point x="40" y="684" type="line"/>
    </contour>
  </outline>
</glyph>
<glyph name="breve" format="2">
  <advance width="332"/>
  <unicode hex="02D8"/>
  <outline>
    <contour>
      <point x="167" y="606" type="curve" smooth="yes"/>
      <point x="249" y="606"/>
      <point x="292" y="686"/>
      <point x="292" y="761" type="curve"/>
      <point x="236" y="761" type="line"/>
      <point x="226" y="713"/>
      <point x="202" y="693"/>
      <point x="167" y="693" type="curve" smooth="yes"/>
      <point x="133" y="693"/>
      <point x="107" y="713"/>
      <point x="99" y="761" type="curve"/>
      <point x="40" y="761" type="line"/>
      <point x="42" y="686"/>
      <point x="85" y="606"/>
    </contour>
  </outline>
</glyph>
<glyph name="dotaccent" format="2">
  <advance width="233"/>
  <unicode hex="02D9"/>
  <outline>
    <contour>
      <point x="116" y="629" type="curve" smooth="yes"/>
      <point x="158" y="629"/>
      <point x="193" y="650"/>
      <point x="193" y="698" type="curve" smooth="yes"/>
      <point x="193" y="747"/>
      <point x="158" y="767"/>
      <point x="116" y="767" type="curve" smooth="yes"/>
      <point x="73" y="767"/>
      <point x="40" y="747"/>
      <point x="40" y="698" type="curve" smooth="yes"/>
      <point x="40" y="650"/>
      <point x="73" y="629"/>
    </contour>
  </outline>
</glyph>
<glyph name="hungarumlaut" format="2">
  <advance width="387"/>
  <unicode hex="02DD"/>
  <outline>
    <contour>
      <point x="182" y="606" type="line"/>
      <point x="243" y="606" type="line"/>
      <point x="276" y="645"/>
      <point x="331" y="721"/>
      <point x="347" y="756" type="curve"/>
      <point x="347" y="766" type="line"/>
      <point x="244" y="766" type="line"/>
      <point x="228" y="721"/>
      <point x="202" y="665"/>
      <point x="182" y="619" type="curve"/>
    </contour>
    <contour>
      <point x="40" y="606" type="line"/>
      <point x="101" y="606" type="line"/>
      <point x="132" y="645"/>
      <point x="189" y="721"/>
      <point x="204" y="756" type="curve"/>
      <point x="204" y="766" type="line"/>
      <point x="102" y="766" type="line"/>
      <point x="86" y="721"/>
      <point x="60" y="665"/>
      <point x="40" y="619" type="curve"/>
    </contour>
  </outline>
</glyph>
<glyph name="uni02EC" format="2">
  <advance width="384"/>
  <unicode hex="02EC"/>
  <outline>
    <contour>
      <point x="128" y="-229" type="curve"/>
      <point x="254" y="-229" type="line"/>
      <point x="280" y="-180"/>
      <point x="306" y="-128"/>
      <point x="344" y="-79" type="curve"/>
      <point x="344" y="-64" type="line"/>
      <point x="275" y="-64" type="line"/>
      <point x="258" y="-86"/>
      <point x="214" y="-134"/>
      <point x="192" y="-167" type="curve"/>
      <point x="172" y="-135"/>
      <point x="127" y="-86"/>
      <point x="109" y="-64" type="curve"/>
      <point x="40" y="-64" type="line"/>
      <point x="40" y="-79" type="line"/>
      <point x="76" y="-125"/>
      <point x="103" y="-178"/>
    </contour>
  </outline>
</glyph>
<glyph name="dblgravecomb" format="2">
  <unicode hex="030F"/>
  <anchor x="-266" y="536" name="_top"/>
  <anchor x="-266" y="766" name="top"/>
  <outline>
    <contour>
      <point x="-169" y="606" type="curve"/>
      <point x="-108" y="606" type="line"/>
      <point x="-108" y="619" type="line"/>
      <point x="-128" y="663"/>
      <point x="-154" y="721"/>
      <point x="-168" y="766" type="curve"/>
      <point x="-277" y="766" type="line"/>
      <point x="-277" y="756" type="line"/>
      <point x="-261" y="721"/>
      <point x="-202" y="642"/>
    </contour>
    <contour>
      <point x="-314" y="606" type="curve"/>
      <point x="-251" y="606" type="line"/>
      <point x="-251" y="619" type="line"/>
      <point x="-271" y="663"/>
      <point x="-299" y="721"/>
      <point x="-313" y="766" type="curve"/>
      <point x="-423" y="766" type="line"/>
      <point x="-423" y="756" type="line"/>
      <point x="-407" y="721"/>
      <point x="-345" y="642"/>
    </contour>
  </outline>
</glyph>
<glyph name="candraBinducomb" format="2">
  <unicode hex="0310"/>
  <anchor x="-2" y="536" name="_top"/>
  <anchor x="-2" y="879" name="top"/>
  <outline>
    <contour>
      <point x="0" y="605" type="curve"/>
      <point x="80" y="605"/>
      <point x="133" y="676"/>
      <point x="133" y="751" type="curve"/>
      <point x="71" y="751" type="line"/>
      <point x="63" y="703"/>
      <point x="36" y="683"/>
      <point x="0" y="683" type="curve" smooth="yes"/>
      <point x="-36" y="683"/>
      <point x="-63" y="703"/>
      <point x="-72" y="751" type="curve"/>
      <point x="-135" y="751" type="line"/>
      <point x="-133" y="676"/>
      <point x="-83" y="605"/>
    </contour>
    <contour>
      <point x="0" y="748" type="curve" smooth="yes"/>
      <point x="35" y="748"/>
      <point x="66" y="768"/>
      <point x="66" y="813" type="curve"/>
      <point x="66" y="860"/>
      <point x="35" y="879"/>
      <point x="0" y="879" type="curve" smooth="yes"/>
      <point x="-42" y="879"/>
      <point x="-67" y="860"/>
      <point x="-67" y="813" type="curve" smooth="yes"/>
      <point x="-67" y="768"/>
      <point x="-42" y="748"/>
    </contour>
  </outline>
</glyph>
<glyph name="dotbelowcomb" format="2">
  <unicode hex="0323"/>
  <anchor x="-215" y="0" name="_bottom"/>
  <anchor x="-215" y="-201" name="bottom"/>
  <outline>
    <contour>
      <point x="-216" y="-201" type="curve" smooth="yes"/>
      <point x="-175" y="-201"/>
      <point x="-138" y="-180"/>
      <point x="-138" y="-130" type="curve" smooth="yes"/>
      <point x="-138" y="-79"/>
      <point x="-175" y="-59"/>
      <point x="-216" y="-59" type="curve" smooth="yes"/>
      <point x="-260" y="-59"/>
      <point x="-292" y="-79"/>
      <point x="-292" y="-130" type="curve" smooth="yes"/>
      <point x="-292" y="-180"/>
      <point x="-260" y="-201"/>
    </contour>
  </outline>
</glyph>
<glyph name="commaaccent" format="2">
  <unicode hex="0326"/>
  <anchor x="2" y="0" name="_bottom"/>
  <anchor x="2" y="-221" name="bottom"/>
  <outline>
    <contour>
      <point x="-63" y="-221" type="line"/>
      <point x="-9" y="-221" type="line"/>
      <point x="17" y="-179"/>
      <point x="52" y="-113"/>
      <point x="67" y="-71" type="curve"/>
      <point x="67" y="-61" type="line"/>
      <point x="-28" y="-61" type="line"/>
      <point x="-35" y="-105"/>
      <point x="-52" y="-168"/>
      <point x="-63" y="-208" type="curve"/>
    </contour>
  </outline>
</glyph>
<glyph name="bridgebelowcomb" format="2">
  <unicode hex="032A"/>
  <anchor x="0" y="0" name="_bottom"/>
  <anchor x="0" y="-226" name="bottom"/>
  <outline>
    <contour>
      <point x="-130" y="-226" type="line"/>
      <point x="-95" y="-226" type="line"/>
      <point x="-95" y="-214" type="line" smooth="yes"/>
      <point x="-95" y="-163"/>
      <point x="-81" y="-132"/>
      <point x="-32" y="-132" type="curve" smooth="yes"/>
      <point x="32" y="-132" type="line" smooth="yes"/>
      <point x="80" y="-132"/>
      <point x="95" y="-160"/>
      <point x="95" y="-214" type="curve" smooth="yes"/>
      <point x="95" y="-226" type="line"/>
      <point x="130" y="-226" type="line"/>
      <point x="130" y="-72" type="line"/>
      <point x="-130" y="-72" type="line"/>
    </contour>
  </outline>
</glyph>
<glyph name="caronbelowcomb" format="2">
  <unicode hex="032C"/>
  <anchor x="1" y="0" name="_bottom"/>
  <anchor x="1" y="-215" name="bottom"/>
  <outline>
    <contour>
      <point x="-59" y="-215" type="curve"/>
      <point x="60" y="-215" type="line"/>
      <point x="76" y="-170"/>
      <point x="122" y="-106"/>
      <point x="145" y="-68" type="curve"/>
      <point x="145" y="-55" type="line"/>
      <point x="79" y="-55" type="line"/>
      <point x="64" y="-77"/>
      <point x="22" y="-118"/>
      <point x="0" y="-145" type="curve"/>
      <point x="-22" y="-118"/>
      <point x="-62" y="-77"/>
      <point x="-78" y="-55" type="curve"/>
      <point x="-144" y="-55" type="line"/>
      <point x="-144" y="-68" type="line"/>
      <point x="-121" y="-106"/>
      <point x="-74" y="-170"/>
    </contour>
  </outline>
</glyph>
<glyph name="circumflexbelowcomb" format="2">
  <unicode hex="032D"/>
  <anchor x="1" y="0" name="_bottom"/>
  <anchor x="1" y="-219" name="bottom"/>
  <outline>
    <contour>
      <point x="-144" y="-219" type="line"/>
      <point x="-78" y="-219" type="line"/>
      <point x="-62" y="-197"/>
      <point x="-20" y="-155"/>
      <point x="2" y="-129" type="curve"/>
      <point x="23" y="-155"/>
      <point x="64" y="-197"/>
      <point x="79" y="-219" type="curve"/>
      <point x="145" y="-219" type="line"/>
      <point x="145" y="-206" type="line"/>
      <point x="122" y="-168"/>
      <point x="76" y="-104"/>
      <point x="60" y="-59" type="curve"/>
      <point x="-59" y="-59" type="line"/>
      <point x="-74" y="-104"/>
      <point x="-121" y="-168"/>
      <point x="-144" y="-206" type="curve"/>
    </contour>
  </outline>
</glyph>
<glyph name="brevebelowcomb" format="2">
  <unicode hex="032E"/>
  <anchor x="-2" y="0" name="_bottom"/>
  <anchor x="-2" y="-214" name="bottom"/>
  <outline>
    <contour>
      <point x="0" y="-214" type="curve" smooth="yes"/>
      <point x="80" y="-214"/>
      <point x="124" y="-132"/>
      <point x="126" y="-57" type="curve"/>
      <point x="67" y="-57" type="line"/>
      <point x="58" y="-105"/>
      <point x="34" y="-125"/>
      <point x="0" y="-125" type="curve" smooth="yes"/>
      <point x="-36" y="-125"/>
      <point x="-62" y="-105"/>
      <point x="-69" y="-57" type="curve"/>
      <point x="-129" y="-57" type="line"/>
      <point x="-127" y="-132"/>
      <point x="-83" y="-214"/>
    </contour>
  </outline>
</glyph>
<glyph name="strokeshortoverlaycomb" format="2">
  <unicode hex="0335"/>
  <anchor x="1" y="287" name="_center"/>
  <outline>
    <contour>
      <point x="-151" y="250" type="line"/>
      <point x="152" y="250" type="line"/>
      <point x="152" y="322" type="line"/>
      <point x="-151" y="322" type="line"/>
    </contour>
  </outline>
</glyph>
<glyph name="ringhalfrightbelowcomb" format="2">
  <unicode hex="0339"/>
  <anchor x="0" y="0" name="_bottom"/>
  <anchor x="0" y="-240" name="bottom"/>
  <outline>
    <contour>
      <point x="-43" y="-240" type="line"/>
      <point x="5" y="-240"/>
      <point x="43" y="-202"/>
      <point x="43" y="-131" type="curve" smooth="yes"/>
      <point x="43" y="-60"/>
      <point x="5" y="-22"/>
      <point x="-43" y="-22" type="curve"/>
      <point x="-43" y="-76" type="line"/>
      <point x="-23" y="-76"/>
      <point x="-4" y="-92"/>
      <point x="-4" y="-131" type="curve" smooth="yes"/>
      <point x="-4" y="-170"/>
      <point x="-23" y="-186"/>
      <point x="-43" y="-186" type="curve"/>
    </contour>
  </outline>
</glyph>
<glyph name="koroniscomb" format="2">
  <unicode hex="0343"/>
  <anchor x="5" y="536" name="_top"/>
  <anchor x="5" y="714" name="top"/>
  <outline>
    <contour>
      <point x="-60" y="554" type="line"/>
      <point x="-6" y="554" type="line"/>
      <point x="20" y="596"/>
      <point x="55" y="662"/>
      <point x="69" y="704" type="curve"/>
      <point x="69" y="714" type="line"/>
      <point x="-26" y="714" type="line"/>
      <point x="-32" y="670"/>
      <point x="-49" y="607"/>
      <point x="-60" y="567" type="curve"/>
    </contour>
  </outline>
</glyph>
<glyph name="homotheticabovecomb" format="2">
  <unicode hex="034B"/>
  <anchor x="-1" y="536" name="_top"/>
  <anchor x="-1" y="791" name="top"/>
  <outline>
    <contour>
      <point x="-89" y="669" type="curve"/>
      <point x="-96" y="669" type="line"/>
      <point x="-92" y="696"/>
      <point x="-100" y="722"/>
      <point x="-50" y="722" type="curve" smooth="yes"/>
      <point x="-36" y="722"/>
      <point x="-15" y="632"/>
      <point x="52" y="632" type="curve" smooth="yes"/>
      <point x="89" y="632"/>
      <point x="84" y="681"/>
      <point x="88" y="697" type="curve"/>
      <point x="96" y="697" type="line"/>
      <point x="94" y="670"/>
      <point x="100" y="644"/>
      <point x="53" y="644" type="curve" smooth="yes"/>
      <point x="22" y="644"/>
      <point x="1" y="734"/>
      <point x="-52" y="734" type="curve" smooth="yes"/>
      <point x="-104" y="734"/>
      <point x="-86" y="685"/>
    </contour>
    <contour>
      <point x="0" y="572" type="curve" smooth="yes"/>
      <point x="-9" y="572"/>
      <point x="-17" y="578"/>
      <point x="-17" y="598" type="curve" smooth="yes"/>
      <point x="-17" y="618"/>
      <point x="-9" y="626"/>
      <point x="0" y="626" type="curve" smooth="yes"/>
      <point x="10" y="626"/>
      <point x="15" y="618"/>
      <point x="15" y="598" type="curve" smooth="yes"/>
      <point x="15" y="578"/>
      <point x="10" y="572"/>
    </contour>
    <contour>
      <point x="0" y="739" type="curve" smooth="yes"/>
      <point x="-9" y="739"/>
      <point x="-17" y="745"/>
      <point x="-17" y="765" type="curve" smooth="yes"/>
      <point x="-17" y="783"/>
      <point x="-9" y="791"/>
      <point x="0" y="791" type="curve" smooth="yes"/>
      <point x="10" y="791"/>
      <point x="15" y="783"/>
      <point x="15" y="765" type="curve" smooth="yes"/>
      <point x="15" y="745"/>
      <point x="10" y="739"/>
    </contour>
  </outline>
</glyph>
<glyph name="arrowupbelowcomb" format="2">
  <unicode hex="034E"/>
  <anchor x="-2" y="0" name="_bottom"/>
  <anchor x="-2" y="-240" name="bottom"/>
  <outline>
    <contour>
      <point x="-28" y="-240" type="line"/>
      <point x="28" y="-240" type="line"/>
      <point x="28" y="-110" type="line"/>
      <point x="66" y="-110" type="line"/>
      <point x="0" y="-20" type="line"/>
      <point x="-68" y="-110" type="line"/>
      <point x="-28" y="-110" type="line"/>
    </contour>
  </outline>
</glyph>
<glyph name="lefthalfringabovecomb" format="2">
  <unicode hex="0351"/>
  <anchor x="1" y="536" name="_top"/>
  <anchor x="1" y="816" name="top"/>
  <outline>
    <contour>
      <point x="47" y="599" type="curve"/>
      <point x="47" y="653" type="line"/>
      <point x="26" y="653"/>
      <point x="2" y="669"/>
      <point x="2" y="707" type="curve" smooth="yes"/>
      <point x="2" y="746"/>
      <point x="23" y="760"/>
      <point x="47" y="760" type="curve"/>
      <point x="47" y="816" type="line"/>
      <point x="-1" y="816"/>
      <point x="-46" y="777"/>
      <point x="-46" y="707" type="curve" smooth="yes"/>
      <point x="-46" y="637"/>
      <point x="-1" y="599"/>
    </contour>
  </outline>
</glyph>
<glyph name="arrowheadrightbelowcomb" format="2">
  <unicode hex="0355"/>
  <anchor x="0" y="0" name="_bottom"/>
  <anchor x="0" y="-240" name="bottom"/>
  <outline>
    <contour>
      <point x="-69" y="-240" type="line"/>
      <point x="-61" y="-240" type="line"/>
      <point x="-15" y="-203"/>
      <point x="27" y="-178"/>
      <point x="69" y="-169" type="curve"/>
      <point x="69" y="-111" type="line"/>
      <point x="26" y="-96"/>
      <point x="-14" y="-76"/>
      <point x="-61" y="-40" type="curve"/>
      <point x="-69" y="-40" type="line"/>
      <point x="-69" y="-91" type="line"/>
      <point x="-51" y="-108"/>
      <point x="-26" y="-127"/>
      <point x="0" y="-140" type="curve"/>
      <point x="-29" y="-154"/>
      <point x="-57" y="-177"/>
      <point x="-69" y="-189" type="curve"/>
    </contour>
  </outline>
</glyph>
<glyph name="doublebrevebelowcomb" format="2">
  <unicode hex="035C"/>
  <anchor x="-171" y="0" name="_bottom"/>
  <anchor x="-2" y="-211" name="bottom"/>
  <outline>
    <contour>
      <point x="-2" y="-211" type="curve" smooth="yes"/>
      <point x="130" y="-211"/>
      <point x="219" y="-156"/>
      <point x="272" y="-30" type="curve"/>
      <point x="219" y="-30" type="line"/>
      <point x="164" y="-115"/>
      <point x="83" y="-143"/>
      <point x="-2" y="-143" type="curve" smooth="yes"/>
      <point x="-88" y="-143"/>
      <point x="-166" y="-115"/>
      <point x="-222" y="-30" type="curve"/>
      <point x="-274" y="-30" type="line"/>
      <point x="-222" y="-157"/>
      <point x="-132" y="-211"/>
    </contour>
  </outline>
</glyph>
<glyph name="heta" format="2">
  <advance width="339"/>
  <unicode hex="0371"/>
  <anchor x="170" y="0" name="bottom"/>
  <anchor x="170" y="536" name="top"/>
  <outline>
    <contour>
      <point x="67" y="0" type="line"/>
      <point x="209" y="0" type="line"/>
      <point x="209" y="244" type="line"/>
      <point x="332" y="244" type="line"/>
      <point x="332" y="307" type="line"/>
      <point x="209" y="307" type="line"/>
      <point x="209" y="536" type="line"/>
      <point x="11" y="536" type="line"/>
      <point x="11" y="483" type="line"/>
      <point x="21" y="483" type="line" smooth="yes"/>
      <point x="49" y="483"/>
      <point x="67" y="471"/>
      <point x="67" y="412" type="curve" smooth="yes"/>
    </contour>
  </outline>
</glyph>
<glyph name="Archaicsampi" format="2">
  <advance width="493"/>
  <unicode hex="0372"/>
  <anchor x="247" y="0" name="bottom"/>
  <anchor x="247" y="714" name="top"/>
  <outline>
    <contour>
      <point x="105" y="0" type="line"/>
      <point x="389" y="0" type="line"/>
      <point x="389" y="53" type="line"/>
      <point x="365" y="53" type="line" smooth="yes"/>
      <point x="338" y="53"/>
      <point x="320" y="60"/>
      <point x="320" y="118" type="curve" smooth="yes"/>
      <point x="320" y="653" type="line"/>
      <point x="369" y="653" type="line" smooth="yes"/>
      <point x="413" y="653"/>
      <point x="422" y="628"/>
      <point x="426" y="577" type="curve" smooth="yes"/>
      <point x="434" y="336" type="line"/>
      <point x="492" y="336" type="line"/>
      <point x="488" y="714" type="line"/>
      <point x="5" y="714" type="line"/>
      <point x="1" y="336" type="line"/>
      <point x="58" y="336" type="line"/>
      <point x="68" y="577" type="line" smooth="yes"/>
      <point x="70" y="626"/>
      <point x="81" y="653"/>
      <point x="125" y="653" type="curve" smooth="yes"/>
      <point x="173" y="653" type="line"/>
      <point x="173" y="118" type="line" smooth="yes"/>
      <point x="173" y="61"/>
      <point x="155" y="53"/>
      <point x="129" y="53" type="curve" smooth="yes"/>
      <point x="105" y="53" type="line"/>
    </contour>
  </outline>
</glyph>
<glyph name="uni0375" format="2">
  <advance width="193"/>
  <unicode hex="0375"/>
  <outline>
    <contour>
      <point x="189" y="-39" type="line"/>
      <point x="124" y="-39" type="line"/>
      <point x="94" y="-91"/>
      <point x="54" y="-185"/>
      <point x="40" y="-230" type="curve"/>
      <point x="40" y="-240" type="line"/>
      <point x="152" y="-240" type="line"/>
      <point x="156" y="-203"/>
      <point x="171" y="-111"/>
      <point x="189" y="-56" type="curve"/>
    </contour>
  </outline>
</glyph>
<glyph name="Pamphyliandigamma" format="2">
  <advance width="606"/>
  <unicode hex="0376"/>
  <anchor x="304" y="0" name="bottom"/>
  <anchor x="304" y="714" name="top"/>
  <outline>
    <contour>
      <point x="75" y="0" type="line"/>
      <point x="170" y="0" type="line"/>
      <point x="390" y="583" type="line"/>
      <point x="390" y="118" type="line" smooth="yes"/>
      <point x="390" y="60"/>
      <point x="380" y="53"/>
      <point x="355" y="53" type="curve" smooth="yes"/>
      <point x="324" y="53" type="line"/>
      <point x="324" y="0" type="line"/>
      <point x="597" y="0" type="line"/>
      <point x="597" y="53" type="line"/>
      <point x="574" y="53" type="line" smooth="yes"/>
      <point x="548" y="53"/>
      <point x="531" y="60"/>
      <point x="531" y="118" type="curve" smooth="yes"/>
      <point x="531" y="600" type="line" smooth="yes"/>
      <point x="531" y="653"/>
      <point x="547" y="661"/>
      <point x="566" y="661" type="curve" smooth="yes"/>
      <point x="597" y="661" type="line"/>
      <point x="597" y="714" type="line"/>
      <point x="399" y="714" type="line"/>
      <point x="216" y="212" type="line"/>
      <point x="216" y="600" type="line" smooth="yes"/>
      <point x="216" y="649"/>
      <point x="232" y="661"/>
      <point x="251" y="661" type="curve" smooth="yes"/>
      <point x="282" y="661" type="line"/>
      <point x="282" y="714" type="line"/>
      <point x="8" y="714" type="line"/>
      <point x="8" y="661" type="line"/>
      <point x="39" y="661" type="line" smooth="yes"/>
      <point x="61" y="661"/>
      <point x="75" y="648"/>
      <point x="75" y="596" type="curve" smooth="yes"/>
    </contour>
  </outline>
</glyph>
<glyph name="Theta" format="2">
  <advance width="593"/>
  <unicode hex="0398"/>
  <anchor x="297" y="0" name="bottom"/>
  <anchor x="297" y="714" name="top"/>
  <outline>
    <contour>
      <point x="298" y="-10" type="curve" smooth="yes"/>
      <point x="462" y="-10"/>
      <point x="554" y="137"/>
      <point x="554" y="358" type="curve" smooth="yes"/>
      <point x="554" y="580"/>
      <point x="462" y="725"/>
      <point x="299" y="725" type="curve" smooth="yes"/>
      <point x="123" y="725"/>
      <point x="39" y="580"/>
      <point x="39" y="359" type="curve" smooth="yes"/>
      <point x="39" y="137"/>
      <point x="123" y="-10"/>
    </contour>
    <contour>
      <point x="298" y="55" type="curve" smooth="yes"/>
      <point x="221" y="55"/>
      <point x="187" y="160"/>
      <point x="187" y="358" type="curve" smooth="yes"/>
      <point x="187" y="556"/>
      <point x="221" y="660"/>
      <point x="299" y="660" type="curve" smooth="yes"/>
      <point x="375" y="660"/>
      <point x="406" y="556"/>
      <point x="406" y="358" type="curve" smooth="yes"/>
      <point x="406" y="160"/>
      <point x="375" y="55"/>
    </contour>
    <contour>
      <point x="206" y="268" type="line"/>
      <point x="248" y="268" type="line"/>
      <point x="251" y="287" type="line" smooth="yes"/>
      <point x="256" y="311"/>
      <point x="260" y="327"/>
      <point x="291" y="327" type="curve" smooth="yes"/>
      <point x="300" y="327" type="line"/>
      <point x="331" y="327"/>
      <point x="337" y="310"/>
      <point x="342" y="287" type="curve" smooth="yes"/>
      <point x="344" y="268" type="line"/>
      <point x="388" y="268" type="line"/>
      <point x="388" y="459" type="line"/>
      <point x="344" y="459" type="line"/>
      <point x="342" y="440" type="line" smooth="yes"/>
      <point x="337" y="418"/>
      <point x="330" y="401"/>
      <point x="299" y="401" type="curve"/>
      <point x="291" y="401" type="line" smooth="yes"/>
      <point x="263" y="401"/>
      <point x="256" y="417"/>
      <point x="251" y="440" type="curve" smooth="yes"/>
      <point x="248" y="459" type="line"/>
      <point x="206" y="459" type="line"/>
    </contour>
  </outline>
</glyph>
<glyph name="Lambda" format="2">
  <advance width="518"/>
  <unicode hex="039B"/>
  <anchor x="260" y="0" name="bottom"/>
  <anchor x="260" y="714" name="top"/>
  <outline>
    <contour>
      <point x="0" y="0" type="line"/>
      <point x="186" y="0" type="line"/>
      <point x="186" y="53" type="line"/>
      <point x="146" y="53" type="line" smooth="yes"/>
      <point x="131" y="53"/>
      <point x="126" y="64"/>
      <point x="126" y="83" type="curve" smooth="yes"/>
      <point x="126" y="100"/>
      <point x="132" y="123"/>
      <point x="138" y="148" type="curve" smooth="yes"/>
      <point x="203" y="447" type="line" smooth="yes"/>
      <point x="215" y="486"/>
      <point x="219" y="521"/>
      <point x="221" y="547" type="curve"/>
      <point x="224" y="520"/>
      <point x="229" y="488"/>
      <point x="239" y="448" type="curve" smooth="yes"/>
      <point x="302" y="133" type="line" smooth="yes"/>
      <point x="306" y="116"/>
      <point x="311" y="96"/>
      <point x="311" y="81" type="curve" smooth="yes"/>
      <point x="311" y="62"/>
      <point x="303" y="53"/>
      <point x="290" y="53" type="curve" smooth="yes"/>
      <point x="256" y="53" type="line"/>
      <point x="256" y="0" type="line"/>
      <point x="518" y="0" type="line"/>
      <point x="518" y="53" type="line"/>
      <point x="495" y="53" type="line" smooth="yes"/>
      <point x="482" y="53"/>
      <point x="464" y="65"/>
      <point x="456" y="102" type="curve" smooth="yes"/>
      <point x="303" y="714" type="line"/>
      <point x="216" y="714" type="line"/>
      <point x="70" y="127" type="line" smooth="yes"/>
      <point x="57" y="69"/>
      <point x="47" y="53"/>
      <point x="27" y="53" type="curve" smooth="yes"/>
      <point x="0" y="53" type="line"/>
    </contour>
  </outline>
</glyph>
<glyph name="Phi" format="2">
  <advance width="659"/>
  <unicode hex="03A6"/>
  <anchor x="329" y="0" name="bottom"/>
  <anchor x="329" y="714" name="top"/>
  <outline>
    <contour>
      <point x="195" y="0" type="line"/>
      <point x="465" y="0" type="line"/>
      <point x="465" y="53" type="line"/>
      <point x="457" y="53" type="line" smooth="yes"/>
      <point x="423" y="53"/>
      <point x="398" y="60"/>
      <point x="398" y="114" type="curve" smooth="yes"/>
      <point x="398" y="134" type="line"/>
      <point x="418" y="134" type="line" smooth="yes"/>
      <point x="583" y="134"/>
      <point x="641" y="247"/>
      <point x="641" y="369" type="curve" smooth="yes"/>
      <point x="641" y="499"/>
      <point x="576" y="590"/>
      <point x="436" y="590" type="curve" smooth="yes"/>
      <point x="398" y="590" type="line"/>
      <point x="398" y="600" type="line" smooth="yes"/>
      <point x="398" y="654"/>
      <point x="423" y="661"/>
      <point x="457" y="661" type="curve" smooth="yes"/>
      <point x="465" y="661" type="line"/>
      <point x="465" y="714" type="line"/>
      <point x="195" y="714" type="line"/>
      <point x="195" y="661" type="line"/>
      <point x="205" y="661" type="line" smooth="yes"/>
      <point x="236" y="661"/>
      <point x="265" y="654"/>
      <point x="265" y="600" type="curve" smooth="yes"/>
      <point x="265" y="590" type="line"/>
      <point x="223" y="590" type="line" smooth="yes"/>
      <point x="86" y="590"/>
      <point x="20" y="499"/>
      <point x="20" y="369" type="curve" smooth="yes"/>
      <point x="20" y="244"/>
      <point x="78" y="134"/>
      <point x="243" y="134" type="curve" smooth="yes"/>
      <point x="265" y="134" type="line"/>
      <point x="265" y="114" type="line" smooth="yes"/>
      <point x="265" y="60"/>
      <point x="236" y="53"/>
      <point x="205" y="53" type="curve" smooth="yes"/>
      <point x="195" y="53" type="line"/>
    </contour>
    <contour>
      <point x="246" y="192" type="line" smooth="yes"/>
      <point x="182" y="192"/>
      <point x="152" y="240"/>
      <point x="152" y="367" type="curve" smooth="yes"/>
      <point x="152" y="479"/>
      <point x="182" y="533"/>
      <point x="238" y="533" type="curve" smooth="yes"/>
      <point x="265" y="533" type="line"/>
      <point x="265" y="192" type="line"/>
    </contour>
    <contour>
      <point x="398" y="192" type="line"/>
      <point x="398" y="533" type="line"/>
      <point x="423" y="533" type="line" smooth="yes"/>
      <point x="480" y="533"/>
      <point x="508" y="479"/>
      <point x="508" y="367" type="curve" smooth="yes"/>
      <point x="508" y="240"/>
      <point x="476" y="192"/>
      <point x="414" y="192" type="curve" smooth="yes"/>
    </contour>
  </outline>
</glyph>
<glyph name="kappa" format="2">
  <advance width="482"/>
  <unicode hex="03BA"/>
  <anchor x="241" y="0" name="bottom"/>
  <anchor x="241" y="536" name="top"/>
  <outline>
    <contour>
      <point x="67" y="0" type="line"/>
      <point x="211" y="0" type="line"/>
      <point x="211" y="175" type="line"/>
      <point x="229" y="231" type="line"/>
      <point x="270" y="109" type="line" smooth="yes"/>
      <point x="294" y="23"/>
      <point x="319" y="0"/>
      <point x="441" y="0" type="curve" smooth="yes"/>
      <point x="486" y="0" type="line"/>
      <point x="486" y="53" type="line"/>
      <point x="481" y="53" type="line" smooth="yes"/>
      <point x="453" y="53"/>
      <point x="433" y="76"/>
      <point x="407" y="130" type="curve" smooth="yes"/>
      <point x="311" y="331" type="line"/>
      <point x="330" y="365" type="line" smooth="yes"/>
      <point x="362" y="425"/>
      <point x="385" y="447"/>
      <point x="412" y="447" type="curve" smooth="yes"/>
      <point x="432" y="447"/>
      <point x="448" y="431"/>
      <point x="456" y="419" type="curve"/>
      <point x="463" y="428"/>
      <point x="473" y="446"/>
      <point x="473" y="468" type="curve" smooth="yes"/>
      <point x="473" y="508"/>
      <point x="454" y="541"/>
      <point x="406" y="541" type="curve" smooth="yes"/>
      <point x="352" y="541"/>
      <point x="313" y="498"/>
      <point x="253" y="350" type="curve" smooth="yes"/>
      <point x="208" y="249" type="line"/>
      <point x="209" y="264"/>
      <point x="211" y="299"/>
      <point x="211" y="330" type="curve" smooth="yes"/>
      <point x="211" y="536" type="line"/>
      <point x="11" y="536" type="line"/>
      <point x="11" y="483" type="line"/>
      <point x="23" y="483" type="line" smooth="yes"/>
      <point x="34" y="483"/>
      <point x="67" y="476"/>
      <point x="67" y="422" type="curve" smooth="yes"/>
    </contour>
  </outline>
</glyph>
<glyph name="lambda" format="2">
  <advance width="431"/>
  <unicode hex="03BB"/>
  <anchor x="216" y="0" name="bottom"/>
  <anchor x="216" y="770" name="top"/>
  <outline>
    <contour>
      <point x="-4" y="0" type="line"/>
      <point x="141" y="0" type="line"/>
      <point x="212" y="226" type="line" smooth="yes"/>
      <point x="225" y="272"/>
      <point x="247" y="341"/>
      <point x="251" y="371" type="curve"/>
      <point x="254" y="371" type="line"/>
      <point x="257" y="338"/>
      <point x="264" y="236"/>
      <point x="290" y="133" type="curve" smooth="yes"/>
      <point x="317" y="20"/>
      <point x="349" y="0"/>
      <point x="408" y="0" type="curve" smooth="yes"/>
      <point x="428" y="0" type="line"/>
      <point x="428" y="53" type="line"/>
      <point x="425" y="53" type="line" smooth="yes"/>
      <point x="401" y="53"/>
      <point x="369" y="83"/>
      <point x="337" y="235" type="curve" smooth="yes"/>
      <point x="273" y="538" type="line" smooth="yes"/>
      <point x="241" y="688"/>
      <point x="205" y="770"/>
      <point x="115" y="770" type="curve" smooth="yes"/>
      <point x="81" y="770"/>
      <point x="50" y="747"/>
      <point x="50" y="704" type="curve" smooth="yes"/>
      <point x="50" y="680"/>
      <point x="58" y="663"/>
      <point x="64" y="652" type="curve"/>
      <point x="77" y="672"/>
      <point x="94" y="693"/>
      <point x="126" y="693" type="curve" smooth="yes"/>
      <point x="164" y="693"/>
      <point x="186" y="652"/>
      <point x="207" y="539" type="curve"/>
    </contour>
  </outline>
</glyph>
<glyph name="xi" format="2">
  <advance width="386"/>
  <unicode hex="03BE"/>
  <anchor x="193" y="-204" name="bottom"/>
  <anchor x="193" y="792" name="top"/>
  <outline>
    <contour>
      <point x="199" y="-204" type="line"/>
      <point x="338" y="-180"/>
      <point x="370" y="-111"/>
      <point x="370" y="-41" type="curve" smooth="yes"/>
      <point x="370" y="33"/>
      <point x="351" y="63"/>
      <point x="271" y="88" type="curve" smooth="yes"/>
      <point x="197" y="111"/>
      <point x="166" y="139"/>
      <point x="166" y="224" type="curve" smooth="yes"/>
      <point x="166" y="315"/>
      <point x="198" y="380"/>
      <point x="232" y="405" type="curve"/>
      <point x="245" y="401"/>
      <point x="266" y="397"/>
      <point x="296" y="397" type="curve" smooth="yes"/>
      <point x="336" y="397"/>
      <point x="357" y="420"/>
      <point x="357" y="448" type="curve" smooth="yes"/>
      <point x="357" y="470"/>
      <point x="342" y="488"/>
      <point x="308" y="488" type="curve" smooth="yes"/>
      <point x="271" y="488"/>
      <point x="242" y="477"/>
      <point x="223" y="465" type="curve"/>
      <point x="202" y="479"/>
      <point x="183" y="507"/>
      <point x="183" y="553" type="curve" smooth="yes"/>
      <point x="183" y="608"/>
      <point x="203" y="636"/>
      <point x="226" y="662" type="curve"/>
      <point x="235" y="661"/>
      <point x="245" y="659"/>
      <point x="252" y="659" type="curve" smooth="yes"/>
      <point x="340" y="659"/>
      <point x="368" y="683"/>
      <point x="368" y="722" type="curve" smooth="yes"/>
      <point x="368" y="747"/>
      <point x="355" y="764"/>
      <point x="311" y="764" type="curve" smooth="yes"/>
      <point x="271" y="764"/>
      <point x="237" y="744"/>
      <point x="220" y="725" type="curve"/>
      <point x="172" y="736"/>
      <point x="108" y="765"/>
      <point x="80" y="792" type="curve"/>
      <point x="50" y="743" type="line"/>
      <point x="74" y="716"/>
      <point x="119" y="690"/>
      <point x="158" y="681" type="curve"/>
      <point x="90" y="652"/>
      <point x="55" y="612"/>
      <point x="55" y="548" type="curve" smooth="yes"/>
      <point x="55" y="482"/>
      <point x="88" y="442"/>
      <point x="182" y="432" type="curve"/>
      <point x="182" y="427" type="line"/>
      <point x="84" y="381"/>
      <point x="24" y="303"/>
      <point x="24" y="190" type="curve" smooth="yes"/>
      <point x="24" y="74"/>
      <point x="63" y="25"/>
      <point x="193" y="-10" type="curve" smooth="yes"/>
      <point x="239" y="-22"/>
      <point x="262" y="-38"/>
      <point x="262" y="-75" type="curve" smooth="yes"/>
      <point x="262" y="-116"/>
      <point x="239" y="-144"/>
      <point x="199" y="-156" type="curve"/>
    </contour>
  </outline>
</glyph>
<glyph name="pi" format="2">
  <advance width="503"/>
  <unicode hex="03C0"/>
  <anchor x="251" y="0" name="bottom"/>
  <anchor x="251" y="536" name="top"/>
  <outline>
    <contour>
      <point x="379" y="-8" type="curve" smooth="yes"/>
      <point x="414" y="-8"/>
      <point x="439" y="6"/>
      <point x="452" y="19" type="curve"/>
      <point x="452" y="79" type="line"/>
      <point x="442" y="73"/>
      <point x="428" y="67"/>
      <point x="411" y="67" type="curve"/>
      <point x="384" y="67"/>
      <point x="372" y="92"/>
      <point x="372" y="148" type="curve"/>
      <point x="372" y="218"/>
      <point x="373" y="290"/>
      <point x="384" y="410" type="curve"/>
      <point x="480" y="410" type="line"/>
      <point x="480" y="536" type="line"/>
      <point x="166" y="536" type="line"/>
      <point x="59" y="536"/>
      <point x="22" y="443"/>
      <point x="22" y="340" type="curve"/>
      <point x="74" y="340" type="line"/>
      <point x="79" y="385"/>
      <point x="92" y="410"/>
      <point x="121" y="410" type="curve"/>
      <point x="162" y="410" type="line"/>
      <point x="141" y="203" type="line" smooth="yes"/>
      <point x="130" y="98"/>
      <point x="116" y="51"/>
      <point x="64" y="51" type="curve"/>
      <point x="64" y="0" type="line"/>
      <point x="113" y="0" type="line"/>
      <point x="188" y="0"/>
      <point x="205" y="75"/>
      <point x="209" y="180" type="curve" smooth="yes"/>
      <point x="217" y="410" type="line"/>
      <point x="322" y="410" type="line"/>
      <point x="306" y="315"/>
      <point x="292" y="202"/>
      <point x="293" y="117" type="curve" smooth="yes"/>
      <point x="293" y="30"/>
      <point x="326" y="-8"/>
    </contour>
  </outline>
</glyph>
<glyph name="rho" format="2">
  <advance width="489"/>
  <unicode hex="03C1"/>
  <anchor x="245" y="-240" name="bottom"/>
  <anchor x="245" y="536" name="top"/>
  <outline>
    <contour>
      <point x="57" y="-240" type="line"/>
      <point x="197" y="-240" type="line"/>
      <point x="197" y="-49" type="line" smooth="yes"/>
      <point x="197" y="-13"/>
      <point x="196" y="17"/>
      <point x="195" y="35" type="curve"/>
      <point x="218" y="10"/>
      <point x="246" y="-11"/>
      <point x="287" y="-11" type="curve" smooth="yes"/>
      <point x="383" y="-11"/>
      <point x="460" y="72"/>
      <point x="460" y="258" type="curve" smooth="yes"/>
      <point x="460" y="445"/>
      <point x="381" y="549"/>
      <point x="257" y="549" type="curve" smooth="yes"/>
      <point x="119" y="549"/>
      <point x="57" y="449"/>
      <point x="57" y="286" type="curve" smooth="yes"/>
    </contour>
    <contour>
      <point x="250" y="56" type="curve" smooth="yes"/>
      <point x="225" y="56"/>
      <point x="209" y="79"/>
      <point x="197" y="105" type="curve"/>
      <point x="197" y="293" type="line" smooth="yes"/>
      <point x="197" y="408"/>
      <point x="210" y="486"/>
      <point x="253" y="486" type="curve" smooth="yes"/>
      <point x="298" y="486"/>
      <point x="316" y="410"/>
      <point x="316" y="259" type="curve" smooth="yes"/>
      <point x="316" y="108"/>
      <point x="290" y="56"/>
    </contour>
  </outline>
</glyph>
<glyph name="sigma" format="2">
  <advance width="488"/>
  <unicode hex="03C3"/>
  <anchor x="245" y="0" name="bottom"/>
  <anchor x="245" y="536" name="top"/>
  <outline>
    <contour>
      <point x="228" y="-10" type="curve" smooth="yes"/>
      <point x="372" y="-10"/>
      <point x="434" y="97"/>
      <point x="434" y="228" type="curve" smooth="yes"/>
      <point x="434" y="331"/>
      <point x="395" y="388"/>
      <point x="352" y="428" type="curve"/>
      <point x="475" y="428" type="line"/>
      <point x="475" y="536" type="line"/>
      <point x="278" y="536" type="line" smooth="yes"/>
      <point x="129" y="536"/>
      <point x="29" y="445"/>
      <point x="29" y="249" type="curve" smooth="yes"/>
      <point x="29" y="90"/>
      <point x="102" y="-10"/>
    </contour>
    <contour>
      <point x="234" y="51" type="curve" smooth="yes"/>
      <point x="195" y="51"/>
      <point x="172" y="122"/>
      <point x="172" y="242" type="curve" smooth="yes"/>
      <point x="172" y="378"/>
      <point x="206" y="428"/>
      <point x="256" y="428" type="curve" smooth="yes"/>
      <point x="270" y="428" type="line"/>
      <point x="280" y="396"/>
      <point x="287" y="332"/>
      <point x="287" y="227" type="curve" smooth="yes"/>
      <point x="287" y="108"/>
      <point x="269" y="51"/>
    </contour>
  </outline>
</glyph>
<glyph name="uni03D1" format="2">
  <advance width="515"/>
  <unicode hex="03D1"/>
  <outline>
    <contour>
      <point x="223" y="-10" type="curve" smooth="yes"/>
      <point x="384" y="-10"/>
      <point x="461" y="146"/>
      <point x="461" y="371" type="curve" smooth="yes"/>
      <point x="461" y="392"/>
      <point x="462" y="412"/>
      <point x="461" y="427" type="curve"/>
      <point x="510" y="427" type="line"/>
      <point x="510" y="480" type="line"/>
      <point x="459" y="480" type="line"/>
      <point x="438" y="649"/>
      <point x="383" y="764"/>
      <point x="240" y="764" type="curve" smooth="yes"/>
      <point x="143" y="764"/>
      <point x="77" y="707"/>
      <point x="77" y="610" type="curve" smooth="yes"/>
      <point x="77" y="505"/>
      <point x="152" y="430"/>
      <point x="317" y="427" type="curve"/>
      <point x="318" y="413"/>
      <point x="319" y="388"/>
      <point x="319" y="370" type="curve" smooth="yes"/>
      <point x="319" y="178"/>
      <point x="297" y="53"/>
      <point x="242" y="53" type="curve" smooth="yes"/>
      <point x="210" y="53"/>
      <point x="198" y="95"/>
      <point x="198" y="153" type="curve" smooth="yes"/>
      <point x="198" y="202"/>
      <point x="207" y="279"/>
      <point x="207" y="322" type="curve" smooth="yes"/>
      <point x="207" y="379"/>
      <point x="173" y="408"/>
      <point x="102" y="408" type="curve" smooth="yes"/>
      <point x="7" y="408" type="line"/>
      <point x="7" y="357" type="line"/>
      <point x="29" y="357" type="line" smooth="yes"/>
      <point x="57" y="357"/>
      <point x="64" y="338"/>
      <point x="64" y="310" type="curve" smooth="yes"/>
      <point x="64" y="279"/>
      <point x="55" y="214"/>
      <point x="55" y="163" type="curve" smooth="yes"/>
      <point x="55" y="72"/>
      <point x="101" y="-10"/>
    </contour>
    <contour>
      <point x="313" y="482" type="curve"/>
      <point x="275" y="485"/>
      <point x="199" y="526"/>
      <point x="199" y="620" type="curve" smooth="yes"/>
      <point x="199" y="675"/>
      <point x="216" y="702"/>
      <point x="241" y="702" type="curve" smooth="yes"/>
      <point x="281" y="702"/>
      <point x="303" y="633"/>
    </contour>
  </outline>
</glyph>
<glyph name="uni03D6" format="2">
  <advance width="737"/>
  <unicode hex="03D6"/>
  <outline>
    <contour>
      <point x="249" y="-10" type="curve" smooth="yes"/>
      <point x="328" y="-10"/>
      <point x="348" y="31"/>
      <point x="373" y="96" type="curve"/>
      <point x="397" y="32"/>
      <point x="419" y="-10"/>
      <point x="499" y="-10" type="curve" smooth="yes"/>
      <point x="588" y="-10"/>
      <point x="643" y="65"/>
      <point x="643" y="207" type="curve" smooth="yes"/>
      <point x="643" y="299"/>
      <point x="619" y="366"/>
      <point x="591" y="420" type="curve"/>
      <point x="611" y="420" type="line" smooth="yes"/>
      <point x="667" y="420"/>
      <point x="725" y="467"/>
      <point x="725" y="612" type="curve"/>
      <point x="679" y="612" type="line"/>
      <point x="679" y="565"/>
      <point x="662" y="536"/>
      <point x="620" y="536" type="curve" smooth="yes"/>
      <point x="137" y="536" type="line" smooth="yes"/>
      <point x="81" y="536"/>
      <point x="14" y="497"/>
      <point x="14" y="342" type="curve"/>
      <point x="58" y="342" type="line"/>
      <point x="58" y="389"/>
      <point x="79" y="420"/>
      <point x="121" y="420" type="curve" smooth="yes"/>
      <point x="154" y="420" type="line"/>
      <point x="129" y="370"/>
      <point x="105" y="300"/>
      <point x="105" y="207" type="curve" smooth="yes"/>
      <point x="105" y="65"/>
      <point x="160" y="-10"/>
    </contour>
    <contour>
      <point x="293" y="63" type="curve" smooth="yes"/>
      <point x="273" y="63"/>
      <point x="248" y="105"/>
      <point x="248" y="217" type="curve" smooth="yes"/>
      <point x="248" y="312"/>
      <point x="258" y="373"/>
      <point x="267" y="420" type="curve"/>
      <point x="479" y="420" type="line"/>
      <point x="488" y="373"/>
      <point x="498" y="307"/>
      <point x="498" y="218" type="curve" smooth="yes"/>
      <point x="498" y="105"/>
      <point x="471" y="63"/>
      <point x="453" y="63" type="curve" smooth="yes"/>
      <point x="437" y="63"/>
      <point x="415" y="92"/>
      <point x="408" y="151" type="curve"/>
      <point x="427" y="206"/>
      <point x="430" y="243"/>
      <point x="430" y="280" type="curve" smooth="yes"/>
      <point x="430" y="326"/>
      <point x="412" y="353"/>
      <point x="373" y="353" type="curve" smooth="yes"/>
      <point x="335" y="353"/>
      <point x="317" y="326"/>
      <point x="317" y="280" type="curve" smooth="yes"/>
      <point x="317" y="243"/>
      <point x="319" y="205"/>
      <point x="340" y="151" type="curve"/>
      <point x="331" y="92"/>
      <point x="308" y="63"/>
    </contour>
  </outline>
</glyph>
<glyph name="uni03DE" format="2">
  <advance width="342"/>
  <unicode hex="03DE"/>
  <anchor x="171" y="0" name="bottom"/>
  <anchor x="171" y="714" name="top"/>
  <outline>
    <contour>
      <point x="244" y="-9" type="curve" smooth="yes"/>
      <point x="304" y="-9"/>
      <point x="337" y="25"/>
      <point x="337" y="69" type="curve" smooth="yes"/>
      <point x="337" y="95"/>
      <point x="327" y="111"/>
      <point x="311" y="119" type="curve"/>
      <point x="301" y="105"/>
      <point x="287" y="92"/>
      <point x="267" y="92" type="curve" smooth="yes"/>
      <point x="244" y="92"/>
      <point x="229" y="110"/>
      <point x="229" y="145" type="curve" smooth="yes"/>
      <point x="229" y="203"/>
      <point x="272" y="266"/>
      <point x="331" y="346" type="curve"/>
      <point x="331" y="416" type="line"/>
      <point x="106" y="416" type="line"/>
      <point x="154" y="473"/>
      <point x="193" y="531"/>
      <point x="193" y="602" type="curve" smooth="yes"/>
      <point x="193" y="675"/>
      <point x="156" y="718"/>
      <point x="95" y="718" type="curve" smooth="yes"/>
      <point x="34" y="718"/>
      <point x="1" y="683"/>
      <point x="1" y="640" type="curve" smooth="yes"/>
      <point x="1" y="614"/>
      <point x="11" y="596"/>
      <point x="29" y="588" type="curve"/>
      <point x="37" y="604"/>
      <point x="51" y="617"/>
      <point x="71" y="617" type="curve" smooth="yes"/>
      <point x="95" y="617"/>
      <point x="110" y="599"/>
      <point x="110" y="562" type="curve" smooth="yes"/>
      <point x="110" y="509"/>
      <point x="68" y="448"/>
      <point x="7" y="374" type="curve"/>
      <point x="7" y="304" type="line"/>
      <point x="232" y="304" type="line"/>
      <point x="184" y="242"/>
      <point x="145" y="181"/>
      <point x="145" y="105" type="curve" smooth="yes"/>
      <point x="145" y="32"/>
      <point x="184" y="-9"/>
    </contour>
  </outline>
</glyph>
<glyph name="uni03F0" format="2">
  <advance width="510"/>
  <unicode hex="03F0"/>
  <anchor x="255" y="0" name="bottom"/>
  <anchor x="255" y="536" name="top"/>
  <outline>
    <contour>
      <point x="404" y="-4" type="curve" smooth="yes"/>
      <point x="465" y="-4"/>
      <point x="489" y="34"/>
      <point x="501" y="70" type="curve"/>
      <point x="455" y="70"/>
      <point x="435" y="105"/>
      <point x="435" y="186" type="curve" smooth="yes"/>
      <point x="435" y="323"/>
      <point x="460" y="448"/>
      <point x="486" y="536" type="curve"/>
      <point x="375" y="536" type="line"/>
      <point x="166" y="147" type="line"/>
      <point x="187" y="204"/>
      <point x="220" y="304"/>
      <point x="220" y="393" type="curve" smooth="yes"/>
      <point x="220" y="488"/>
      <point x="189" y="546"/>
      <point x="108" y="546" type="curve" smooth="yes"/>
      <point x="30" y="546"/>
      <point x="8" y="499"/>
      <point x="5" y="459" type="curve"/>
      <point x="51" y="459"/>
      <point x="72" y="430"/>
      <point x="72" y="332" type="curve" smooth="yes"/>
      <point x="72" y="207"/>
      <point x="41" y="88"/>
      <point x="15" y="0" type="curve"/>
      <point x="133" y="0" type="line"/>
      <point x="334" y="381" type="line"/>
      <point x="304" y="306"/>
      <point x="290" y="226"/>
      <point x="290" y="156" type="curve" smooth="yes"/>
      <point x="290" y="48"/>
      <point x="332" y="-4"/>
    </contour>
  </outline>
</glyph>
<glyph name="afii10053" format="2">
  <advance width="513"/>
  <unicode hex="0404"/>
  <anchor x="257" y="0" name="bottom"/>
  <anchor x="257" y="714" name="top"/>
  <outline>
    <contour>
      <point x="313" y="-10" type="curve" smooth="yes"/>
      <point x="449" y="-10"/>
      <point x="482" y="68"/>
      <point x="482" y="122" type="curve" smooth="yes"/>
      <point x="482" y="137"/>
      <point x="477" y="156"/>
      <point x="470" y="165" type="curve"/>
      <point x="446" y="118"/>
      <point x="406" y="65"/>
      <point x="335" y="65" type="curve" smooth="yes"/>
      <point x="234" y="65"/>
      <point x="198" y="150"/>
      <point x="192" y="329" type="curve"/>
      <point x="339" y="329" type="line"/>
      <point x="339" y="388" type="line"/>
      <point x="192" y="388" type="line"/>
      <point x="196" y="561"/>
      <point x="221" y="660"/>
      <point x="294" y="660" type="curve" smooth="yes"/>
      <point x="353" y="660"/>
      <point x="369" y="589"/>
      <point x="369" y="523" type="curve"/>
      <point x="445" y="523"/>
      <point x="481" y="558"/>
      <point x="481" y="607" type="curve" smooth="yes"/>
      <point x="481" y="671"/>
      <point x="422" y="724"/>
      <point x="302" y="724" type="curve" smooth="yes"/>
      <point x="130" y="724"/>
      <point x="39" y="576"/>
      <point x="39" y="358" type="curve" smooth="yes"/>
      <point x="39" y="137"/>
      <point x="127" y="-10"/>
    </contour>
  </outline>
</glyph>
<glyph name="afii10060" format="2">
  <advance width="672"/>
  <unicode hex="040B"/>
  <anchor x="337" y="0" name="bottom"/>
  <anchor x="337" y="714" name="top"/>
  <outline>
    <contour>
      <point x="99" y="0" type="line"/>
      <point x="365" y="0" type="line"/>
      <point x="365" y="53" type="line"/>
      <point x="340" y="53" type="line" smooth="yes"/>
      <point x="314" y="53"/>
      <point x="306" y="64"/>
      <point x="306" y="118" type="curve" smooth="yes"/>
      <point x="306" y="336" type="line"/>
      <point x="320" y="346"/>
      <point x="351" y="360"/>
      <point x="383" y="360" type="curve"/>
      <point x="447" y="360"/>
      <point x="459" y="319"/>
      <point x="459" y="215" type="curve" smooth="yes"/>
      <point x="459" y="118" type="line" smooth="yes"/>
      <point x="459" y="60"/>
      <point x="447" y="53"/>
      <point x="420" y="53" type="curve" smooth="yes"/>
      <point x="400" y="53" type="line"/>
      <point x="400" y="0" type="line"/>
      <point x="657" y="0" type="line"/>
      <point x="657" y="53" type="line"/>
      <point x="639" y="53" type="line" smooth="yes"/>
      <point x="612" y="53"/>
      <point x="604" y="64"/>
      <point x="604" y="118" type="curve" smooth="yes"/>
      <point x="604" y="222" type="line"/>
      <point x="604" y="388"/>
      <point x="540" y="438"/>
      <point x="448" y="438" type="curve" smooth="yes"/>
      <point x="381" y="438"/>
      <point x="331" y="420"/>
      <point x="306" y="408" type="curve"/>
      <point x="306" y="653" type="line"/>
      <point x="342" y="653" type="line" smooth="yes"/>
      <point x="385" y="653"/>
      <point x="397" y="626"/>
      <point x="402" y="582" type="curve" smooth="yes"/>
      <point x="407" y="521" type="line"/>
      <point x="464" y="521" type="line"/>
      <point x="460" y="714" type="line"/>
      <point x="5" y="714" type="line"/>
      <point x="1" y="521" type="line"/>
      <point x="58" y="521" type="line"/>
      <point x="65" y="582" type="line" smooth="yes"/>
      <point x="68" y="626"/>
      <point x="81" y="653"/>
      <point x="125" y="653" type="curve" smooth="yes"/>
      <point x="159" y="653" type="line"/>
      <point x="159" y="118" type="line" smooth="yes"/>
      <point x="159" y="61"/>
      <point x="146" y="53"/>
      <point x="125" y="53" type="curve" smooth="yes"/>
      <point x="99" y="53" type="line"/>
    </contour>
  </outline>
</glyph>
<glyph name="afii10021" format="2">
  <advance width="525"/>
  <unicode hex="0414"/>
  <anchor x="262" y="0" name="bottom"/>
  <anchor x="262" y="714" name="top"/>
  <outline>
    <contour>
      <point x="2" y="-210" type="line"/>
      <point x="62" y="-210" type="line"/>
      <point x="62" y="-62"/>
      <point x="76" y="0"/>
      <point x="143" y="0" type="curve" smooth="yes"/>
      <point x="371" y="0" type="line" smooth="yes"/>
      <point x="438" y="0"/>
      <point x="453" y="-62"/>
      <point x="453" y="-210" type="curve"/>
      <point x="510" y="-210" type="line"/>
      <point x="510" y="57" type="line"/>
      <point x="495" y="57" type="line" smooth="yes"/>
      <point x="461" y="57"/>
      <point x="438" y="68"/>
      <point x="438" y="134" type="curve" smooth="yes"/>
      <point x="438" y="594" type="line" smooth="yes"/>
      <point x="438" y="653"/>
      <point x="452" y="661"/>
      <point x="479" y="661" type="curve" smooth="yes"/>
      <point x="498" y="661" type="line"/>
      <point x="498" y="714" type="line"/>
      <point x="117" y="714" type="line"/>
      <point x="117" y="661" type="line"/>
      <point x="130" y="661" type="line" smooth="yes"/>
      <point x="159" y="661"/>
      <point x="175" y="654"/>
      <point x="175" y="617" type="curve" smooth="yes"/>
      <point x="175" y="475"/>
      <point x="124" y="250"/>
      <point x="47" y="61" type="curve"/>
      <point x="2" y="61" type="line"/>
    </contour>
    <contour>
      <point x="112" y="61" type="line"/>
      <point x="178" y="222"/>
      <point x="232" y="470"/>
      <point x="234" y="653" type="curve"/>
      <point x="291" y="653" type="line"/>
      <point x="291" y="61" type="line"/>
    </contour>
  </outline>
</glyph>
<glyph name="afii10040" format="2">
  <advance width="616"/>
  <unicode hex="0426"/>
  <anchor x="309" y="0" name="bottom"/>
  <anchor x="309" y="714" name="top"/>
  <outline>
    <contour>
      <point x="537" y="-210" type="curve"/>
      <point x="596" y="-210" type="line"/>
      <point x="596" y="62" type="line"/>
      <point x="564" y="62" type="line" smooth="yes"/>
      <point x="536" y="62"/>
      <point x="529" y="80"/>
      <point x="529" y="131" type="curve" smooth="yes"/>
      <point x="529" y="598" type="line" smooth="yes"/>
      <point x="529" y="650"/>
      <point x="541" y="661"/>
      <point x="567" y="661" type="curve" smooth="yes"/>
      <point x="596" y="661" type="line"/>
      <point x="596" y="714" type="line"/>
      <point x="332" y="714" type="line"/>
      <point x="332" y="661" type="line"/>
      <point x="348" y="661" type="line" smooth="yes"/>
      <point x="372" y="661"/>
      <point x="384" y="651"/>
      <point x="384" y="593" type="curve" smooth="yes"/>
      <point x="384" y="61" type="line"/>
      <point x="228" y="61" type="line"/>
      <point x="228" y="593" type="line" smooth="yes"/>
      <point x="228" y="651"/>
      <point x="238" y="661"/>
      <point x="264" y="661" type="curve" smooth="yes"/>
      <point x="279" y="661" type="line"/>
      <point x="279" y="714" type="line"/>
      <point x="16" y="714" type="line"/>
      <point x="16" y="661" type="line"/>
      <point x="44" y="661" type="line" smooth="yes"/>
      <point x="70" y="661"/>
      <point x="81" y="651"/>
      <point x="81" y="593" type="curve" smooth="yes"/>
      <point x="81" y="116" type="line" smooth="yes"/>
      <point x="81" y="64"/>
      <point x="69" y="53"/>
      <point x="44" y="53" type="curve" smooth="yes"/>
      <point x="16" y="53" type="line"/>
      <point x="16" y="0" type="line"/>
      <point x="458" y="0" type="line" smooth="yes"/>
      <point x="521" y="0"/>
      <point x="537" y="-62"/>
    </contour>
  </outline>
</glyph>
<glyph name="afii10043" format="2">
  <advance width="862"/>
  <unicode hex="0429"/>
  <anchor x="431" y="0" name="bottom"/>
  <anchor x="431" y="714" name="top"/>
  <outline>
    <contour>
      <point x="783" y="-210" type="curve"/>
      <point x="842" y="-210" type="line"/>
      <point x="842" y="62" type="line"/>
      <point x="810" y="62" type="line" smooth="yes"/>
      <point x="782" y="62"/>
      <point x="775" y="80"/>
      <point x="775" y="131" type="curve" smooth="yes"/>
      <point x="775" y="595" type="line" smooth="yes"/>
      <point x="775" y="651"/>
      <point x="786" y="661"/>
      <point x="812" y="661" type="curve" smooth="yes"/>
      <point x="839" y="661" type="line"/>
      <point x="839" y="714" type="line"/>
      <point x="587" y="714" type="line"/>
      <point x="587" y="661" type="line"/>
      <point x="599" y="661" type="line" smooth="yes"/>
      <point x="624" y="661"/>
      <point x="637" y="651"/>
      <point x="637" y="595" type="curve" smooth="yes"/>
      <point x="637" y="61" type="line"/>
      <point x="496" y="61" type="line"/>
      <point x="496" y="599" type="line" smooth="yes"/>
      <point x="496" y="653"/>
      <point x="512" y="661"/>
      <point x="538" y="661" type="curve" smooth="yes"/>
      <point x="549" y="661" type="line"/>
      <point x="549" y="714" type="line"/>
      <point x="304" y="714" type="line"/>
      <point x="304" y="661" type="line"/>
      <point x="316" y="661" type="line" smooth="yes"/>
      <point x="346" y="661"/>
      <point x="358" y="651"/>
      <point x="358" y="594" type="curve" smooth="yes"/>
      <point x="358" y="61" type="line"/>
      <point x="219" y="61" type="line"/>
      <point x="219" y="595" type="line" smooth="yes"/>
      <point x="219" y="651"/>
      <point x="232" y="661"/>
      <point x="256" y="661" type="curve" smooth="yes"/>
      <point x="269" y="661" type="line"/>
      <point x="269" y="714" type="line"/>
      <point x="16" y="714" type="line"/>
      <point x="16" y="661" type="line"/>
      <point x="44" y="661" type="line" smooth="yes"/>
      <point x="70" y="661"/>
      <point x="81" y="651"/>
      <point x="81" y="595" type="curve" smooth="yes"/>
      <point x="81" y="115" type="line" smooth="yes"/>
      <point x="81" y="63"/>
      <point x="69" y="53"/>
      <point x="44" y="53" type="curve" smooth="yes"/>
      <point x="16" y="53" type="line"/>
      <point x="16" y="0" type="line"/>
      <point x="704" y="0" type="line" smooth="yes"/>
      <point x="767" y="0"/>
      <point x="783" y="-62"/>
    </contour>
  </outline>
</glyph>
<glyph name="afii10047" format="2">
  <advance width="530"/>
  <unicode hex="042D"/>
  <anchor x="265" y="0" name="bottom"/>
  <anchor x="265" y="714" name="top"/>
  <outline>
    <contour>
      <point x="220" y="-10" type="curve" smooth="yes"/>
      <point x="391" y="-10"/>
      <point x="491" y="134"/>
      <point x="491" y="377" type="curve" smooth="yes"/>
      <point x="491" y="589"/>
      <point x="418" y="724"/>
      <point x="231" y="724" type="curve" smooth="yes"/>
      <point x="87" y="724"/>
      <point x="38" y="657"/>
      <point x="38" y="593" type="curve" smooth="yes"/>
      <point x="38" y="536"/>
      <point x="84" y="515"/>
      <point x="154" y="515" type="curve"/>
      <point x="154" y="582"/>
      <point x="168" y="660"/>
      <point x="242" y="660" type="curve" smooth="yes"/>
      <point x="314" y="660"/>
      <point x="338" y="565"/>
      <point x="339" y="388" type="curve"/>
      <point x="191" y="388" type="line"/>
      <point x="191" y="329" type="line"/>
      <point x="339" y="329" type="line"/>
      <point x="336" y="161"/>
      <point x="299" y="54"/>
      <point x="223" y="54" type="curve" smooth="yes"/>
      <point x="153" y="54"/>
      <point x="116" y="121"/>
      <point x="106" y="225" type="curve"/>
      <point x="53" y="225"/>
      <point x="23" y="191"/>
      <point x="23" y="135" type="curve" smooth="yes"/>
      <point x="23" y="60"/>
      <point x="77" y="-10"/>
    </contour>
  </outline>
</glyph>
<glyph name="afii10077" format="2">
  <advance width="495"/>
  <unicode hex="043B"/>
  <anchor x="248" y="0" name="bottom"/>
  <anchor x="248" y="536" name="top"/>
  <outline>
    <contour>
      <point x="64" y="-7" type="curve" smooth="yes"/>
      <point x="117" y="-7"/>
      <point x="149" y="33"/>
      <point x="176" y="155" type="curve" smooth="yes"/>
      <point x="196" y="249"/>
      <point x="211" y="363"/>
      <point x="220" y="479" type="curve"/>
      <point x="292" y="479" type="line"/>
      <point x="292" y="118" type="line" smooth="yes"/>
      <point x="292" y="61"/>
      <point x="262" y="53"/>
      <point x="253" y="53" type="curve" smooth="yes"/>
      <point x="239" y="53" type="line"/>
      <point x="239" y="0" type="line"/>
      <point x="486" y="0" type="line"/>
      <point x="486" y="53" type="line"/>
      <point x="478" y="53" type="line" smooth="yes"/>
      <point x="467" y="53"/>
      <point x="434" y="61"/>
      <point x="434" y="118" type="curve" smooth="yes"/>
      <point x="434" y="418" type="line" smooth="yes"/>
      <point x="434" y="475"/>
      <point x="467" y="483"/>
      <point x="478" y="483" type="curve" smooth="yes"/>
      <point x="486" y="483" type="line"/>
      <point x="486" y="536" type="line"/>
      <point x="102" y="536" type="line"/>
      <point x="102" y="483" type="line"/>
      <point x="112" y="483" type="line" smooth="yes"/>
      <point x="144" y="483"/>
      <point x="167" y="474"/>
      <point x="167" y="421" type="curve" smooth="yes"/>
      <point x="167" y="371"/>
      <point x="150" y="273"/>
      <point x="140" y="218" type="curve" smooth="yes"/>
      <point x="114" y="92"/>
      <point x="92" y="84"/>
      <point x="72" y="84" type="curve" smooth="yes"/>
      <point x="57" y="84"/>
      <point x="45" y="103"/>
      <point x="45" y="126" type="curve"/>
      <point x="29" y="126"/>
      <point x="0" y="107"/>
      <point x="0" y="63" type="curve" smooth="yes"/>
      <point x="0" y="19"/>
      <point x="26" y="-7"/>
    </contour>
  </outline>
</glyph>
<glyph name="afii10084" format="2">
  <advance width="422"/>
  <unicode hex="0442"/>
  <anchor x="211" y="0" name="bottom"/>
  <anchor x="211" y="536" name="top"/>
  <outline>
    <contour>
      <point x="85" y="0" type="line"/>
      <point x="338" y="0" type="line"/>
      <point x="338" y="53" type="line"/>
      <point x="327" y="53" type="line" smooth="yes"/>
      <point x="298" y="53"/>
      <point x="282" y="67"/>
      <point x="282" y="120" type="curve" smooth="yes"/>
      <point x="282" y="474" type="line"/>
      <point x="298" y="474" type="line" smooth="yes"/>
      <point x="334" y="474"/>
      <point x="344" y="456"/>
      <point x="350" y="393" type="curve" smooth="yes"/>
      <point x="353" y="353" type="line"/>
      <point x="414" y="353" type="line"/>
      <point x="409" y="536" type="line"/>
      <point x="11" y="536" type="line"/>
      <point x="8" y="353" type="line"/>
      <point x="69" y="353" type="line"/>
      <point x="72" y="393" type="line" smooth="yes"/>
      <point x="78" y="456"/>
      <point x="86" y="474"/>
      <point x="126" y="474" type="curve" smooth="yes"/>
      <point x="141" y="474" type="line"/>
      <point x="141" y="120" type="line" smooth="yes"/>
      <point x="141" y="67"/>
      <point x="121" y="53"/>
      <point x="94" y="53" type="curve" smooth="yes"/>
      <point x="85" y="53" type="line"/>
    </contour>
  </outline>
</glyph>
<glyph name="afii10097" format="2">
  <advance width="473"/>
  <unicode hex="044F"/>
  <anchor x="236" y="0" name="bottom"/>
  <anchor x="236" y="536" name="top"/>
  <outline>
    <contour>
      <point x="-4" y="0" type="line"/>
      <point x="99" y="0"/>
      <point x="154" y="12"/>
      <point x="186" y="92" type="curve" smooth="yes"/>
      <point x="243" y="232" type="line"/>
      <point x="264" y="232" type="line"/>
      <point x="264" y="120" type="line" smooth="yes"/>
      <point x="264" y="67"/>
      <point x="250" y="53"/>
      <point x="226" y="53" type="curve" smooth="yes"/>
      <point x="219" y="53" type="line"/>
      <point x="219" y="0" type="line"/>
      <point x="459" y="0" type="line"/>
      <point x="459" y="53" type="line"/>
      <point x="450" y="53" type="line" smooth="yes"/>
      <point x="418" y="53"/>
      <point x="406" y="67"/>
      <point x="406" y="120" type="curve" smooth="yes"/>
      <point x="406" y="416" type="line" smooth="yes"/>
      <point x="406" y="467"/>
      <point x="415" y="483"/>
      <point x="451" y="483" type="curve" smooth="yes"/>
      <point x="459" y="483" type="line"/>
      <point x="459" y="536" type="line"/>
      <point x="207" y="536" type="line" smooth="yes"/>
      <point x="84" y="536"/>
      <point x="39" y="475"/>
      <point x="39" y="386" type="curve" smooth="yes"/>
      <point x="39" y="302"/>
      <point x="81" y="262"/>
      <point x="120" y="248" type="curve"/>
      <point x="56" y="113" type="line" smooth="yes"/>
      <point x="36" y="72"/>
      <point x="23" y="53"/>
      <point x="-3" y="53" type="curve" smooth="yes"/>
      <point x="-4" y="53" type="line"/>
    </contour>
    <contour>
      <point x="246" y="290" type="line" smooth="yes"/>
      <point x="201" y="290"/>
      <point x="183" y="331"/>
      <point x="183" y="388" type="curve" smooth="yes"/>
      <point x="183" y="442"/>
      <point x="200" y="479"/>
      <point x="246" y="479" type="curve" smooth="yes"/>
      <point x="264" y="479" type="line"/>
      <point x="264" y="290" type="line"/>
    </contour>
  </outline>
</glyph>
<glyph name="uni0461" format="2">
  <advance width="649"/>
  <unicode hex="0461"/>
  <anchor x="325" y="0" name="bottom"/>
  <anchor x="325" y="536" name="top"/>
  <outline>
    <contour>
      <point x="180" y="0" type="curve"/>
      <point x="266" y="0" type="line"/>
      <point x="351" y="217" type="line"/>
      <point x="366" y="147"/>
      <point x="380" y="59"/>
      <point x="389" y="0" type="curve"/>
      <point x="482" y="0" type="line"/>
      <point x="581" y="149"/>
      <point x="625" y="304"/>
      <point x="625" y="434" type="curve" smooth="yes"/>
      <point x="625" y="501"/>
      <point x="603" y="546"/>
      <point x="564" y="546" type="curve" smooth="yes"/>
      <point x="525" y="546"/>
      <point x="506" y="520"/>
      <point x="506" y="477" type="curve"/>
      <point x="531" y="468"/>
      <point x="548" y="432"/>
      <point x="548" y="391" type="curve" smooth="yes"/>
      <point x="548" y="307"/>
      <point x="519" y="208"/>
      <point x="483" y="125" type="curve"/>
      <point x="456" y="291"/>
      <point x="424" y="441"/>
      <point x="399" y="536" type="curve"/>
      <point x="263" y="536" type="line"/>
      <point x="286" y="467"/>
      <point x="310" y="378"/>
      <point x="328" y="294" type="curve"/>
      <point x="273" y="130" type="line"/>
      <point x="218" y="431"/>
      <point x="189" y="545"/>
      <point x="113" y="545" type="curve" smooth="yes"/>
      <point x="58" y="545"/>
      <point x="22" y="516"/>
      <point x="0" y="497" type="curve"/>
      <point x="19" y="454" type="line"/>
      <point x="26" y="459"/>
      <point x="33" y="464"/>
      <point x="44" y="464" type="curve" smooth="yes"/>
      <point x="69" y="464"/>
      <point x="98" y="346"/>
    </contour>
  </outline>
</glyph>
<glyph name="uni0465" format="2">
  <advance width="635"/>
  <unicode hex="0465"/>
  <anchor x="317" y="0" name="bottom"/>
  <anchor x="317" y="536" name="top"/>
  <outline>
    <contour>
      <point x="454" y="-10" type="curve" smooth="yes"/>
      <point x="563" y="-10"/>
      <point x="605" y="51"/>
      <point x="605" y="99" type="curve" smooth="yes"/>
      <point x="605" y="130"/>
      <point x="584" y="140"/>
      <point x="564" y="148" type="curve"/>
      <point x="548" y="100"/>
      <point x="530" y="60"/>
      <point x="490" y="60" type="curve" smooth="yes"/>
      <point x="434" y="60"/>
      <point x="409" y="116"/>
      <point x="406" y="240" type="curve"/>
      <point x="507" y="240" type="line"/>
      <point x="507" y="301" type="line"/>
      <point x="406" y="301" type="line"/>
      <point x="408" y="454"/>
      <point x="432" y="489"/>
      <point x="462" y="489" type="curve" smooth="yes"/>
      <point x="495" y="489"/>
      <point x="504" y="443"/>
      <point x="504" y="373" type="curve"/>
      <point x="590" y="373"/>
      <point x="606" y="395"/>
      <point x="606" y="440" type="curve" smooth="yes"/>
      <point x="606" y="503"/>
      <point x="565" y="549"/>
      <point x="454" y="549" type="curve" smooth="yes"/>
      <point x="354" y="549"/>
      <point x="276" y="490"/>
      <point x="265" y="303" type="curve"/>
      <point x="205" y="303" type="line"/>
      <point x="205" y="418" type="line" smooth="yes"/>
      <point x="205" y="472"/>
      <point x="212" y="483"/>
      <point x="236" y="483" type="curve" smooth="yes"/>
      <point x="241" y="483" type="line"/>
      <point x="241" y="536" type="line"/>
      <point x="10" y="536" type="line"/>
      <point x="10" y="483" type="line"/>
      <point x="19" y="483" type="line" smooth="yes"/>
      <point x="46" y="483"/>
      <point x="62" y="471"/>
      <point x="62" y="419" type="curve" smooth="yes"/>
      <point x="62" y="118" type="line" smooth="yes"/>
      <point x="62" y="64"/>
      <point x="47" y="53"/>
      <point x="19" y="53" type="curve" smooth="yes"/>
      <point x="10" y="53" type="line"/>
      <point x="10" y="0" type="line"/>
      <point x="241" y="0" type="line"/>
      <point x="241" y="53" type="line"/>
      <point x="237" y="53" type="line" smooth="yes"/>
      <point x="214" y="53"/>
      <point x="205" y="64"/>
      <point x="205" y="118" type="curve" smooth="yes"/>
      <point x="205" y="246" type="line"/>
      <point x="264" y="246" type="line"/>
      <point x="271" y="57"/>
      <point x="344" y="-10"/>
    </contour>
  </outline>
</glyph>
<glyph name="uni0467" format="2">
  <advance width="524"/>
  <unicode hex="0467"/>
  <anchor x="262" y="0" name="bottom"/>
  <anchor x="262" y="536" name="top"/>
  <outline>
    <contour>
      <point x="5" y="0" type="line"/>
      <point x="142" y="0" type="line"/>
      <point x="142" y="53" type="line"/>
      <point x="129" y="51"/>
      <point x="119" y="58"/>
      <point x="119" y="78" type="curve" smooth="yes"/>
      <point x="119" y="96"/>
      <point x="125" y="118"/>
      <point x="129" y="137" type="curve" smooth="yes"/>
      <point x="156" y="246" type="line"/>
      <point x="169" y="246" type="line"/>
      <point x="169" y="0" type="line"/>
      <point x="269" y="0" type="line"/>
      <point x="269" y="246" type="line"/>
      <point x="280" y="246" type="line"/>
      <point x="313" y="132" type="line" smooth="yes"/>
      <point x="317" y="114"/>
      <point x="322" y="99"/>
      <point x="322" y="83" type="curve" smooth="yes"/>
      <point x="322" y="62"/>
      <point x="311" y="53"/>
      <point x="296" y="53" type="curve"/>
      <point x="296" y="0" type="line"/>
      <point x="517" y="0" type="line"/>
      <point x="517" y="53" type="line"/>
      <point x="488" y="53"/>
      <point x="472" y="76"/>
      <point x="459" y="119" type="curve" smooth="yes"/>
      <point x="324" y="536" type="line"/>
      <point x="183" y="536" type="line"/>
      <point x="64" y="125" type="line" smooth="yes"/>
      <point x="48" y="76"/>
      <point x="36" y="53"/>
      <point x="13" y="53" type="curve" smooth="yes"/>
      <point x="5" y="53" type="line"/>
    </contour>
    <contour>
      <point x="176" y="303" type="line"/>
      <point x="197" y="376" type="line"/>
      <point x="204" y="409"/>
      <point x="213" y="446"/>
      <point x="219" y="471" type="curve"/>
      <point x="222" y="447"/>
      <point x="231" y="406"/>
      <point x="240" y="374" type="curve" smooth="yes"/>
      <point x="260" y="303" type="line"/>
    </contour>
  </outline>
</glyph>
<glyph name="uni0469" format="2">
  <advance width="763"/>
  <unicode hex="0469"/>
  <anchor x="390" y="0" name="bottom"/>
  <anchor x="390" y="536" name="top"/>
  <outline>
    <contour>
      <point x="10" y="0" type="line"/>
      <point x="196" y="0" type="line"/>
      <point x="196" y="246" type="line"/>
      <point x="347" y="246" type="line"/>
      <point x="366" y="303" type="line"/>
      <point x="196" y="303" type="line"/>
      <point x="196" y="411" type="line" smooth="yes"/>
      <point x="196" y="469"/>
      <point x="211" y="483"/>
      <point x="236" y="483" type="curve" smooth="yes"/>
      <point x="243" y="483" type="line"/>
      <point x="243" y="536" type="line"/>
      <point x="10" y="536" type="line"/>
      <point x="10" y="483" type="line"/>
      <point x="18" y="483" type="line" smooth="yes"/>
      <point x="46" y="483"/>
      <point x="62" y="470"/>
      <point x="62" y="412" type="curve" smooth="yes"/>
      <point x="62" y="125" type="line" smooth="yes"/>
      <point x="62" y="67"/>
      <point x="46" y="53"/>
      <point x="18" y="53" type="curve" smooth="yes"/>
      <point x="10" y="53" type="line"/>
    </contour>
    <component base="uni0467" xOffset="239"/>
  </outline>
</glyph>
